{"glyphs":{"0":{"ha":779,"x_min":28,"x_max":751,"o":"m 371 100 q 428 143 400 100 q 468 236 457 186 q 479 335 479 286 q 458 483 479 419 q 421 546 436 546 q 419 544 419 546 q 399 513 399 532 l 401 492 q 399 478 401 482 q 396 467 396 474 q 398 457 396 464 q 400 439 400 450 q 394 405 400 422 q 372 388 388 388 q 359 391 367 388 q 348 402 351 394 q 344 418 344 410 l 346 426 q 349 478 349 453 l 349 510 q 343 527 349 518 q 329 536 338 536 q 319 529 324 536 q 269 343 269 460 q 299 176 269 251 q 371 100 329 100 m 604 -371 q 593 -362 597 -371 q 585 -324 585 -343 q 588 -293 585 -310 q 590 -232 590 -271 q 586 -165 590 -204 l 588 -142 q 576 -114 588 -125 q 575 -110 576 -111 q 572 -108 574 -110 q 525 -101 536 -101 q 506 -107 517 -101 q 408 -136 489 -121 l 381 -137 q 264 -107 332 -137 q 225 -86 240 -101 q 211 -78 217 -78 q 204 -86 207 -78 q 199 -128 199 -107 l 199 -136 q 196 -171 199 -153 q 192 -228 192 -200 q 182 -247 192 -237 q 172 -260 176 -253 q 167 -264 172 -264 q 155 -260 161 -264 q 147 -250 149 -256 q 144 -239 146 -244 q 138 -204 138 -225 l 139 -186 q 135 -151 139 -169 q 126 -78 129 -124 q 117 0 124 -32 q 90 57 111 32 q 60 147 75 79 q 51 181 56 169 q 28 347 28 264 q 31 433 28 390 l 31 438 q 101 647 31 493 q 215 785 140 726 q 371 847 290 843 q 574 781 490 847 q 705 604 658 714 q 751 365 751 494 q 731 193 751 281 q 694 89 717 144 q 663 3 676 44 q 650 -83 650 -39 q 646 -110 650 -96 q 642 -139 642 -125 q 644 -172 642 -151 l 636 -308 q 624 -354 633 -337 q 604 -371 614 -371 z "},"1":{"ha":338,"x_min":28,"x_max":310,"o":"m 106 -307 q 79 -285 92 -307 q 67 -242 67 -264 q 71 -203 67 -222 q 82 -108 82 -154 q 76 -55 82 -67 q 71 -33 71 -43 q 69 -15 71 -24 q 81 150 69 43 l 81 224 q 76 426 81 392 q 68 544 74 436 q 63 663 63 653 q 45 690 63 674 q 28 722 28 707 q 32 742 28 731 q 48 792 42 764 q 65 844 54 821 q 104 867 76 867 q 117 865 111 867 q 169 860 144 860 q 204 863 188 860 q 263 869 240 869 q 299 851 290 869 q 308 783 308 833 q 306 682 308 744 q 299 372 299 576 q 308 -21 299 211 l 310 -72 q 306 -144 310 -125 q 301 -183 301 -162 l 303 -196 q 296 -208 303 -203 q 279 -214 289 -214 q 251 -199 267 -214 q 244 -178 244 -187 l 246 -157 q 238 -121 246 -144 l 235 -119 q 233 -105 233 -117 q 224 -90 232 -93 q 185 -82 208 -82 q 115 -124 117 -82 q 111 -178 111 -157 q 125 -235 111 -221 q 136 -265 136 -249 q 127 -294 136 -281 q 106 -307 118 -307 z "},"2":{"ha":717,"x_min":31,"x_max":689,"o":"m 614 -294 q 588 -283 601 -294 q 575 -253 575 -271 q 588 -211 575 -235 q 606 -156 606 -185 q 589 -114 606 -135 q 547 -99 575 -99 q 526 -100 536 -99 q 506 -101 515 -101 q 490 -103 497 -101 q 443 -104 471 -104 q 346 -97 403 -104 q 296 -93 329 -93 q 272 -96 283 -93 q 215 -100 244 -100 l 204 -100 q 145 -108 172 -100 q 111 -150 118 -115 q 104 -162 108 -157 q 99 -173 100 -167 q 96 -186 97 -179 q 97 -204 96 -196 q 99 -221 99 -212 q 90 -243 99 -232 q 74 -256 82 -254 q 47 -238 53 -256 q 42 -196 42 -221 l 43 -142 q 41 -115 43 -128 q 36 -87 39 -101 q 31 -37 31 -64 l 32 0 q 38 63 33 40 q 60 104 43 85 q 114 156 76 124 l 143 178 q 324 349 218 231 q 344 372 331 358 q 393 429 367 396 q 440 503 419 463 q 460 590 460 544 q 456 626 460 608 q 368 676 443 676 q 222 636 282 676 l 200 622 l 199 622 q 195 620 197 621 q 193 608 193 619 q 200 532 193 593 q 189 503 200 514 q 167 493 178 493 q 146 518 149 493 l 144 524 q 147 544 144 532 q 150 575 150 557 q 111 661 150 619 q 85 699 96 675 q 75 744 75 722 q 89 781 75 767 q 163 829 122 814 q 217 854 203 844 q 250 864 232 864 q 419 876 375 876 q 506 860 469 876 q 592 797 542 843 q 654 697 635 753 l 661 683 q 674 619 674 651 q 683 567 675 593 q 689 536 689 551 q 684 495 689 515 q 678 454 679 475 q 676 383 676 411 q 675 337 676 356 q 667 293 674 318 q 655 282 665 286 q 638 278 644 278 q 631 279 633 278 q 617 306 617 286 q 631 374 617 328 l 635 397 q 633 411 635 404 q 632 426 632 418 l 633 439 q 554 314 583 357 q 479 215 513 253 q 419 138 446 178 l 418 132 q 419 131 418 131 q 436 123 428 128 q 454 118 444 118 q 460 119 458 118 q 532 124 479 124 q 615 122 583 124 q 647 110 633 122 q 664 81 661 99 q 668 61 664 71 q 672 42 672 51 l 671 33 q 663 -56 663 -1 q 658 -69 663 -62 q 639 -136 639 -107 q 642 -172 639 -154 q 646 -210 646 -189 q 628 -286 646 -242 q 614 -294 624 -294 z "},"3":{"ha":675,"x_min":28,"x_max":647,"o":"m 53 -344 q 36 -337 44 -344 q 28 -312 28 -329 q 31 -292 28 -303 q 36 -212 36 -260 l 35 -115 l 38 -75 q 34 -42 38 -53 q 31 -25 31 -32 q 38 -3 31 -14 q 97 103 74 47 q 139 132 113 132 q 183 104 165 132 q 269 60 210 60 l 296 60 q 329 63 308 63 q 379 89 361 63 l 388 101 q 407 140 407 121 l 406 154 q 350 250 406 221 q 254 272 307 272 q 208 299 219 276 q 196 353 196 321 q 200 408 196 379 q 243 472 200 454 l 292 489 q 353 511 321 501 q 401 569 401 531 q 378 621 401 597 q 321 644 356 644 q 199 598 229 640 q 157 493 168 556 q 154 476 154 485 q 158 444 154 460 q 161 418 161 429 q 146 399 161 403 q 111 433 117 399 l 113 451 l 113 494 q 61 679 113 613 q 38 729 38 704 q 75 790 38 763 q 169 847 113 818 q 250 875 226 875 l 272 876 q 357 871 332 876 q 410 851 382 865 q 443 838 424 846 q 483 814 463 831 q 519 781 504 797 q 538 757 535 764 q 560 718 546 738 q 585 674 574 699 q 597 614 597 649 q 594 586 597 600 l 594 561 q 588 508 594 542 q 551 438 582 475 q 522 393 522 407 q 554 367 522 376 q 610 314 590 347 l 617 304 q 642 242 638 275 q 647 158 647 210 q 643 85 647 103 q 631 46 639 67 q 604 -83 604 -19 l 606 -140 q 588 -206 606 -176 l 585 -212 l 586 -225 q 584 -245 586 -235 q 582 -267 582 -256 q 585 -287 582 -276 q 561 -310 585 -304 l 558 -310 q 543 -281 543 -310 q 544 -257 543 -269 q 546 -232 546 -244 q 543 -211 546 -219 q 536 -174 536 -192 q 540 -149 536 -160 l 542 -137 q 538 -124 542 -129 q 531 -112 535 -118 q 524 -102 526 -107 q 513 -95 521 -97 q 497 -93 506 -93 q 479 -97 486 -93 q 306 -147 415 -147 q 242 -142 275 -147 l 229 -142 l 224 -143 q 142 -126 197 -143 q 118 -121 128 -121 q 83 -145 92 -121 q 75 -201 75 -169 q 79 -271 75 -236 q 82 -317 82 -296 q 53 -344 79 -344 z "},"4":{"ha":644,"x_min":28,"x_max":617,"o":"m 365 497 q 375 506 375 497 q 374 520 375 511 q 372 542 372 529 q 376 572 372 565 q 379 586 379 579 q 375 597 379 592 q 342 547 353 576 q 315 503 332 524 q 338 499 328 499 q 365 497 358 499 m 407 -229 q 392 -222 397 -229 q 388 -204 388 -214 q 392 -164 392 -187 q 384 -112 392 -135 q 369 -50 376 -89 q 361 61 363 -11 l 361 207 q 354 303 361 272 q 319 333 347 333 q 294 329 308 333 q 226 324 265 324 l 211 324 q 147 321 175 324 q 114 306 118 318 q 106 281 110 293 q 94 240 94 260 q 96 217 96 229 q 82 188 96 199 q 74 172 74 181 q 76 160 74 167 q 79 142 79 153 q 64 124 74 124 q 50 129 57 124 l 50 131 q 42 143 42 139 q 44 151 42 146 q 47 160 47 156 q 42 182 47 165 q 35 314 35 231 q 31 364 35 343 q 28 400 28 378 q 31 464 28 421 q 48 508 33 490 q 81 542 63 525 l 83 543 q 146 593 119 574 q 217 653 181 615 q 311 788 253 692 l 326 810 q 354 857 343 832 q 389 879 368 879 l 400 879 q 493 867 450 867 l 554 867 q 599 859 582 867 q 617 821 617 851 l 615 806 q 610 719 611 776 q 601 610 607 642 q 596 546 596 578 l 597 503 q 593 446 597 474 q 589 306 589 392 q 600 72 589 151 q 606 -31 606 17 q 599 -114 606 -86 q 600 -124 599 -119 q 595 -149 600 -140 q 585 -164 590 -157 q 574 -171 581 -171 l 571 -169 q 561 -162 564 -168 q 558 -149 558 -157 q 554 -129 557 -140 q 550 -106 551 -118 q 526 -82 549 -82 l 510 -85 q 497 -83 503 -85 q 487 -81 492 -82 q 476 -79 482 -79 q 440 -108 446 -79 q 433 -171 433 -137 q 432 -203 433 -189 q 407 -229 429 -229 z "},"5":{"ha":740,"x_min":28,"x_max":713,"o":"m 44 -258 q 28 -231 28 -258 q 31 -169 28 -204 q 35 -71 35 -135 q 31 -10 31 -35 q 39 54 31 36 q 56 81 47 72 l 57 83 q 86 119 74 101 q 120 160 104 144 q 158 175 136 175 q 224 146 181 175 q 250 129 236 136 q 367 107 274 117 q 435 131 403 107 q 482 194 482 164 q 485 218 482 207 q 460 276 485 243 q 382 329 421 329 q 343 324 363 329 q 313 315 324 319 q 289 311 303 311 l 282 313 q 235 303 254 313 q 214 258 217 294 q 207 235 213 247 q 192 224 201 224 l 183 225 q 170 241 171 229 q 167 267 169 253 q 163 319 163 288 q 176 593 176 485 q 169 767 176 707 q 167 824 167 801 q 177 864 167 853 q 215 878 188 875 q 277 876 257 878 q 317 875 297 875 l 358 878 q 415 869 386 878 l 447 871 q 479 872 457 872 q 508 869 493 869 q 554 872 531 869 l 557 872 q 600 875 579 875 q 659 860 635 875 q 683 797 683 846 q 671 719 679 750 q 660 646 660 683 l 660 618 q 624 535 660 535 q 608 549 608 535 l 610 556 q 617 590 617 572 l 617 596 q 622 636 617 617 q 603 679 622 661 l 596 692 q 568 697 589 697 l 547 697 q 457 704 494 697 q 443 707 450 707 q 399 688 418 707 q 375 644 379 669 q 372 597 372 625 q 368 535 372 563 l 368 528 q 382 513 368 513 l 404 514 q 537 478 444 514 q 674 371 629 443 q 684 355 678 363 q 694 340 690 347 q 713 233 713 307 q 710 178 713 196 l 708 167 q 692 110 701 139 l 635 -72 q 618 -208 618 -131 q 610 -247 618 -240 q 596 -254 603 -254 q 583 -249 589 -254 q 576 -236 576 -244 q 581 -225 576 -232 q 585 -211 585 -218 q 581 -193 585 -203 q 571 -125 575 -176 q 557 -87 569 -100 q 526 -75 544 -75 q 499 -82 514 -75 l 486 -87 q 357 -108 451 -108 q 133 -68 225 -108 q 119 -64 125 -64 q 110 -69 114 -64 q 97 -82 106 -74 q 82 -91 92 -87 q 72 -107 72 -94 l 74 -122 q 60 -207 74 -172 l 58 -217 l 61 -244 q 44 -258 61 -258 z "},"6":{"ha":721,"x_min":28,"x_max":693,"o":"m 382 78 q 418 85 401 78 l 428 88 q 470 106 453 93 q 492 149 488 119 l 493 176 q 474 242 493 219 q 421 281 454 265 l 415 282 q 407 276 411 282 q 399 268 403 271 q 373 249 379 261 q 367 217 367 236 q 369 188 367 204 q 371 146 371 171 l 369 136 q 363 122 369 128 q 347 115 357 115 q 328 128 336 115 q 319 156 319 140 q 324 200 324 176 q 326 242 324 224 q 322 249 326 249 q 317 247 319 249 q 310 244 315 246 q 294 231 296 239 q 289 217 292 224 q 278 178 278 199 l 279 168 q 285 124 279 136 q 313 100 290 111 q 382 78 354 78 m 607 -265 q 596 -254 596 -265 q 597 -249 596 -253 q 599 -242 599 -246 q 594 -225 599 -232 q 585 -182 588 -210 q 575 -139 583 -160 q 535 -93 556 -93 q 507 -101 524 -93 l 494 -106 q 415 -118 468 -118 l 404 -119 q 356 -124 379 -124 q 231 -93 297 -124 q 119 11 178 -68 q 92 46 103 33 q 78 72 82 58 l 74 85 q 38 197 46 157 q 29 274 29 236 l 31 361 q 28 456 31 399 q 34 495 28 478 q 43 533 40 513 q 64 600 49 567 q 86 646 76 622 q 151 753 107 699 q 303 857 194 807 q 383 865 324 865 q 474 858 449 865 q 551 815 504 849 q 631 739 597 782 q 644 711 639 726 q 652 697 649 704 q 656 682 656 690 q 631 613 656 656 q 597 503 597 542 l 597 490 q 593 475 597 482 q 585 463 589 468 q 576 451 581 457 q 568 446 572 446 q 561 450 565 446 q 551 483 551 460 q 555 509 551 499 q 558 529 558 519 q 546 558 558 543 q 533 581 538 568 q 521 603 528 593 q 500 622 514 614 q 471 639 486 631 q 421 667 444 656 q 372 679 397 679 q 328 665 351 679 q 258 599 275 633 q 239 540 242 565 l 236 528 q 228 482 228 500 q 246 451 228 451 q 254 454 250 451 q 375 479 311 479 q 483 465 431 479 q 566 428 535 450 q 614 384 597 406 q 640 343 631 363 q 661 308 650 324 q 693 229 693 272 q 687 190 693 211 q 681 146 681 169 q 664 67 679 110 q 651 24 656 46 q 639 -76 646 3 q 631 -135 638 -101 q 622 -206 625 -169 q 624 -228 622 -224 q 625 -237 625 -233 q 619 -254 625 -243 q 607 -265 614 -265 z "},"7":{"ha":686,"x_min":28,"x_max":658,"o":"m 60 -257 q 47 -240 49 -257 q 43 -203 46 -222 q 38 -140 38 -171 l 38 -110 q 29 -47 38 -79 q 28 -37 28 -43 q 94 122 28 6 q 247 378 161 238 q 396 635 396 615 q 375 671 396 671 l 228 668 q 153 672 168 668 l 144 674 q 121 592 121 674 l 122 546 q 111 517 122 526 q 101 514 107 514 q 83 522 92 514 q 74 542 74 529 q 76 553 74 547 q 78 574 78 558 q 72 661 78 626 q 64 691 69 676 q 51 738 58 706 q 40 807 42 782 q 57 844 40 829 q 99 860 74 860 l 108 860 q 242 858 143 858 q 583 867 386 858 q 634 845 613 867 q 657 793 656 824 q 658 731 658 763 q 654 680 658 699 q 638 640 650 661 q 600 586 625 619 l 574 550 q 507 443 519 471 q 482 406 500 421 q 474 395 476 403 q 469 382 472 388 q 367 206 375 231 q 343 169 358 181 q 331 151 335 165 l 326 143 q 281 11 288 69 q 256 -75 272 -31 q 246 -118 246 -103 q 248 -135 246 -131 q 250 -147 250 -140 q 247 -165 250 -158 q 232 -172 244 -172 q 214 -147 215 -172 l 203 -103 q 174 -81 197 -83 l 157 -79 q 107 -107 128 -79 q 88 -144 92 -125 q 85 -182 85 -162 q 60 -257 83 -257 z "},"8":{"ha":736,"x_min":28,"x_max":708,"o":"m 379 49 q 493 113 456 49 q 508 167 508 138 q 489 219 508 194 q 484 228 485 226 q 479 229 483 229 q 474 222 474 229 q 463 157 463 200 q 447 131 460 143 q 435 125 442 125 q 415 154 415 132 l 417 176 l 417 182 q 424 217 417 200 q 426 224 426 219 q 422 255 426 242 q 402 272 418 268 q 369 276 386 276 q 285 241 318 276 q 251 163 251 206 q 278 94 251 126 q 379 49 325 49 m 386 488 q 442 508 417 488 q 468 572 468 529 l 467 586 l 468 594 q 457 624 468 611 q 421 649 435 649 q 406 638 414 649 q 394 620 397 628 q 392 607 392 613 l 394 588 q 365 550 394 553 q 356 553 358 550 q 351 559 353 556 q 349 564 350 563 q 343 586 343 576 q 347 606 343 597 q 350 624 350 615 q 347 638 349 631 q 335 644 344 644 q 323 638 326 644 q 315 626 319 632 q 299 582 299 607 q 326 511 299 535 q 386 488 354 488 m 618 -296 q 590 -243 590 -296 q 595 -189 590 -215 q 600 -126 600 -162 q 598 -91 600 -110 q 592 -72 596 -72 q 585 -74 589 -72 q 576 -78 581 -75 q 531 -97 553 -86 q 488 -117 510 -108 q 436 -126 465 -126 q 419 -129 426 -126 q 371 -133 407 -133 q 259 -116 308 -133 q 176 -77 210 -99 q 126 -42 143 -56 l 114 -33 q 110 -96 110 -78 q 112 -118 110 -108 q 114 -139 114 -128 l 113 -157 q 96 -178 108 -178 q 85 -174 90 -178 q 69 -132 69 -162 l 72 -90 l 71 -51 q 74 -26 71 -39 q 69 -16 74 -21 q 64 -6 65 -11 q 49 67 57 32 q 28 183 32 124 q 54 269 28 207 q 131 369 81 331 q 142 385 142 376 q 135 400 142 390 q 99 459 121 414 q 76 564 76 504 l 78 593 q 192 792 100 724 q 394 860 285 860 q 578 803 492 860 q 703 629 664 747 q 708 579 708 604 q 703 515 708 547 l 700 494 q 672 430 696 471 q 621 364 647 389 q 617 357 617 360 q 626 344 617 351 q 651 320 636 336 q 679 274 665 304 q 708 158 708 201 q 699 97 708 122 q 692 65 694 81 q 678 36 690 50 q 655 0 665 22 q 644 -71 644 -22 l 644 -83 q 643 -104 644 -94 q 642 -125 642 -114 l 643 -171 l 642 -262 q 634 -288 642 -281 q 618 -296 626 -296 z "},"9":{"ha":721,"x_min":28,"x_max":693,"o":"m 278 482 q 271 511 271 497 q 273 534 271 522 q 275 557 275 546 q 271 582 275 569 q 254 533 254 560 q 278 482 254 501 m 340 436 q 375 446 356 436 l 388 451 q 428 485 411 461 q 444 542 444 508 q 442 568 444 554 l 443 576 q 436 596 443 589 q 379 635 422 621 l 368 638 q 344 629 357 638 q 315 568 315 611 l 317 524 q 313 494 317 507 q 292 468 308 481 q 289 464 289 467 q 292 461 289 463 q 340 436 319 436 m 49 -296 q 39 -290 43 -296 q 31 -256 31 -275 l 32 -246 q 43 -157 43 -190 q 40 -130 43 -142 q 38 -103 38 -118 q 46 -35 38 -72 q 67 25 54 3 q 92 72 79 47 q 117 119 104 96 q 151 138 131 138 q 185 119 171 138 q 249 73 199 101 q 357 44 299 44 q 517 219 481 44 l 518 229 q 511 263 518 246 q 500 276 507 271 q 489 282 493 282 q 483 278 486 282 q 475 274 479 275 q 424 189 424 263 q 426 143 424 168 q 410 119 426 126 q 382 128 393 119 q 369 149 371 138 l 369 163 q 360 206 369 182 q 304 246 350 231 l 251 258 q 156 292 197 269 q 54 385 115 314 q 28 488 28 419 q 69 667 28 571 q 192 806 110 764 l 199 810 q 270 840 238 828 q 340 851 303 851 q 501 803 404 851 q 593 714 554 774 q 658 599 629 657 l 693 389 q 691 352 693 365 q 689 325 689 339 l 690 308 q 681 217 690 257 q 660 139 671 176 q 633 4 633 63 q 638 -39 633 -17 q 632 -96 638 -69 q 626 -129 626 -117 l 628 -136 q 608 -156 628 -156 q 593 -151 596 -156 q 589 -139 590 -146 q 583 -104 583 -118 q 589 -69 583 -81 q 594 -49 594 -57 l 593 -44 l 594 -31 q 583 -19 594 -22 q 564 -36 572 -19 q 503 -97 550 -64 q 381 -144 456 -129 q 321 -151 347 -151 q 240 -140 275 -151 q 173 -116 204 -129 q 108 -93 142 -103 l 103 -92 q 83 -116 88 -92 q 78 -176 79 -140 q 74 -214 76 -203 q 72 -236 72 -225 l 74 -257 q 65 -285 74 -275 q 49 -296 57 -296 z "},"\u0000":{"ha":0,"x_min":0,"x_max":0,"o":""},"\u001d":{"ha":0,"x_min":0,"x_max":0,"o":""}," ":{"ha":556,"x_min":0,"x_max":0,"o":""}," ":{"ha":556,"x_min":0,"x_max":0,"o":""},"!":{"ha":264,"x_min":28,"x_max":236,"o":"m 83 128 l 100 131 q 203 140 158 140 l 210 140 q 233 151 229 140 q 236 172 236 161 q 231 207 236 190 q 222 304 222 244 l 224 369 q 221 482 224 415 q 217 510 219 506 q 215 518 215 515 q 224 621 215 529 q 236 800 236 776 q 206 842 236 833 q 144 851 175 851 l 90 850 q 28 790 28 850 q 36 689 28 736 q 42 669 38 679 q 46 647 46 658 l 44 642 l 46 540 q 44 398 46 475 q 35 276 42 321 q 28 186 28 231 q 38 163 28 176 q 60 138 47 149 q 83 128 74 128 m 96 -201 q 106 -194 103 -201 q 111 -169 108 -187 q 121 -115 114 -151 q 139 -83 126 -92 q 168 -70 151 -75 q 202 -51 185 -65 q 222 11 219 -36 q 211 60 222 39 q 183 92 206 76 q 147 108 161 108 q 130 103 136 108 q 118 97 124 99 q 63 63 76 86 q 49 13 49 40 q 53 -35 49 -11 q 58 -76 58 -58 l 56 -100 q 71 -139 56 -119 q 81 -169 81 -149 q 83 -189 82 -176 q 96 -201 85 -201 z "},"\"":{"ha":364,"x_min":28,"x_max":336,"o":"m 268 664 q 290 689 290 665 l 289 724 q 293 749 289 736 q 321 876 310 792 q 331 927 325 911 q 336 960 336 943 q 317 1019 336 993 q 268 1046 299 1046 q 225 1032 249 1046 q 203 997 210 1021 l 200 986 q 194 964 196 975 q 197 950 194 957 q 208 886 208 917 q 212 852 208 868 q 215 822 215 836 q 220 810 217 814 q 225 801 224 806 q 238 781 231 790 q 254 733 254 761 l 253 706 q 254 677 254 690 q 268 664 254 664 m 110 660 q 124 664 118 660 q 131 675 131 668 q 129 680 131 678 q 126 687 128 682 q 125 703 125 692 q 135 763 125 725 q 160 878 153 824 q 171 940 164 919 l 172 947 q 155 1010 172 979 q 104 1042 138 1042 q 58 1026 85 1042 q 39 994 44 1015 q 33 977 38 985 q 28 961 28 969 l 29 956 q 43 875 40 919 q 67 790 47 814 q 94 686 94 761 l 94 675 q 99 663 94 665 q 110 660 103 660 z "},"#":{"ha":629,"x_min":38,"x_max":601,"o":"m 124 -129 q 139 -120 136 -129 q 143 -94 142 -111 q 142 -77 143 -85 q 140 -60 140 -69 q 147 -19 140 -44 q 149 -11 147 -14 q 199 -4 154 -4 q 243 -14 243 -4 l 242 -21 q 247 -40 242 -31 q 251 -65 251 -49 q 264 -78 251 -76 q 277 -64 275 -78 q 279 -35 279 -50 q 281 -12 279 -21 q 289 75 289 39 q 286 132 289 110 l 285 156 q 292 176 285 172 q 319 181 300 181 q 347 176 340 181 q 353 160 353 172 l 351 146 q 349 78 351 93 q 347 50 347 64 q 349 29 347 39 q 360 -47 360 -21 l 360 -57 q 361 -79 360 -72 q 372 -86 363 -86 q 383 -81 381 -86 q 386 -65 385 -76 q 395 -27 388 -53 q 418 -1 403 -1 q 435 -6 426 -1 q 453 -10 443 -10 l 468 -7 q 486 -31 483 -7 q 494 -93 492 -71 q 500 -118 497 -115 q 508 -121 503 -121 q 522 -97 519 -121 q 532 -9 528 -36 q 538 30 536 18 q 540 57 540 42 l 542 131 q 549 156 542 147 q 567 170 557 164 q 585 187 576 176 q 594 219 594 197 q 596 262 594 242 q 597 300 597 282 q 582 340 597 324 q 544 357 567 357 l 540 356 q 529 371 529 356 q 533 411 529 386 q 538 464 538 436 q 537 481 538 474 q 535 494 536 488 q 532 510 533 501 q 560 535 532 532 q 599 579 599 549 l 594 608 q 598 628 594 618 q 601 650 601 638 q 592 683 601 668 q 561 701 582 697 q 549 753 549 707 q 553 810 549 789 q 527 862 553 850 q 471 874 501 874 q 438 872 453 874 q 399 871 422 871 q 351 824 354 871 q 349 795 351 810 q 347 758 347 781 l 349 751 l 350 728 q 340 712 350 715 q 306 707 331 708 l 304 707 q 278 738 278 707 q 281 782 278 761 q 286 828 285 803 q 238 883 286 879 q 211 878 225 883 l 208 876 q 194 878 199 876 q 181 881 189 881 q 146 874 163 881 q 100 835 101 867 l 97 813 q 92 754 92 783 q 97 711 92 733 l 97 708 q 88 699 97 701 q 51 679 57 694 q 44 647 44 664 l 44 640 q 41 609 44 624 q 38 585 38 594 q 41 569 38 575 q 49 558 44 563 q 58 545 54 553 q 64 525 63 538 q 72 505 65 513 q 85 497 78 497 q 99 518 96 497 q 106 528 99 528 q 113 525 110 528 q 115 507 115 522 q 114 488 114 499 q 116 447 114 467 q 118 406 118 426 q 115 372 118 389 q 89 353 111 356 q 60 340 74 350 q 44 300 47 329 l 44 269 q 39 217 44 242 l 40 208 q 51 147 50 175 q 56 117 53 129 q 67 106 58 106 q 77 110 75 107 q 79 132 79 113 q 86 153 79 143 q 88 156 88 153 q 94 158 89 158 q 99 153 99 158 q 94 65 94 140 q 99 24 94 39 q 107 -31 107 -6 l 106 -81 q 110 -113 106 -97 q 124 -129 114 -129 m 351 344 q 342 347 347 346 q 328 347 336 347 q 311 346 318 347 q 300 344 304 344 q 283 417 283 344 q 285 443 283 431 q 288 468 288 456 l 286 504 q 289 529 286 518 q 297 540 292 540 q 305 538 300 540 q 324 536 310 536 l 342 538 q 357 531 354 538 q 360 507 360 525 l 358 463 q 364 407 358 435 q 365 397 365 403 q 361 375 365 386 q 357 350 357 364 q 356 345 357 346 q 351 344 354 344 z "},"$":{"ha":590,"x_min":28,"x_max":563,"o":"m 238 -146 q 248 -133 246 -144 q 250 -106 250 -122 q 256 -60 250 -82 q 292 -36 263 -37 q 314 -32 306 -35 q 327 -27 322 -29 q 335 -25 332 -25 q 341 -31 338 -25 q 351 -49 344 -36 q 367 -61 358 -61 q 383 -33 379 -61 q 381 -15 383 -26 q 378 15 378 -4 q 382 47 378 32 q 394 65 386 63 q 483 117 447 78 l 513 142 q 549 206 536 161 q 563 296 563 250 q 532 393 563 358 q 513 424 519 407 q 475 454 500 447 q 445 475 460 460 q 407 497 431 490 q 378 499 400 499 q 361 503 369 499 q 290 518 326 518 l 285 518 q 227 538 242 518 q 213 579 213 558 q 218 606 213 594 q 232 618 224 618 q 249 589 244 618 q 264 568 249 568 q 281 586 278 568 q 335 643 288 639 q 350 637 343 643 q 364 629 357 631 q 427 585 414 610 q 440 539 440 560 q 445 519 442 526 q 460 511 449 511 q 476 533 476 514 q 479 571 476 553 q 494 589 482 589 q 503 588 501 589 q 511 586 506 588 q 526 624 526 586 q 525 654 526 640 l 524 667 q 484 743 521 714 q 401 790 447 772 q 381 804 386 796 q 376 833 376 813 q 321 892 376 892 q 299 890 310 892 q 276 888 288 888 q 256 890 264 888 q 230 876 243 890 q 212 851 217 863 q 207 828 207 839 q 208 815 207 821 l 208 806 q 193 786 208 793 q 147 768 165 774 q 115 756 128 763 q 88 731 101 749 q 49 678 74 714 q 28 572 28 646 q 57 426 28 508 q 72 358 72 385 q 76 337 74 344 q 88 329 78 329 q 101 335 97 329 q 104 354 104 340 q 107 390 104 379 q 118 400 110 400 q 176 389 146 392 q 235 378 206 386 q 269 371 251 374 q 331 353 301 371 q 364 283 364 324 q 350 243 364 261 q 343 239 347 240 q 303 226 318 226 q 263 229 282 226 q 204 253 238 229 q 143 278 171 278 q 92 235 113 278 q 69 200 82 213 q 60 176 63 193 q 57 96 57 158 l 60 96 l 60 19 q 75 4 60 4 q 92 51 85 4 q 113 104 99 104 q 127 98 118 104 q 151 85 136 92 q 213 26 213 57 q 210 12 213 18 q 208 -3 208 6 q 221 -92 221 -54 l 221 -99 q 224 -133 222 -121 q 238 -146 226 -146 z "},"%":{"ha":636,"x_min":28,"x_max":608,"o":"m 57 -206 q 78 -187 74 -204 q 83 -143 82 -171 q 90 -81 83 -115 q 119 -19 96 -47 q 124 -13 122 -17 q 131 -6 126 -10 q 140 -1 135 -1 q 171 -50 165 -6 q 193 -83 175 -83 q 211 -74 203 -83 q 219 -53 219 -64 l 218 -39 l 231 1 q 253 53 243 43 q 263 65 260 58 q 312 174 293 139 q 339 238 331 208 q 407 399 353 290 q 500 597 461 507 q 535 674 533 672 q 540 683 536 676 q 608 832 608 790 q 603 847 608 843 q 593 853 597 850 q 561 864 581 864 l 539 863 q 520 867 528 864 q 497 869 513 869 q 467 867 482 869 q 434 863 451 864 q 403 837 417 863 q 376 776 389 811 q 338 688 364 740 q 307 624 311 635 q 276 546 301 606 q 186 343 228 429 q 129 228 131 228 q 61 67 83 113 q 39 15 46 35 q 30 -26 32 -4 q 28 -90 28 -47 l 28 -142 q 34 -173 32 -158 q 40 -197 36 -187 q 57 -206 44 -206 m 510 -32 q 553 -19 532 -32 q 590 26 574 -6 q 607 86 607 58 q 572 163 607 133 q 496 193 538 193 q 444 177 468 193 q 406 125 419 161 l 403 118 q 394 85 394 101 l 396 79 q 438 -1 406 31 q 510 -32 471 -32 m 174 668 q 235 707 214 668 q 254 761 254 735 q 240 813 254 785 q 204 855 226 842 q 156 876 182 868 q 143 878 150 878 q 82 847 114 878 q 50 760 50 815 q 66 702 50 710 q 94 686 82 694 q 139 668 114 668 q 156 671 147 668 q 174 668 165 668 z "},"&":{"ha":704,"x_min":28,"x_max":676,"o":"m 504 -217 q 524 -199 521 -217 q 539 -64 539 -99 l 539 -58 q 542 -28 540 -39 q 553 -7 544 -18 q 563 44 563 4 q 560 81 563 65 l 557 101 q 558 111 557 107 q 571 165 571 138 q 564 265 568 235 l 563 297 q 567 312 563 308 q 583 315 571 315 q 614 292 608 315 q 619 242 619 269 q 624 206 621 221 q 638 192 626 192 q 647 196 643 192 q 651 206 651 200 q 654 222 651 213 q 657 243 657 232 l 656 261 q 666 327 656 299 q 676 410 676 356 q 672 472 676 436 q 622 519 664 504 q 536 535 581 535 q 484 531 507 535 q 440 528 461 528 q 374 532 403 528 q 333 535 351 535 l 332 533 q 263 561 288 533 q 239 613 239 589 q 246 632 239 624 q 308 664 278 664 q 331 660 324 664 q 341 646 339 657 q 346 624 343 635 q 353 585 353 606 l 350 567 q 364 554 350 554 q 374 563 374 554 q 382 590 375 576 q 389 619 389 603 l 388 625 q 396 632 388 632 q 407 628 403 632 q 417 617 411 624 q 430 603 422 610 q 450 596 438 596 q 501 618 468 596 q 513 594 508 601 q 522 588 517 588 q 543 610 543 590 q 557 707 557 678 q 552 734 557 724 q 540 755 547 744 q 525 779 532 765 q 499 800 514 793 l 483 811 q 375 864 435 850 q 343 868 360 868 q 318 867 331 868 q 277 865 306 865 q 226 856 249 865 q 93 731 138 817 l 82 711 q 65 644 67 681 l 63 596 q 74 531 63 557 q 99 485 86 504 q 117 443 117 463 q 96 406 117 425 q 45 331 63 371 q 28 267 28 292 q 32 217 32 238 q 38 131 32 160 q 65 75 43 103 q 101 -3 94 42 l 106 -44 l 113 -97 q 131 -117 113 -114 q 142 -110 139 -117 q 144 -82 144 -103 l 143 -12 q 144 -8 144 -11 q 150 -1 144 -4 q 155 -4 153 -1 q 158 -7 157 -7 q 238 -44 192 -37 q 357 -51 285 -51 q 424 -47 403 -50 l 443 -46 q 465 -60 456 -46 q 482 -126 482 -94 l 482 -158 q 504 -217 482 -217 m 339 149 q 318 151 333 149 q 290 159 303 154 q 275 168 276 164 q 261 206 272 188 q 250 247 250 224 q 255 268 250 261 q 267 281 260 275 q 281 297 274 286 q 289 267 283 281 q 294 240 294 254 q 308 224 299 224 q 319 227 317 224 q 321 239 321 231 l 321 244 q 336 307 321 263 l 336 310 q 344 321 340 321 q 353 318 349 319 q 364 313 358 317 q 369 301 369 310 q 374 258 374 281 q 356 160 374 208 q 339 149 351 149 z "},"'":{"ha":197,"x_min":28,"x_max":169,"o":"m 104 686 q 124 706 124 686 l 122 728 q 140 818 122 774 q 151 881 150 849 q 164 943 153 913 q 169 976 169 958 q 152 1039 169 1010 q 103 1068 135 1068 q 57 1053 82 1068 q 44 1039 47 1046 q 38 1024 40 1032 q 33 1010 36 1017 q 28 988 28 997 q 31 969 28 978 q 38 947 35 960 q 42 913 42 933 q 46 874 43 892 q 50 840 49 857 q 51 834 50 836 q 54 830 53 832 q 57 825 56 828 q 69 807 63 815 q 86 774 81 793 q 88 740 88 761 q 89 707 88 719 l 88 700 q 101 686 88 686 l 104 686 z "},"(":{"ha":378,"x_min":28,"x_max":350,"o":"m 222 -142 q 242 -131 233 -142 q 251 -107 251 -119 l 251 -69 l 250 -49 q 265 -24 250 -37 q 339 69 300 4 q 350 104 350 86 q 339 138 350 121 l 331 153 q 310 183 322 169 q 264 258 279 217 q 256 279 261 269 q 244 321 244 299 l 246 343 q 242 383 246 364 q 238 421 238 403 l 239 446 l 236 500 q 256 557 236 532 q 282 590 269 571 q 310 624 294 608 q 335 653 326 639 q 344 686 344 668 l 343 701 q 314 778 332 742 l 299 810 q 267 829 288 829 l 256 828 q 199 800 218 819 q 121 681 165 768 q 93 610 101 643 q 74 544 89 589 q 44 431 46 468 q 39 397 43 411 q 28 336 29 369 q 50 314 28 317 l 53 314 q 67 285 67 314 l 65 260 q 112 101 85 156 q 164 17 139 47 q 192 -26 181 -6 q 203 -78 203 -47 q 201 -97 203 -89 q 200 -111 200 -104 q 207 -131 200 -121 q 222 -142 214 -140 z "},")":{"ha":363,"x_min":28,"x_max":335,"o":"m 175 -135 q 188 -130 179 -135 q 202 -119 196 -125 q 208 -110 208 -114 l 208 -103 q 212 -74 208 -87 q 217 -46 215 -60 q 250 58 225 7 q 270 113 265 90 q 315 264 275 135 l 322 288 l 324 301 q 335 458 335 389 q 305 619 335 542 q 192 806 275 697 q 124 851 153 851 q 46 763 78 851 l 42 754 q 35 722 35 736 q 47 688 35 703 q 75 660 58 674 q 106 632 92 647 q 176 433 176 547 q 93 199 176 308 q 36 97 51 156 q 31 84 35 92 q 28 67 28 76 q 31 54 28 61 q 35 33 35 47 l 32 -7 q 54 -43 32 -40 q 67 -33 64 -43 q 71 -13 69 -24 q 74 6 72 -3 q 81 18 75 14 q 94 -8 83 0 q 115 -22 104 -17 q 134 -32 126 -26 q 144 -47 142 -37 q 147 -80 147 -57 q 151 -117 147 -103 q 175 -135 156 -132 z "},"*":{"ha":239,"x_min":28,"x_max":211,"o":"m 167 783 q 180 790 174 783 q 186 804 186 796 q 182 822 186 814 q 178 833 178 829 q 182 844 178 842 q 193 848 186 846 q 206 853 200 850 q 211 872 211 857 q 210 885 211 881 q 204 890 208 889 q 181 908 181 896 q 184 922 181 914 q 188 936 188 929 q 182 949 188 942 q 167 956 176 956 q 145 936 158 956 q 122 917 132 917 q 99 937 114 917 q 75 957 85 957 q 60 951 67 957 q 54 936 54 944 q 59 916 54 924 q 64 906 64 908 q 51 894 64 901 q 28 868 28 883 q 40 849 28 851 q 61 832 61 844 q 56 819 61 826 q 51 806 51 811 q 59 791 51 797 q 74 785 67 785 q 96 804 82 785 q 119 824 110 824 q 142 803 128 824 q 167 783 157 783 z "},"+":{"ha":611,"x_min":28,"x_max":583,"o":"m 244 -24 l 249 -22 q 267 -10 265 -22 q 271 15 268 1 q 276 51 276 33 l 274 72 q 278 88 274 82 q 290 99 283 94 q 301 111 296 104 l 310 113 q 346 108 329 108 l 368 106 q 364 99 367 103 q 361 92 361 94 q 364 83 363 88 q 365 74 365 79 l 365 56 q 374 45 367 49 q 389 42 381 42 q 407 53 407 42 q 409 69 407 65 q 411 110 411 74 l 408 249 q 428 279 408 279 l 454 276 q 468 278 461 276 q 482 281 475 281 q 515 267 500 281 q 529 219 529 253 l 529 194 q 535 170 529 182 q 553 158 540 158 q 565 165 565 158 q 571 193 565 181 q 576 219 576 206 q 576 243 576 232 q 583 322 576 282 l 583 331 q 580 365 583 343 q 576 407 576 388 l 578 418 q 551 465 578 454 q 493 476 525 476 l 431 472 q 414 479 415 472 l 415 494 q 413 517 415 506 q 411 542 411 529 q 413 556 413 550 q 413 568 413 561 q 414 588 414 575 q 388 653 414 653 l 371 651 l 299 654 q 244 648 268 654 q 218 626 221 642 q 213 599 215 611 q 206 550 207 578 q 211 504 206 525 q 214 485 214 492 q 208 476 214 478 q 194 472 203 475 q 176 469 186 469 l 161 472 q 119 475 146 475 q 64 469 89 475 q 36 450 39 463 q 32 394 32 422 l 32 376 q 30 366 32 371 q 28 356 28 361 q 31 344 29 351 q 32 325 32 338 l 29 278 q 38 213 31 243 q 40 202 39 208 q 47 192 42 196 q 61 189 53 189 q 75 193 68 189 q 82 206 82 197 l 81 219 q 83 235 81 228 q 86 253 86 243 q 92 267 86 263 q 108 272 99 272 l 117 271 q 141 275 126 271 q 172 279 156 279 q 203 268 190 279 q 217 222 217 257 q 215 197 215 206 q 214 182 214 189 q 214 165 214 175 q 221 100 214 128 q 232 -7 232 67 q 244 -24 232 -22 z "},",":{"ha":231,"x_min":28,"x_max":203,"o":"m 74 -183 q 111 -169 90 -183 q 143 -121 132 -154 q 161 -83 150 -101 q 179 -43 172 -64 l 185 -28 q 203 38 203 7 q 178 89 203 67 q 114 113 154 111 l 107 114 q 55 81 82 114 q 28 22 28 49 q 44 -26 28 -6 q 74 -50 61 -46 q 76 -54 76 -50 q 56 -131 76 -60 l 46 -164 q 74 -183 46 -182 z "},"-":{"ha":621,"x_min":28,"x_max":593,"o":"m 75 117 q 85 124 82 117 q 89 135 88 131 q 94 163 94 147 l 94 210 q 106 260 94 250 q 139 269 118 269 q 165 267 150 269 q 190 265 179 265 l 210 267 q 299 271 228 271 q 403 267 350 271 q 433 262 424 264 q 517 260 443 260 l 529 263 q 541 255 538 263 q 546 225 544 247 q 544 211 546 218 q 542 199 542 204 q 554 189 542 189 q 569 194 563 189 q 577 210 576 200 q 581 234 578 219 q 585 261 583 249 q 588 281 588 274 l 586 301 q 590 349 586 321 q 593 401 593 376 q 561 460 593 460 l 546 458 q 465 451 506 451 q 390 453 413 451 q 340 457 368 456 l 282 456 q 235 458 258 456 q 188 460 211 460 q 133 458 160 460 l 110 457 q 99 459 104 457 q 89 461 94 461 l 83 460 q 40 425 49 449 q 32 375 32 401 l 32 360 l 28 313 q 35 289 28 301 q 50 196 49 265 q 55 143 51 167 q 75 117 58 119 z "},"­":{"ha":621,"x_min":28,"x_max":593,"o":"m 75 117 q 85 124 82 117 q 89 135 88 131 q 94 163 94 147 l 94 210 q 106 260 94 250 q 139 269 118 269 q 165 267 150 269 q 190 265 179 265 l 210 267 q 299 271 228 271 q 403 267 350 271 q 433 262 424 264 q 517 260 443 260 l 529 263 q 541 255 538 263 q 546 225 544 247 q 544 211 546 218 q 542 199 542 204 q 554 189 542 189 q 569 194 563 189 q 577 210 576 200 q 581 234 578 219 q 585 261 583 249 q 588 281 588 274 l 586 301 q 590 349 586 321 q 593 401 593 376 q 561 460 593 460 l 546 458 q 465 451 506 451 q 390 453 413 451 q 340 457 368 456 l 282 456 q 235 458 258 456 q 188 460 211 460 q 133 458 160 460 l 110 457 q 99 459 104 457 q 89 461 94 461 l 83 460 q 40 425 49 449 q 32 375 32 401 l 32 360 l 28 313 q 35 289 28 301 q 50 196 49 265 q 55 143 51 167 q 75 117 58 119 z "},".":{"ha":256,"x_min":28,"x_max":228,"o":"m 122 -143 q 194 -117 160 -143 q 228 -49 228 -90 l 228 -33 q 195 32 228 4 q 126 60 163 60 q 60 29 90 60 q 28 -37 31 -1 q 56 -109 28 -78 q 122 -143 85 -140 z "},"/":{"ha":632,"x_min":28,"x_max":604,"o":"m 158 -39 q 221 -18 204 -37 q 254 53 238 1 q 304 176 269 97 l 315 196 q 371 313 332 219 q 388 344 378 328 q 404 376 397 360 q 556 700 514 638 q 577 740 567 719 q 603 810 588 761 l 604 817 q 594 842 604 829 q 574 857 585 854 q 542 860 558 857 q 508 863 525 863 q 491 861 497 863 q 479 860 485 860 q 466 861 472 860 q 453 863 460 863 q 436 857 444 863 l 417 843 q 399 825 406 839 l 357 719 l 314 617 q 293 581 304 594 q 263 524 274 554 q 238 468 253 494 q 206 394 217 428 q 183 343 197 368 q 165 301 171 324 q 156 277 161 288 q 144 251 151 267 q 83 122 125 219 q 50 51 71 85 q 38 24 40 38 q 29 0 35 11 l 28 -6 q 41 -23 28 -15 q 69 -31 54 -31 l 82 -31 q 97 -32 90 -31 q 136 -33 104 -33 q 158 -39 149 -33 z "},":":{"ha":283,"x_min":28,"x_max":256,"o":"m 156 442 q 231 478 208 442 q 256 556 254 514 l 250 578 q 204 644 244 622 l 186 658 q 146 671 168 671 q 81 645 113 671 q 38 583 49 619 l 35 572 q 28 543 28 558 q 42 510 28 526 l 53 493 q 76 464 61 476 q 156 442 111 442 m 150 85 q 226 116 199 85 q 253 193 253 147 q 219 269 253 242 q 146 296 186 296 q 77 269 108 296 q 42 182 46 242 q 72 117 42 149 q 140 85 101 85 l 150 85 z "},";":{"ha":271,"x_min":28,"x_max":243,"o":"m 149 443 q 219 477 194 443 q 243 553 243 511 q 216 628 243 593 q 132 663 189 663 q 28 538 32 660 q 61 472 28 501 q 129 443 94 443 l 149 443 m 88 -4 q 121 15 106 -4 q 177 99 158 69 q 203 156 196 129 q 217 222 211 182 q 214 235 217 229 q 186 274 210 246 q 126 301 163 301 q 78 286 101 301 q 43 238 56 271 q 38 204 38 218 q 48 170 38 182 q 69 153 58 158 q 85 142 79 147 q 90 131 90 138 q 85 118 90 125 q 63 76 75 103 q 50 28 50 49 q 54 13 50 19 q 88 -4 71 -4 z "},";":{"ha":271,"x_min":28,"x_max":243,"o":"m 149 443 q 219 477 194 443 q 243 553 243 511 q 216 628 243 593 q 132 663 189 663 q 28 538 32 660 q 61 472 28 501 q 129 443 94 443 l 149 443 m 88 -4 q 121 15 106 -4 q 177 99 158 69 q 203 156 196 129 q 217 222 211 182 q 214 235 217 229 q 186 274 210 246 q 126 301 163 301 q 78 286 101 301 q 43 238 56 271 q 38 204 38 218 q 48 170 38 182 q 69 153 58 158 q 85 142 79 147 q 90 131 90 138 q 85 118 90 125 q 63 76 75 103 q 50 28 50 49 q 54 13 50 19 q 88 -4 71 -4 z "},"<":{"ha":508,"x_min":28,"x_max":481,"o":"m 368 -133 q 378 -128 375 -133 q 382 -117 381 -124 q 386 -103 383 -111 q 390 -87 389 -96 q 394 -23 394 -57 q 401 24 394 11 q 413 53 408 38 q 429 85 418 69 q 440 107 436 96 q 451 128 444 118 q 458 149 458 139 q 436 183 458 172 q 396 225 403 201 q 388 239 393 233 q 349 281 365 257 q 321 313 336 299 q 247 410 269 360 q 229 436 242 425 l 228 440 q 242 466 228 447 q 276 506 257 485 q 309 543 294 528 q 328 563 324 558 q 365 597 346 581 q 401 628 385 613 q 411 632 407 632 q 414 630 413 632 q 415 622 415 628 q 418 597 415 608 q 421 572 421 585 l 421 556 q 427 531 421 540 q 453 517 433 521 q 463 525 460 517 q 475 592 475 567 l 475 622 q 478 653 475 639 q 481 679 481 667 q 465 717 481 701 q 454 733 458 724 q 443 754 450 743 l 425 796 q 409 816 419 811 q 386 821 399 821 q 359 810 369 821 q 339 783 349 799 q 289 728 324 756 q 238 674 267 710 q 193 625 213 644 q 117 551 167 601 q 28 433 28 461 q 38 404 28 418 q 63 376 47 390 q 100 326 92 346 q 118 303 107 313 q 183 234 144 285 q 247 144 222 183 q 301 69 271 104 q 342 10 342 22 l 342 0 q 345 -54 342 -25 q 349 -100 349 -83 l 347 -115 q 368 -133 347 -129 z "},"=":{"ha":629,"x_min":28,"x_max":601,"o":"m 565 32 q 583 47 579 35 q 588 82 588 60 q 596 229 588 158 l 597 236 q 594 249 597 243 q 590 263 590 256 q 580 316 590 304 q 553 328 569 328 q 532 326 543 328 q 510 325 521 325 l 476 326 l 397 325 q 246 328 307 328 q 138 325 172 328 l 103 322 q 93 329 97 329 q 82 326 86 329 q 74 321 78 322 q 40 244 40 307 q 42 203 40 224 q 43 165 43 182 q 41 142 43 151 q 39 125 39 133 q 68 61 39 61 q 83 67 76 61 q 89 92 89 74 q 99 124 89 110 q 122 138 108 138 q 168 141 136 138 q 215 144 200 144 q 235 141 225 143 q 267 139 246 139 q 336 143 301 139 q 385 147 364 147 q 401 146 394 147 q 456 140 431 140 l 501 142 q 527 138 518 142 q 536 118 536 133 l 535 96 q 542 55 535 78 q 565 32 550 32 m 49 350 q 67 371 67 350 q 68 395 67 392 q 76 399 69 399 q 110 394 97 394 q 159 398 131 394 q 228 401 188 401 q 431 403 403 401 l 465 403 l 531 400 l 540 401 q 549 399 546 401 q 553 385 553 396 q 559 367 553 374 q 574 360 565 360 q 596 407 596 360 l 594 436 q 598 473 594 457 q 601 504 601 489 q 599 524 601 515 q 596 542 596 533 q 578 581 596 569 q 540 593 560 593 l 494 592 q 405 590 456 592 q 313 588 354 589 q 256 586 271 588 l 253 585 q 239 587 246 585 q 226 589 232 589 q 79 585 194 585 q 36 543 36 585 l 36 540 q 28 388 28 411 q 32 357 28 364 q 49 350 36 350 z "},">":{"ha":514,"x_min":28,"x_max":486,"o":"m 122 -128 q 139 -119 132 -128 q 146 -94 146 -110 q 140 -67 146 -82 q 135 -40 135 -53 q 172 19 135 -12 q 190 44 182 29 q 213 69 197 58 q 249 111 236 86 q 281 153 256 124 q 436 331 401 304 q 465 354 453 340 q 486 408 486 376 q 467 447 486 433 q 387 530 447 461 q 261 675 326 599 q 167 786 196 751 l 156 800 q 135 814 146 814 q 115 803 126 814 q 92 781 104 793 q 44 740 54 746 q 28 719 28 731 l 29 714 q 35 682 35 697 l 33 647 l 36 619 q 39 571 39 596 l 38 538 q 42 523 38 529 q 53 514 47 517 q 61 511 58 511 q 76 527 71 511 q 82 561 82 543 q 81 576 82 571 q 79 588 81 582 q 76 600 78 593 q 78 615 76 607 q 82 629 79 624 q 88 635 85 635 q 97 628 90 635 q 149 583 131 592 q 174 564 160 579 q 209 517 200 536 q 231 493 218 499 q 261 465 250 483 l 271 454 q 281 431 281 443 q 277 417 281 424 q 271 407 274 411 q 238 360 257 382 q 206 319 219 338 q 154 257 171 276 q 128 228 138 238 q 106 208 118 218 q 74 179 93 197 q 54 144 54 161 q 66 109 54 128 q 88 62 78 90 q 99 -11 99 33 l 97 -36 q 96 -83 97 -76 q 94 -97 94 -89 q 102 -118 94 -108 q 122 -128 110 -128 z "},"?":{"ha":600,"x_min":28,"x_max":572,"o":"m 461 125 q 486 196 486 125 l 486 275 q 504 404 486 363 q 572 581 572 544 q 569 601 572 592 q 565 632 565 611 l 567 650 q 549 714 567 685 l 539 740 q 503 792 526 771 q 492 803 497 797 q 483 815 488 808 q 470 829 478 822 q 450 838 463 836 q 427 843 438 840 q 407 849 417 846 q 381 857 397 853 q 333 865 364 861 q 240 872 301 869 q 220 871 225 872 q 208 867 215 869 q 143 844 188 857 q 65 807 99 832 l 38 789 q 29 778 31 785 q 28 764 28 772 q 35 706 28 725 q 51 674 43 686 q 63 652 58 663 q 68 622 68 642 q 86 581 68 590 q 88 574 88 578 q 83 543 85 561 l 85 518 l 82 490 q 88 476 82 481 q 99 469 94 471 q 106 465 103 467 q 113 464 110 464 q 133 485 126 464 q 139 531 139 507 l 135 576 q 145 609 135 597 q 181 639 156 621 l 210 661 q 214 663 211 663 q 229 654 219 663 q 240 617 239 646 q 254 561 240 588 l 257 557 q 268 546 263 546 q 291 562 286 549 q 296 594 296 575 l 294 626 q 298 657 294 646 q 315 671 301 668 q 322 668 319 671 q 326 664 325 665 q 358 625 347 650 q 368 575 368 600 q 354 529 368 546 q 292 460 321 497 q 246 408 263 424 q 218 371 229 392 q 190 301 196 325 q 183 239 183 276 l 183 171 q 221 126 183 129 q 245 133 232 126 q 275 139 258 139 q 295 135 283 139 q 319 132 307 132 q 339 138 331 132 q 349 174 347 144 q 376 257 349 208 q 399 308 390 282 q 415 324 401 324 q 436 292 436 322 l 435 263 q 432 206 432 238 q 461 125 432 125 m 306 -175 q 326 -151 326 -168 l 325 -132 q 346 -33 325 -94 q 356 7 356 -4 q 350 44 356 24 q 335 74 344 64 q 264 107 294 107 q 221 94 239 107 q 197 71 203 82 q 186 31 186 54 q 198 -22 186 4 q 231 -61 210 -49 q 274 -122 268 -82 q 276 -147 276 -137 q 286 -166 276 -157 q 304 -175 296 -175 l 306 -175 z "},"@":{"ha":967,"x_min":28,"x_max":939,"o":"m 735 -149 q 750 -140 746 -149 q 757 -122 754 -131 q 758 -118 757 -119 q 765 -75 765 -93 q 764 -53 765 -62 q 763 -35 763 -43 q 770 -3 763 -18 q 778 24 778 13 q 773 47 778 38 q 761 63 768 56 q 752 80 754 71 q 744 97 750 89 q 728 111 738 104 q 713 126 719 118 q 708 128 711 128 q 703 129 706 129 q 666 125 685 126 q 626 118 647 124 q 492 85 560 85 q 393 106 442 85 q 324 140 333 131 q 286 182 308 161 q 221 272 233 232 q 215 285 219 279 q 190 364 192 322 l 183 400 q 182 421 182 410 q 243 570 182 485 q 396 685 304 656 q 540 707 481 707 q 655 683 614 707 q 716 628 696 658 q 744 575 736 599 q 757 554 751 558 q 771 522 771 540 q 769 502 771 513 q 768 476 768 492 l 769 460 q 747 354 769 417 q 715 331 735 331 q 695 338 704 331 q 686 363 686 346 q 694 488 689 438 q 699 558 699 528 q 685 615 699 597 q 632 636 671 633 q 571 642 588 642 q 532 635 551 642 q 426 607 481 613 q 396 592 407 606 q 363 569 385 579 q 332 539 342 560 q 286 458 306 500 q 271 393 271 426 q 300 278 271 343 q 317 228 314 247 q 333 208 321 208 l 347 211 q 370 199 356 211 q 400 186 385 186 q 468 179 456 179 q 525 187 504 182 q 555 196 546 192 q 569 200 564 200 q 583 192 576 200 q 638 163 607 172 l 668 150 q 678 147 672 147 q 689 150 683 147 q 717 160 704 157 q 742 167 731 163 q 789 189 775 179 q 813 199 803 199 q 841 177 825 199 q 857 122 857 156 l 857 114 l 856 111 q 858 98 856 106 q 860 78 860 90 q 871 65 860 65 q 883 89 883 65 l 886 100 q 904 196 896 132 q 918 321 917 304 q 924 356 919 338 q 931 407 931 381 l 929 433 q 934 463 929 449 q 939 488 939 476 q 933 519 939 504 q 924 554 926 533 q 884 670 911 629 q 829 736 857 711 q 804 764 815 750 q 724 826 778 794 q 618 867 669 857 l 585 869 q 533 877 557 871 q 492 883 510 883 q 451 878 468 883 l 432 874 q 245 816 317 863 q 113 692 174 769 q 77 638 86 658 q 65 600 68 617 q 51 557 63 583 q 39 501 39 531 l 39 494 q 33 449 39 464 q 28 422 28 435 l 29 410 q 35 351 35 389 q 67 242 35 314 q 75 217 72 229 q 106 131 92 156 q 133 94 121 106 q 153 65 144 82 q 183 -35 183 -8 l 182 -53 q 186 -82 182 -64 q 206 -101 194 -101 q 224 -81 219 -101 q 228 -42 228 -61 q 231 -16 228 -22 q 244 -1 233 -10 q 250 1 247 1 q 261 -8 251 1 q 388 -57 321 -43 q 457 -65 414 -60 q 533 -69 500 -69 q 567 -67 556 -69 q 631 -51 597 -56 l 676 -42 q 689 -39 683 -39 q 712 -55 707 -39 q 717 -90 717 -71 l 715 -125 q 731 -147 715 -144 l 735 -149 m 503 299 q 469 315 485 299 q 432 396 432 349 q 436 433 432 414 l 439 432 q 451 410 450 422 q 464 397 453 399 q 475 405 472 397 q 481 425 478 413 q 501 476 483 450 q 504 481 503 478 q 508 488 506 485 q 513 490 510 490 q 529 485 521 489 q 543 450 543 478 l 542 415 q 544 379 542 396 q 546 342 546 363 q 530 307 546 315 q 503 299 514 299 z "},"A":{"ha":756,"x_min":28,"x_max":728,"o":"m 101 -260 q 126 -203 126 -260 l 126 -176 q 149 -97 126 -137 q 171 -86 158 -86 q 187 -93 181 -86 q 197 -100 193 -100 q 221 -124 221 -101 l 219 -150 q 224 -167 219 -160 q 236 -174 228 -174 q 253 -160 246 -174 q 260 -125 260 -146 l 260 -101 q 263 -78 260 -89 q 273 -13 268 -49 q 284 50 278 22 q 300 80 290 78 q 322 86 310 82 q 382 94 351 94 q 425 86 403 94 q 435 85 429 85 q 452 74 449 85 q 457 42 456 63 q 471 -31 460 14 q 477 -40 474 -35 q 481 -54 481 -44 l 479 -67 q 485 -105 479 -86 q 490 -143 490 -124 l 490 -150 q 500 -176 490 -164 q 518 -189 510 -189 q 531 -183 525 -189 q 538 -165 536 -176 q 539 -124 539 -139 q 541 -102 539 -108 q 551 -96 543 -96 l 557 -96 q 605 -101 588 -100 q 631 -104 622 -101 q 642 -117 639 -107 q 649 -151 644 -126 l 650 -225 q 667 -247 656 -247 q 688 -214 683 -247 q 689 -161 689 -200 l 689 -108 q 694 -96 689 -100 q 706 -87 699 -92 q 720 -76 713 -83 q 728 -50 728 -68 q 714 7 728 -26 q 681 154 699 53 q 628 369 653 317 q 608 445 608 406 q 599 512 608 485 q 588 569 589 539 q 595 583 588 578 q 603 599 603 588 q 574 672 596 640 q 538 764 551 704 q 506 838 529 804 q 465 872 482 872 l 388 872 q 338 868 364 872 q 286 864 313 864 l 276 864 q 243 853 256 864 q 224 826 231 843 q 195 723 207 792 q 179 601 183 654 q 171 564 178 582 q 163 538 165 551 q 131 426 154 478 q 106 369 119 404 q 83 304 93 335 q 72 268 72 274 q 92 246 72 251 q 100 239 100 244 l 99 235 q 78 167 85 201 q 51 68 68 118 q 28 -29 28 7 q 35 -58 28 -50 q 51 -71 42 -67 q 66 -81 60 -75 q 76 -99 72 -87 q 83 -146 83 -126 l 81 -194 q 101 -260 81 -260 m 428 329 l 379 329 q 350 332 365 329 q 366 408 353 369 q 382 490 379 446 q 399 468 396 481 l 415 399 q 431 335 431 347 q 428 329 431 331 z "},"B":{"ha":750,"x_min":28,"x_max":722,"o":"m 521 -331 q 536 -314 533 -331 q 545 -278 538 -293 q 553 -247 553 -262 q 552 -231 553 -236 q 551 -219 551 -225 q 550 -197 550 -212 q 556 -133 550 -167 q 574 -85 561 -99 l 625 -36 q 669 7 653 -11 q 694 53 685 25 q 722 182 722 121 q 693 317 722 269 q 638 382 668 353 l 610 411 q 657 479 635 428 q 679 599 679 531 q 629 764 679 692 q 571 828 596 813 q 490 871 524 858 q 422 883 457 883 q 303 856 343 883 q 281 843 289 843 q 271 853 275 843 q 233 875 263 874 l 156 875 q 90 878 106 875 l 75 879 q 41 857 49 879 q 33 803 33 835 l 35 753 q 40 717 35 738 q 44 665 44 697 l 43 589 q 47 514 43 546 q 50 456 50 482 q 44 375 50 406 q 33 327 39 344 q 28 299 28 310 q 50 268 28 282 q 56 260 56 264 q 58 232 56 244 q 61 208 61 219 l 60 196 q 56 151 57 183 q 52 82 56 119 q 42 11 49 44 q 38 -25 38 -7 q 49 -65 38 -46 q 64 -98 60 -83 q 71 -133 68 -112 q 82 -193 74 -154 q 99 -207 89 -207 q 110 -203 106 -207 q 117 -192 115 -200 q 119 -176 118 -185 q 125 -137 125 -157 l 124 -114 q 133 -90 124 -96 q 161 -85 142 -85 q 189 -89 182 -85 q 204 -93 196 -93 q 269 -61 221 -93 q 328 -89 283 -78 q 413 -100 374 -100 l 447 -97 q 467 -119 464 -97 q 471 -140 467 -131 q 503 -260 503 -233 l 501 -281 l 504 -315 q 521 -331 507 -331 m 347 97 l 297 99 q 281 110 283 99 q 283 121 281 115 q 285 132 285 126 l 282 150 q 279 185 279 168 q 281 215 279 203 q 283 243 283 226 l 283 247 q 292 210 292 228 q 290 184 292 196 q 289 165 289 172 q 293 149 289 154 q 310 143 297 143 q 331 160 326 143 q 335 201 335 178 q 341 243 336 224 q 365 263 346 263 q 381 260 372 263 q 429 232 413 249 q 446 186 446 215 q 347 97 443 97 m 299 496 q 290 510 290 496 l 290 526 q 288 563 290 547 q 286 593 286 578 l 288 626 l 286 649 q 310 678 286 678 q 338 663 325 678 q 351 608 351 647 l 351 599 q 369 571 351 571 q 388 585 383 571 q 393 631 393 600 q 406 603 399 622 q 414 569 414 585 q 408 557 414 561 q 379 532 390 547 q 314 499 353 500 l 299 496 z "},"C":{"ha":708,"x_min":28,"x_max":681,"o":"m 636 -292 q 656 -269 649 -292 l 658 -231 q 679 -26 658 -121 l 681 -10 q 676 13 681 4 q 662 34 671 22 q 641 66 653 46 q 618 122 629 86 q 597 150 613 139 q 569 161 582 161 q 558 158 563 161 q 482 120 529 140 q 397 100 435 100 q 351 121 367 100 q 333 142 342 138 q 317 149 325 147 q 293 176 300 153 q 276 210 286 200 q 261 250 265 221 q 250 383 250 308 q 256 438 250 421 q 260 481 260 463 q 321 617 264 578 l 331 625 q 424 665 372 665 q 511 644 465 665 q 526 597 526 632 q 524 547 526 574 q 521 494 521 519 q 526 455 521 471 q 550 439 532 439 q 583 475 583 440 q 581 503 583 488 q 578 536 578 518 q 590 586 578 561 q 617 611 601 611 q 632 606 624 611 q 646 600 640 600 q 663 613 656 600 q 672 663 672 632 l 672 674 q 676 718 672 696 q 679 739 679 729 q 651 794 679 771 q 432 872 551 872 q 354 863 393 872 q 333 861 344 861 q 310 858 321 861 q 205 799 251 835 q 147 743 158 763 q 115 696 132 718 q 61 601 82 653 l 51 576 q 28 424 28 518 q 32 313 28 367 q 36 214 36 268 l 33 182 q 64 113 33 113 l 72 114 q 107 50 93 114 q 117 24 111 33 q 132 -24 125 0 q 139 -72 139 -47 l 138 -87 l 139 -118 q 150 -162 139 -142 q 172 -178 161 -178 q 193 -128 193 -178 q 197 -96 194 -107 q 222 -79 201 -79 q 243 -90 231 -79 q 271 -104 256 -100 q 428 -117 369 -117 q 486 -114 463 -117 l 517 -114 q 553 -120 539 -114 q 582 -148 568 -126 q 601 -187 596 -169 q 606 -217 606 -204 l 604 -244 q 613 -275 604 -258 q 636 -292 621 -292 z "},"D":{"ha":803,"x_min":28,"x_max":775,"o":"m 618 -371 q 635 -332 635 -368 q 633 -295 635 -315 q 631 -256 631 -275 l 632 -235 l 643 -167 q 696 71 664 15 l 699 75 q 744 185 735 124 q 751 192 749 192 q 775 215 775 192 q 771 265 775 238 q 767 326 767 293 q 769 355 767 343 q 771 394 771 367 q 763 460 765 426 q 750 546 758 503 q 673 731 719 665 q 587 822 626 797 q 538 847 547 847 q 533 849 535 847 q 406 865 472 865 q 288 826 332 865 q 276 821 281 821 q 264 829 269 821 q 200 860 240 860 q 171 858 185 860 q 143 857 157 857 q 71 806 89 854 q 60 789 68 797 q 53 769 53 781 q 50 709 53 735 q 47 657 47 683 l 49 632 l 50 588 q 56 525 50 556 q 58 494 58 510 q 40 378 58 438 q 28 303 28 332 q 41 275 28 281 q 54 253 54 269 l 56 168 l 54 -43 q 64 -107 64 -74 l 64 -151 q 71 -204 64 -179 q 93 -221 81 -221 q 114 -192 114 -221 q 140 -126 114 -162 l 140 -125 q 178 -97 157 -97 q 195 -100 186 -97 q 213 -103 204 -103 q 229 -99 221 -103 q 278 -78 263 -87 q 285 -74 281 -74 q 290 -76 288 -74 q 329 -96 308 -89 l 349 -103 q 414 -117 383 -117 q 499 -100 444 -117 q 542 -89 524 -89 q 569 -118 563 -89 l 589 -210 q 593 -286 592 -236 l 592 -321 q 596 -355 592 -339 q 618 -371 600 -371 m 390 165 l 356 167 q 335 169 340 167 q 329 183 329 171 l 329 199 l 326 299 q 319 503 319 446 q 324 557 319 550 q 338 512 332 543 q 347 449 344 481 q 350 409 350 418 q 351 396 350 400 q 356 390 353 392 q 360 385 358 388 q 365 380 363 382 q 372 378 368 378 q 390 400 389 381 q 396 501 392 472 q 399 561 399 525 q 403 585 399 574 q 408 594 404 588 q 419 601 411 601 q 473 553 440 601 q 506 442 506 504 l 504 408 q 507 385 504 392 q 510 369 510 378 q 489 299 510 349 q 480 263 482 279 q 472 232 478 246 q 446 206 465 218 q 431 190 438 199 q 415 173 424 181 q 390 165 406 165 z "},"E":{"ha":717,"x_min":28,"x_max":688,"o":"m 140 -447 q 165 -415 153 -447 q 172 -360 172 -387 l 172 -350 l 174 -312 q 198 -183 183 -228 q 233 -123 213 -139 q 279 -107 253 -107 q 328 -112 301 -107 q 400 -119 360 -119 q 426 -122 414 -119 q 449 -124 438 -124 q 469 -122 460 -124 q 494 -121 478 -121 q 550 -124 522 -121 q 569 -125 558 -125 q 585 -127 579 -125 q 592 -138 590 -129 q 597 -158 594 -147 q 607 -210 607 -183 q 603 -235 607 -222 q 600 -257 600 -247 q 609 -283 600 -274 q 631 -293 618 -293 q 657 -278 644 -293 q 674 -232 669 -264 q 686 -36 686 -106 q 674 56 686 26 q 632 103 661 86 q 558 122 610 115 q 474 128 507 128 q 432 125 449 126 q 396 124 415 124 q 325 137 340 124 q 310 171 310 150 q 312 195 310 182 q 314 224 314 208 q 310 246 314 238 l 308 257 q 315 264 308 264 q 328 260 322 263 q 340 258 333 258 q 357 262 349 258 q 380 269 365 265 q 431 272 394 272 q 443 264 443 272 q 441 244 443 254 q 439 222 439 235 q 461 193 439 193 q 477 201 475 193 q 479 221 479 210 l 479 232 q 490 304 479 271 q 507 385 507 342 l 507 439 q 489 483 507 474 q 447 493 471 493 l 411 492 q 380 495 390 492 q 361 499 369 499 q 329 493 340 499 q 319 490 324 490 q 314 500 315 490 q 309 532 313 515 q 306 567 306 549 q 310 593 306 581 l 310 610 q 335 631 310 631 q 365 625 350 629 q 394 621 381 621 q 407 622 401 621 q 456 628 431 628 l 501 628 q 524 625 513 628 q 549 622 536 622 q 563 624 558 622 q 574 626 568 625 q 586 592 586 626 q 583 548 586 574 q 581 499 581 522 q 604 449 581 450 q 626 463 621 449 q 633 492 632 476 q 669 656 649 604 q 682 701 676 679 q 688 749 688 722 l 688 767 q 681 828 688 799 q 643 864 675 858 q 572 868 600 868 q 512 863 528 868 q 478 858 496 858 q 377 856 407 858 q 314 854 347 854 q 207 860 244 854 q 158 863 181 863 q 85 846 122 863 q 52 814 58 832 q 46 778 46 796 l 46 771 q 40 729 46 757 q 31 651 31 675 q 44 629 31 629 l 50 629 q 60 622 58 629 q 58 611 58 619 l 57 603 q 60 572 57 588 q 64 539 64 556 q 61 455 63 517 q 57 335 60 393 l 56 267 q 58 241 56 254 q 61 204 61 228 q 50 88 51 129 q 45 38 49 57 q 32 1 42 18 q 28 -12 28 -6 q 33 -36 28 -25 q 58 -105 54 -93 q 63 -122 61 -117 q 72 -133 65 -128 q 95 -180 90 -154 q 100 -239 100 -206 l 100 -247 q 115 -371 100 -296 l 114 -393 q 140 -447 114 -447 z "},"F":{"ha":719,"x_min":28,"x_max":692,"o":"m 286 -292 q 301 -281 296 -292 q 306 -256 306 -269 q 303 -222 306 -242 q 301 -174 301 -201 q 311 -97 301 -139 q 318 -56 318 -71 q 313 -24 318 -36 q 308 10 308 -12 q 314 54 308 26 q 322 121 322 88 l 324 189 q 322 209 324 201 q 319 224 319 217 q 325 243 319 229 q 339 267 331 257 q 368 276 347 276 q 426 274 421 276 q 432 261 431 271 q 433 232 433 251 l 432 168 q 436 146 432 153 q 454 139 440 139 q 472 152 468 139 q 475 179 475 165 l 475 186 q 504 283 482 256 q 516 304 511 292 q 522 357 521 317 q 526 408 522 382 l 528 424 q 479 482 528 469 q 421 488 447 488 q 380 486 397 488 q 351 485 363 485 q 319 506 322 485 l 318 535 q 313 583 318 560 l 313 593 q 331 619 313 617 q 371 624 350 621 q 414 628 392 628 q 454 622 433 628 q 574 619 457 621 q 599 619 594 619 q 605 619 603 619 q 609 615 607 618 q 614 608 611 613 q 635 561 635 581 q 632 544 633 551 q 630 532 631 538 q 629 517 629 526 q 647 489 629 490 q 664 506 660 489 q 676 583 676 558 l 674 624 q 678 654 674 636 q 682 697 682 672 l 682 715 q 687 749 682 733 q 692 776 692 764 q 669 833 692 811 q 624 856 646 856 q 597 851 608 856 q 576 847 585 847 l 568 849 q 503 861 536 861 q 433 856 469 861 q 383 850 404 850 q 338 854 351 850 q 308 858 324 858 l 260 857 q 186 861 215 857 l 140 865 q 75 839 100 865 q 39 772 50 813 q 28 686 28 731 q 32 663 28 671 q 49 654 36 656 q 56 658 53 654 q 62 665 60 661 q 65 674 64 669 q 68 649 68 661 q 67 619 68 635 q 65 585 65 603 q 74 536 65 561 q 76 507 74 535 q 79 440 78 479 q 81 367 81 401 q 78 299 81 319 q 75 256 75 278 l 76 157 q 72 108 76 121 q 68 78 68 94 l 69 60 q 60 7 60 32 l 56 -44 q 65 -99 56 -72 q 74 -154 74 -126 q 78 -174 74 -161 q 89 -199 82 -187 q 107 -210 96 -210 q 119 -203 117 -208 q 121 -190 121 -199 q 124 -165 121 -181 q 138 -125 126 -149 q 156 -112 144 -112 q 171 -115 161 -112 q 214 -119 185 -119 l 233 -118 q 256 -137 254 -118 q 258 -171 257 -156 q 263 -215 263 -193 l 263 -239 q 271 -281 263 -260 q 286 -292 278 -292 z "},"G":{"ha":843,"x_min":28,"x_max":815,"o":"m 686 -293 q 702 -281 694 -293 q 710 -244 710 -268 q 715 -154 710 -199 q 719 -65 719 -110 l 718 -37 q 729 6 718 -28 q 753 76 740 39 q 781 168 778 150 l 782 172 q 790 185 782 185 l 800 182 q 811 193 807 182 q 815 219 815 204 l 814 238 q 803 342 803 304 q 804 374 803 361 q 806 400 806 388 q 799 442 806 419 q 778 472 793 465 q 743 479 763 479 l 706 478 q 671 482 692 478 q 653 478 661 482 q 635 474 644 474 q 611 476 625 474 q 571 479 597 479 q 527 475 551 479 q 492 448 503 471 q 482 401 482 425 l 483 383 q 494 272 494 310 q 499 232 494 244 q 518 219 503 219 q 535 249 531 219 q 544 280 538 265 q 574 294 550 294 q 595 292 589 294 q 601 281 601 290 l 600 268 q 585 207 600 233 q 576 188 579 199 q 558 157 571 169 q 454 108 507 108 q 429 111 442 108 q 322 175 351 132 q 283 258 293 218 q 267 299 276 285 q 263 311 263 303 l 264 325 q 263 336 264 331 q 261 350 261 342 q 259 380 261 367 q 257 414 257 393 q 286 549 257 454 l 290 563 q 306 599 294 581 q 310 529 310 576 q 329 493 310 493 q 344 506 342 493 q 356 558 351 529 q 374 635 360 586 q 402 672 381 657 q 449 688 424 688 q 518 660 471 688 q 593 563 593 614 l 592 543 q 597 529 592 535 q 610 524 603 524 q 633 549 626 524 q 643 606 639 574 q 657 674 647 647 q 663 651 660 663 q 675 640 665 640 q 687 651 683 640 q 690 707 690 661 l 690 761 q 669 804 690 785 q 576 858 647 824 q 450 885 517 885 q 338 872 393 885 q 313 863 324 869 q 288 854 301 856 q 203 804 240 844 q 67 575 101 697 l 58 553 q 46 508 46 533 q 33 344 43 400 q 28 293 28 313 q 47 261 28 265 q 54 251 54 258 q 56 250 54 250 q 100 114 82 136 q 136 24 133 74 l 139 -8 q 140 -71 140 -29 q 164 -112 140 -112 q 179 -100 175 -112 q 188 -40 183 -87 q 196 -22 189 -22 q 221 -42 207 -22 q 342 -112 244 -76 q 383 -118 363 -118 q 432 -114 408 -118 q 468 -110 449 -111 q 483 -111 476 -110 q 499 -112 490 -112 q 547 -98 526 -107 q 596 -82 567 -89 l 597 -82 q 657 -51 640 -75 q 665 -99 658 -74 l 665 -108 l 664 -135 q 660 -225 661 -162 q 668 -276 660 -260 q 686 -293 676 -293 z "},"H":{"ha":749,"x_min":28,"x_max":721,"o":"m 679 -253 q 694 -236 689 -253 q 702 -195 700 -211 q 704 -115 704 -179 q 710 -61 710 -76 q 707 -40 710 -50 q 696 119 697 18 q 692 439 694 129 q 703 450 692 450 q 713 453 707 451 q 721 478 718 456 q 717 511 721 485 q 701 707 701 633 q 706 778 701 751 q 707 808 707 792 q 692 853 707 833 q 651 874 676 874 l 592 876 q 517 864 554 876 q 485 844 494 857 q 475 807 475 832 q 469 726 475 749 q 467 706 467 714 q 481 683 467 693 q 482 675 482 682 l 481 671 l 482 615 q 485 585 482 599 q 488 560 488 571 q 439 521 488 524 l 388 521 q 328 532 340 521 q 315 583 315 543 l 317 685 q 313 778 315 763 q 308 828 308 799 q 281 866 308 857 q 222 875 254 875 q 202 873 213 875 q 179 871 192 871 q 156 872 168 871 q 131 874 143 874 q 93 863 110 874 q 40 795 53 829 q 28 728 28 761 q 32 669 28 690 q 34 597 32 613 q 47 582 36 582 q 59 587 54 582 q 65 601 64 592 q 69 620 65 610 q 75 640 72 631 q 81 536 81 604 q 78 422 81 485 q 76 304 76 360 q 79 235 76 263 q 76 128 79 175 q 63 -8 69 38 q 58 -56 58 -32 q 61 -111 58 -83 q 64 -167 64 -139 l 63 -190 q 79 -218 63 -218 q 95 -209 88 -218 q 103 -185 103 -200 q 113 -121 103 -151 l 119 -79 q 129 -68 122 -68 q 138 -71 133 -68 q 171 -79 154 -79 l 196 -78 q 238 -103 229 -78 q 249 -156 246 -128 q 253 -186 250 -174 q 265 -199 256 -199 q 280 -191 278 -197 q 285 -142 282 -185 q 308 81 303 17 q 313 225 313 139 q 315 256 313 244 q 328 276 317 267 q 338 252 336 265 q 340 222 340 239 q 343 199 340 206 q 356 192 346 192 q 370 203 367 192 q 374 231 374 214 q 381 264 375 247 q 422 288 388 288 q 468 266 451 288 q 485 219 485 244 l 483 192 q 485 135 483 163 q 488 79 488 107 q 485 40 488 58 q 483 1 483 21 q 493 -103 483 -50 q 497 -164 493 -158 q 511 -169 500 -169 q 526 -158 521 -169 q 535 -115 531 -147 q 557 -90 542 -90 q 617 -101 592 -90 q 641 -122 636 -112 q 646 -145 646 -132 q 653 -181 646 -158 q 656 -215 656 -190 q 663 -242 656 -231 q 679 -253 671 -253 z "},"I":{"ha":335,"x_min":28,"x_max":307,"o":"m 82 -312 q 95 -297 92 -312 q 99 -242 99 -281 l 97 -226 q 111 -162 97 -194 l 119 -133 q 131 -125 122 -125 l 188 -122 q 205 -125 201 -122 q 213 -179 208 -128 l 217 -219 q 227 -249 219 -242 q 240 -257 235 -257 q 253 -244 249 -257 q 275 -101 275 -160 l 275 -79 q 278 -69 275 -74 q 290 -37 290 -56 q 283 3 290 -19 q 271 78 274 31 q 274 119 271 99 q 276 163 276 140 l 275 185 q 288 199 275 194 q 307 224 307 204 l 300 279 q 290 342 299 311 q 276 411 276 376 q 278 433 276 421 q 281 482 281 446 q 277 599 281 531 q 274 714 274 667 q 277 765 274 754 q 281 790 281 776 q 269 841 281 817 q 233 865 258 865 q 212 862 221 864 q 185 860 203 860 q 138 865 158 860 q 104 869 118 869 q 65 853 81 869 q 40 815 49 836 q 32 781 32 793 l 33 757 q 38 699 38 739 q 29 600 38 663 l 28 578 q 36 552 28 560 q 44 531 44 544 l 44 399 q 47 269 44 321 l 47 239 q 46 221 47 229 q 44 203 44 213 l 44 194 q 46 142 46 178 q 42 -3 46 68 l 39 -58 q 44 -118 39 -75 q 53 -200 49 -161 q 58 -251 57 -239 l 58 -269 q 66 -299 58 -286 q 82 -312 74 -312 z "},"J":{"ha":651,"x_min":28,"x_max":624,"o":"m 57 -354 q 76 -335 68 -354 q 89 -288 85 -315 q 93 -240 93 -261 l 92 -217 q 103 -169 92 -192 q 135 -122 125 -122 q 153 -131 142 -122 q 179 -143 164 -139 l 206 -149 q 271 -161 233 -154 q 346 -168 308 -168 q 425 -151 390 -168 q 442 -147 435 -147 q 472 -183 464 -147 q 483 -260 479 -218 q 492 -322 486 -296 q 511 -347 497 -347 q 526 -334 524 -346 q 529 -307 529 -322 q 532 -276 529 -292 q 539 -214 539 -239 q 538 -187 539 -200 l 538 -157 q 560 -21 538 -115 q 575 35 568 15 q 585 78 582 61 q 589 126 589 96 l 588 199 q 590 222 588 210 q 593 247 593 235 q 590 264 593 254 l 600 263 q 623 292 622 263 q 624 351 624 321 q 617 438 624 394 q 607 588 607 513 l 606 724 q 593 806 606 761 q 533 860 581 850 q 447 865 482 865 q 367 841 385 865 q 349 764 349 817 q 353 653 349 744 l 351 543 q 354 417 351 497 q 343 285 354 340 l 331 228 l 332 215 q 254 139 332 161 q 242 142 247 139 q 232 150 238 146 q 222 157 226 154 q 209 160 217 160 q 196 167 201 161 q 186 183 190 174 q 153 208 174 208 q 125 196 139 208 q 88 147 99 169 q 72 100 78 124 q 43 32 65 68 q 28 -11 28 7 q 29 -26 28 -19 q 31 -65 31 -32 l 29 -160 l 29 -307 q 36 -332 32 -325 q 57 -354 43 -354 z "},"K":{"ha":764,"x_min":28,"x_max":736,"o":"m 97 -358 q 119 -297 119 -358 l 118 -224 q 126 -169 119 -196 q 133 -114 132 -142 q 140 -100 135 -100 q 154 -104 146 -100 q 185 -112 167 -112 q 197 -110 190 -112 q 210 -108 204 -108 q 244 -135 233 -108 q 258 -265 258 -172 q 263 -288 258 -283 q 272 -293 267 -293 q 286 -278 281 -293 q 292 -215 288 -272 q 302 -69 297 -157 q 307 108 307 19 q 300 257 307 188 q 302 265 300 264 q 308 268 304 267 q 315 264 313 268 q 363 208 344 243 q 382 92 382 174 q 385 30 382 58 q 389 -26 389 1 l 388 -44 q 400 -60 388 -60 q 413 -31 413 -58 l 411 -7 l 411 24 q 436 93 411 75 l 456 51 q 507 -68 494 -32 q 567 -117 522 -117 l 608 -117 q 628 -114 614 -117 q 664 -148 654 -114 q 674 -217 674 -182 q 671 -258 672 -242 q 669 -296 669 -274 q 690 -356 669 -356 q 700 -351 696 -356 q 706 -343 704 -347 q 710 -295 710 -322 q 715 -240 710 -268 q 722 -169 722 -206 l 722 -157 q 731 -75 722 -112 q 736 -35 736 -53 q 728 6 736 -10 q 713 33 721 22 q 706 51 706 44 q 695 97 706 67 q 669 158 685 126 q 635 208 653 189 q 614 240 622 222 q 600 264 608 253 q 540 336 574 303 l 517 361 q 510 366 514 365 q 506 367 507 367 q 504 372 504 368 q 527 419 504 379 q 580 510 550 460 q 633 604 610 561 q 663 665 663 657 q 676 685 663 685 q 686 671 686 685 q 678 596 686 653 l 675 581 q 690 560 675 560 q 708 576 708 560 q 715 631 711 604 q 722 707 722 664 l 721 740 q 726 783 721 763 q 731 818 731 804 q 707 856 731 847 q 650 867 683 864 q 601 875 626 869 q 578 878 589 878 q 519 848 539 878 q 485 776 500 818 q 439 688 468 729 q 379 583 404 639 q 317 482 350 522 q 306 476 311 476 q 296 490 297 476 q 297 522 296 517 q 296 626 297 588 q 294 703 294 664 q 299 790 294 749 q 224 861 299 854 l 189 864 q 144 867 165 867 q 65 838 94 867 q 28 768 28 803 q 33 739 28 754 q 46 646 46 696 q 43 577 46 610 q 40 522 40 544 q 56 478 40 482 q 75 488 64 478 l 74 465 q 75 439 74 451 q 76 415 76 426 l 75 394 q 68 307 68 351 l 68 292 q 63 196 68 240 q 65 172 63 183 q 67 149 67 160 l 65 135 q 58 42 58 94 q 72 -168 58 -56 q 82 -311 82 -258 l 81 -339 q 97 -358 81 -358 z "},"L":{"ha":682,"x_min":28,"x_max":654,"o":"m 94 -282 q 112 -268 104 -282 q 119 -224 119 -254 l 118 -187 q 129 -132 118 -158 l 139 -100 q 144 -93 139 -93 q 178 -96 164 -96 q 209 -92 199 -96 q 240 -89 219 -89 q 277 -92 254 -89 q 319 -96 300 -96 q 368 -90 347 -96 q 432 -85 389 -85 q 511 -90 463 -85 q 560 -131 550 -99 q 570 -196 569 -164 q 586 -228 571 -228 q 604 -208 600 -228 l 621 -103 q 639 -50 629 -68 q 654 17 654 -18 q 649 58 653 44 q 642 85 644 72 q 597 122 638 113 q 496 132 557 132 l 421 131 l 382 133 q 359 129 371 133 q 335 125 347 125 l 294 126 q 286 135 286 126 q 281 164 285 149 q 276 196 276 179 l 278 256 q 272 340 278 310 q 269 368 269 354 l 271 388 q 274 424 274 403 q 272 466 274 447 q 269 499 269 485 q 281 526 269 521 q 290 531 286 528 q 293 561 293 535 l 285 819 q 232 879 279 879 q 213 876 224 878 q 185 875 203 875 l 125 876 q 53 857 67 876 q 43 825 43 844 q 48 784 43 808 q 53 729 53 760 q 50 681 53 704 q 47 640 47 658 l 50 549 q 31 358 50 488 q 28 335 28 344 q 40 306 28 315 l 47 297 q 54 238 54 288 q 50 171 54 197 q 46 121 46 144 q 48 94 46 104 q 51 72 50 83 q 48 46 51 58 q 44 18 44 33 q 51 -64 44 -17 q 67 -237 63 -128 q 76 -270 68 -258 q 94 -282 85 -282 z "},"M":{"ha":783,"x_min":28,"x_max":756,"o":"m 60 -279 q 71 -275 65 -279 q 83 -201 83 -264 q 88 -147 83 -174 q 149 -89 94 -89 q 200 -106 193 -93 q 207 -131 207 -118 l 207 -136 q 211 -160 207 -150 q 214 -165 213 -161 q 218 -172 215 -168 q 228 -175 221 -175 q 244 -162 240 -174 q 251 -124 249 -150 q 261 -54 253 -99 q 272 5 268 -25 q 282 63 276 35 q 288 117 288 92 q 293 168 289 143 q 301 257 301 215 l 300 272 q 311 325 300 292 q 353 250 322 322 q 368 196 368 214 q 389 168 374 168 q 403 181 399 168 q 419 222 408 204 q 447 272 431 239 q 482 335 463 306 q 494 175 494 322 q 496 67 494 118 q 506 -10 497 15 q 501 -21 506 -12 q 489 -81 489 -50 l 489 -96 q 494 -189 494 -150 l 494 -203 q 497 -252 494 -235 q 514 -271 500 -269 q 524 -266 522 -271 q 527 -257 526 -261 q 529 -250 528 -253 l 529 -247 q 531 -219 531 -244 q 546 -115 531 -167 q 558 -94 550 -100 q 583 -89 567 -89 q 609 -90 593 -89 q 651 -92 625 -92 l 676 -90 q 717 -178 717 -90 l 715 -200 q 718 -215 715 -211 q 729 -219 721 -219 q 740 -212 738 -219 q 745 -188 743 -206 q 753 -142 747 -171 q 756 -110 756 -129 q 748 -6 756 -65 q 735 80 740 54 q 731 151 731 106 q 725 226 731 210 l 724 244 q 731 267 724 256 q 738 297 738 278 q 729 356 738 321 q 715 463 719 400 q 710 571 715 526 q 713 586 710 579 q 715 601 715 593 q 710 654 710 624 q 713 718 710 685 q 717 783 717 751 q 703 856 717 824 q 657 889 690 889 q 619 886 643 886 q 578 888 593 886 q 549 892 564 890 q 485 840 503 892 q 481 819 482 831 q 453 736 474 776 q 442 708 442 719 q 446 692 442 700 q 450 674 450 685 q 447 658 450 667 q 410 536 415 560 q 405 521 407 526 q 399 515 403 515 q 378 528 383 517 q 372 555 374 540 q 365 583 371 569 q 347 654 351 617 q 333 714 342 686 q 319 767 324 742 q 301 831 313 799 q 288 863 289 863 q 278 874 288 874 q 241 877 258 874 q 207 881 224 881 q 174 876 188 879 q 122 874 160 874 q 71 818 71 874 q 65 725 71 750 q 63 688 63 706 q 71 642 63 668 q 79 596 79 615 q 77 571 79 581 q 75 554 75 561 q 78 543 75 547 q 83 533 81 539 q 79 506 83 525 l 65 453 q 28 229 36 343 q 50 204 28 204 q 64 178 64 204 q 60 140 64 161 q 57 104 57 118 q 44 0 57 33 q 33 -78 33 -26 q 44 -262 33 -133 q 49 -275 44 -271 q 60 -279 54 -279 z "},"N":{"ha":707,"x_min":28,"x_max":679,"o":"m 222 -286 q 236 -274 232 -283 q 240 -203 240 -264 q 239 -143 240 -164 l 238 -118 q 251 -87 238 -96 q 264 -53 264 -78 l 261 -17 q 264 61 261 35 q 267 124 267 81 l 265 143 q 281 189 265 167 q 281 191 281 190 q 282 201 282 192 l 282 283 l 286 279 q 310 238 310 253 q 321 193 311 222 q 355 88 347 113 q 363 58 363 64 q 379 36 363 36 q 389 40 386 36 q 394 51 392 44 q 400 63 396 57 q 419 24 411 43 l 439 -12 q 454 -47 450 -29 q 456 -68 454 -58 q 460 -103 460 -86 l 458 -124 q 462 -172 458 -147 q 465 -221 465 -196 l 464 -235 q 478 -249 464 -249 q 493 -215 493 -249 l 492 -181 q 505 -117 492 -143 q 567 -89 518 -92 q 604 -125 604 -89 l 603 -156 q 618 -176 603 -175 q 638 -153 633 -176 q 660 14 660 -36 q 658 47 660 35 l 658 61 q 675 86 658 79 q 677 90 676 88 q 679 96 678 93 l 679 175 q 674 200 678 193 q 668 239 668 217 q 662 344 664 322 q 660 392 660 365 l 661 456 q 665 635 664 511 q 674 751 668 703 q 678 814 678 789 q 668 858 678 842 q 631 876 658 875 q 615 874 622 876 q 600 872 607 872 l 592 874 q 554 879 572 879 l 521 878 q 504 879 508 878 l 496 879 q 463 860 472 879 q 444 751 444 828 q 438 685 443 710 q 432 643 432 661 q 436 567 432 621 q 439 521 439 556 q 442 469 439 496 q 436 463 442 465 q 397 535 408 493 q 380 570 390 551 q 363 610 369 589 q 351 643 356 632 q 341 662 346 654 q 331 683 336 669 q 317 726 325 697 q 294 813 308 756 q 264 853 288 832 q 221 875 240 875 q 161 872 190 872 q 92 867 126 872 q 51 835 58 863 q 44 749 44 808 q 31 547 44 632 q 28 519 28 535 q 32 494 28 506 q 45 481 36 482 q 56 476 54 479 q 58 465 58 472 l 60 464 q 61 403 61 443 q 56 190 61 319 q 44 -47 51 60 q 33 -178 38 -153 q 31 -199 31 -189 q 42 -237 31 -224 q 65 -251 54 -251 q 82 -222 82 -251 q 80 -192 82 -201 q 78 -172 78 -183 q 101 -97 78 -104 q 129 -93 114 -93 q 156 -99 144 -93 q 181 -104 167 -104 l 189 -103 q 199 -112 199 -103 q 193 -210 199 -187 l 192 -236 q 222 -286 192 -286 z "},"O":{"ha":765,"x_min":28,"x_max":738,"o":"m 619 -424 q 636 -393 636 -424 l 635 -333 q 638 -206 635 -271 q 642 -68 640 -142 q 657 24 642 -32 q 658 27 658 25 q 660 31 658 29 q 664 33 661 33 q 674 30 669 32 q 683 28 678 28 q 701 43 696 28 q 707 79 706 58 q 708 120 708 100 q 710 150 708 140 q 738 381 738 272 q 706 619 738 514 q 625 782 674 724 q 549 847 599 815 q 463 879 499 879 l 414 879 q 309 865 364 879 q 189 779 254 851 q 149 719 168 756 q 117 651 131 683 q 99 604 103 618 q 67 483 83 542 q 40 374 51 424 q 28 290 28 324 q 58 246 28 246 q 63 242 61 246 q 67 218 64 239 q 79 147 69 197 l 93 86 q 131 -186 131 -81 l 129 -208 q 140 -251 129 -237 q 161 -265 150 -265 q 182 -237 178 -265 l 181 -226 q 192 -144 181 -185 l 197 -111 q 219 -76 203 -76 q 253 -89 232 -76 q 381 -117 290 -110 q 483 -107 453 -117 q 529 -84 513 -97 q 557 -71 546 -71 q 588 -113 582 -71 q 594 -212 594 -156 l 593 -312 q 617 -422 593 -419 l 619 -424 m 382 97 q 349 113 364 97 q 333 151 333 128 q 327 189 333 175 q 315 213 321 203 q 304 240 304 225 q 308 260 304 249 q 313 285 313 271 l 307 343 q 306 395 307 374 q 304 432 304 417 q 307 463 304 447 l 315 533 q 325 489 324 514 q 329 460 325 474 q 347 446 333 446 q 364 464 361 446 q 365 492 365 476 l 365 518 q 374 591 365 554 q 426 640 383 628 q 449 633 436 640 q 483 603 478 615 q 506 422 506 529 q 446 133 506 199 q 382 97 413 97 z "},"P":{"ha":738,"x_min":28,"x_max":710,"o":"m 250 -344 q 274 -322 268 -344 q 279 -264 279 -299 q 276 -179 279 -224 q 272 -101 272 -135 q 275 -69 272 -81 q 278 -46 278 -57 q 273 -24 278 -33 q 268 11 268 -15 q 271 113 271 44 q 278 181 272 157 q 285 229 285 204 q 283 249 285 242 q 281 263 281 256 q 285 274 281 268 q 300 279 290 279 l 324 278 q 420 283 358 278 q 524 300 482 288 q 539 304 533 304 q 549 295 546 304 q 551 257 551 286 l 550 243 q 553 226 550 235 q 565 158 565 181 q 569 138 567 144 q 582 132 571 132 q 594 156 594 132 l 593 188 q 599 223 593 208 q 606 254 606 238 l 604 275 q 613 317 604 300 q 635 353 622 335 q 669 409 651 375 q 698 501 686 443 q 710 597 710 560 q 702 660 710 636 q 685 703 694 685 q 669 739 676 721 q 515 848 639 811 q 265 885 392 885 q 93 861 164 885 q 58 806 58 846 q 60 790 58 797 q 62 767 61 782 q 63 719 63 753 q 60 592 63 664 q 56 469 57 521 l 53 418 l 54 381 q 38 232 54 319 q 28 167 28 192 q 43 133 28 143 q 47 121 47 129 q 44 97 47 111 q 39 -1 39 68 q 33 -67 39 -39 q 36 -81 33 -74 l 36 -82 q 49 -139 47 -115 q 51 -185 51 -162 q 56 -240 51 -208 q 74 -256 58 -256 q 92 -231 86 -256 q 93 -219 93 -228 q 96 -176 93 -203 q 110 -128 99 -150 q 149 -107 122 -107 q 197 -114 174 -108 q 210 -117 203 -115 q 221 -126 218 -118 q 231 -231 231 -186 q 229 -278 231 -257 l 229 -307 q 250 -344 229 -344 m 388 463 q 365 465 374 463 q 350 468 357 468 l 336 468 q 297 483 306 468 q 289 524 289 499 q 290 555 289 538 q 292 592 292 572 l 290 617 q 296 624 290 621 q 303 586 303 608 l 303 549 q 304 544 304 547 q 307 535 304 540 q 317 529 310 529 q 338 540 333 529 q 343 578 342 550 l 344 596 q 399 658 353 658 q 458 629 433 658 q 483 561 483 600 q 451 490 483 522 q 388 463 411 463 z "},"Q":{"ha":742,"x_min":28,"x_max":713,"o":"m 661 -356 q 683 -339 674 -356 q 701 -219 701 -290 l 701 -178 q 711 -76 701 -118 l 713 -65 q 706 -44 713 -53 q 694 -25 700 -35 q 668 8 685 -7 q 657 24 661 15 q 636 44 647 40 q 633 51 633 46 q 641 72 638 60 q 651 94 644 83 q 673 112 657 106 q 692 148 689 118 q 696 221 696 178 q 699 299 696 258 q 704 363 703 340 l 707 407 q 706 433 707 424 q 696 563 699 499 q 689 604 694 583 q 682 631 685 617 q 621 765 669 714 l 610 779 q 518 864 563 843 q 385 890 467 886 q 258 856 324 890 q 136 743 193 821 q 60 508 82 661 l 39 386 q 28 308 28 332 q 46 279 28 283 q 55 270 54 274 q 57 261 56 267 q 86 121 57 224 q 91 110 88 115 q 94 99 94 104 l 93 92 q 103 52 93 68 q 128 21 114 36 q 162 -31 146 0 q 179 -114 178 -61 q 176 -210 179 -162 q 172 -279 172 -249 q 196 -339 172 -339 q 218 -293 218 -339 q 216 -253 218 -274 q 214 -211 214 -233 q 221 -149 214 -179 q 228 -79 228 -118 q 232 -72 228 -72 q 239 -78 235 -72 q 274 -96 250 -90 q 324 -105 299 -101 q 365 -113 349 -108 q 399 -118 382 -118 q 436 -101 418 -118 q 440 -99 439 -99 q 447 -103 443 -99 l 449 -104 q 474 -133 464 -115 q 503 -162 483 -150 q 521 -185 521 -169 q 527 -236 521 -211 q 533 -289 533 -261 q 537 -306 533 -301 q 550 -311 540 -311 q 568 -278 568 -311 q 566 -256 568 -268 q 564 -231 564 -244 q 576 -179 564 -207 q 629 -118 589 -151 q 650 -207 650 -160 q 647 -267 650 -237 q 643 -326 643 -297 q 661 -356 643 -356 m 329 222 q 313 239 321 222 q 301 278 306 256 q 297 319 297 301 q 301 361 297 340 q 308 425 308 400 l 307 460 q 312 503 307 479 q 319 553 317 528 q 346 644 329 631 q 360 664 354 651 q 369 615 369 642 l 367 557 q 383 524 367 526 q 400 534 394 524 q 407 558 406 544 q 408 581 408 572 l 407 597 q 417 636 407 618 q 421 651 418 643 q 428 658 424 658 q 442 649 435 658 q 454 628 449 640 q 464 604 460 615 q 488 425 488 500 q 476 303 488 350 q 471 251 471 272 l 471 243 l 460 253 q 415 279 432 279 q 388 271 401 279 q 363 252 374 263 q 347 236 351 242 q 329 222 338 222 z "},"R":{"ha":726,"x_min":28,"x_max":699,"o":"m 71 -385 q 87 -372 83 -385 q 90 -335 90 -360 l 89 -262 q 96 -158 89 -218 q 119 -124 97 -124 q 142 -128 128 -124 q 171 -133 157 -133 l 200 -131 q 227 -152 219 -131 q 247 -174 235 -174 q 262 -166 256 -174 q 268 -147 268 -158 q 276 -103 269 -125 q 282 -58 282 -81 l 282 -35 q 289 81 282 14 q 296 190 296 149 q 293 219 296 210 q 324 174 308 206 q 367 53 361 100 l 369 39 q 385 13 376 13 q 411 -12 406 11 l 415 -22 q 456 -210 453 -103 q 458 -231 457 -228 q 467 -236 460 -235 q 482 -222 481 -236 l 481 -203 q 485 -162 481 -181 q 492 -126 490 -144 q 500 -115 493 -115 l 510 -117 q 528 -115 517 -117 q 551 -114 540 -114 q 601 -172 601 -114 q 597 -199 601 -186 q 592 -236 592 -212 q 610 -265 592 -265 q 628 -249 622 -265 q 640 -165 640 -192 q 644 -139 642 -150 q 657 -117 647 -128 q 660 -107 660 -114 q 643 -42 660 -93 q 635 -15 639 -32 q 547 207 586 149 q 531 238 538 219 q 525 269 525 257 q 541 297 525 286 q 572 307 557 307 q 594 289 586 307 q 607 225 601 271 q 621 211 608 211 q 635 225 635 211 l 635 242 q 663 382 635 285 q 688 477 676 428 q 699 576 699 526 q 579 804 699 715 q 529 825 556 819 l 506 833 q 358 865 421 865 l 296 864 q 247 865 267 864 q 210 867 226 867 q 160 860 185 867 q 125 854 143 856 q 83 846 101 854 q 60 807 64 838 q 47 704 47 729 q 49 687 47 693 q 50 665 50 681 q 43 597 47 625 q 39 519 39 568 q 40 493 39 506 q 42 467 42 481 q 33 396 42 431 q 28 347 28 368 q 46 311 28 322 q 50 303 50 308 q 46 257 49 272 q 40 156 42 232 l 39 29 q 36 -33 39 -3 l 35 -75 q 44 -180 35 -133 q 54 -281 54 -226 q 51 -324 54 -307 l 49 -350 q 71 -385 49 -385 m 304 451 q 295 458 297 451 q 293 485 293 464 l 296 590 q 313 629 296 608 q 350 654 329 650 q 381 646 363 654 q 409 624 400 638 q 418 550 418 610 l 417 521 q 423 501 417 508 q 436 494 429 494 q 458 524 451 494 l 463 544 q 468 583 468 564 l 467 593 q 469 598 467 596 q 471 601 471 600 q 479 558 479 576 q 460 493 479 536 q 439 464 449 468 q 415 460 429 460 l 379 461 q 304 451 361 461 z "},"S":{"ha":679,"x_min":29,"x_max":651,"o":"m 57 -272 q 78 -249 74 -272 q 83 -193 83 -225 l 83 -151 l 82 -115 q 94 -67 82 -67 q 107 -72 100 -67 q 164 -156 151 -111 q 189 -187 172 -187 q 199 -183 194 -187 q 204 -168 204 -178 q 212 -134 206 -142 q 226 -126 218 -126 q 241 -128 233 -126 q 257 -131 249 -131 q 333 -122 296 -122 l 410 -124 q 450 -118 438 -124 q 483 -104 463 -112 l 522 -86 l 531 -85 q 541 -96 539 -85 q 543 -133 543 -107 q 547 -181 543 -167 q 567 -197 551 -196 q 593 -162 589 -197 l 622 32 q 629 56 624 46 q 640 101 635 67 l 649 147 l 650 181 l 651 239 q 622 335 651 294 q 550 408 592 376 q 463 457 522 431 q 357 483 403 483 q 338 483 342 483 q 329 481 335 482 q 285 500 308 481 q 263 554 263 519 q 282 614 263 579 q 300 568 282 568 q 314 579 311 568 l 321 614 q 351 665 332 665 q 379 657 365 663 q 453 622 419 650 q 472 585 468 606 q 476 513 476 564 q 480 488 476 497 q 496 478 483 479 q 511 497 511 478 l 511 501 q 517 525 511 511 q 547 554 522 539 q 558 559 551 556 q 572 568 564 563 q 586 585 581 574 q 592 590 589 590 q 599 584 596 590 q 603 569 601 578 q 604 556 604 561 q 603 535 604 544 q 601 518 601 526 q 606 498 603 504 q 617 492 608 492 q 638 522 633 492 q 642 599 642 551 l 640 683 l 642 694 l 642 719 q 624 769 642 746 q 581 801 607 793 q 560 818 572 806 q 492 856 526 856 q 431 860 449 856 q 365 864 413 864 q 257 851 293 864 q 211 840 235 843 q 172 821 201 839 q 69 689 92 771 l 56 638 q 40 568 40 599 q 49 513 40 542 q 63 400 58 472 q 73 376 64 382 q 92 370 82 371 q 107 364 101 369 q 147 327 121 340 q 201 304 174 314 q 258 276 242 293 q 275 222 272 257 q 296 188 278 188 q 310 192 307 188 q 314 208 314 197 l 314 232 q 319 267 314 247 q 329 278 321 278 q 371 267 351 275 q 397 257 383 261 q 417 233 410 253 q 425 189 425 214 q 410 131 425 158 q 358 99 394 103 q 333 92 349 99 q 301 86 317 86 q 283 93 290 86 q 242 126 264 113 l 217 146 q 169 165 192 165 q 118 131 139 165 q 46 44 97 96 q 29 -24 29 28 q 32 -89 29 -49 q 35 -237 35 -161 q 39 -262 35 -253 q 57 -272 43 -272 z "},"T":{"ha":718,"x_min":28,"x_max":690,"o":"m 426 -187 q 442 -174 439 -187 q 444 -142 444 -161 q 447 -101 444 -122 q 460 -4 460 -39 l 457 31 q 460 44 457 38 q 468 89 468 54 q 457 196 468 140 q 460 339 457 256 q 472 617 464 551 q 492 655 476 640 q 529 669 508 669 l 551 667 q 588 664 568 664 q 617 658 608 664 q 632 625 626 653 q 634 606 633 617 q 638 585 635 596 q 651 575 640 575 q 672 606 672 575 q 685 683 675 656 q 690 718 690 697 l 690 792 q 673 851 690 840 q 635 861 656 861 l 582 858 l 540 860 l 432 858 q 283 856 347 856 q 222 857 243 856 q 122 865 161 865 q 49 848 63 865 q 35 801 35 831 q 31 737 35 756 q 28 703 28 718 q 35 657 28 678 q 42 607 42 636 l 39 571 q 48 508 39 521 q 65 496 57 496 q 73 499 69 496 q 76 504 76 501 l 75 517 q 78 540 75 528 q 81 563 81 551 l 79 581 q 81 599 79 590 q 82 614 82 607 q 101 658 85 647 q 142 669 118 669 q 206 664 156 669 q 233 647 221 663 q 244 617 244 632 l 250 481 q 248 456 250 468 q 242 419 246 444 q 228 328 238 393 l 228 321 q 233 308 228 311 q 243 306 238 306 q 253 304 249 306 q 257 294 257 303 q 250 196 251 268 q 243 88 247 142 q 228 0 239 33 q 224 -24 224 -11 q 228 -51 224 -37 q 254 -157 254 -132 l 254 -161 q 258 -176 256 -172 q 268 -179 260 -179 q 282 -160 282 -179 q 310 -94 286 -126 q 325 -85 317 -85 q 347 -86 335 -86 l 358 -86 q 381 -88 368 -86 q 397 -103 393 -90 l 400 -112 q 410 -169 410 -135 q 426 -187 410 -187 z "},"U":{"ha":714,"x_min":28,"x_max":686,"o":"m 578 -282 q 597 -263 593 -281 q 601 -218 601 -246 l 601 -211 q 614 -132 601 -174 q 619 -72 619 -101 q 631 45 621 -8 q 642 152 640 99 q 651 260 644 206 q 657 338 657 306 q 658 349 657 346 q 663 354 658 351 q 682 443 682 361 l 681 515 q 678 607 678 561 q 686 722 678 667 q 685 740 685 731 q 672 861 685 806 q 659 885 667 881 q 638 889 651 889 l 592 890 l 532 889 l 508 890 q 446 865 467 890 q 425 799 425 839 q 432 713 425 768 q 435 676 435 692 l 433 647 l 422 568 l 422 556 q 428 542 422 544 q 435 518 435 542 q 431 462 433 488 q 428 399 429 436 q 425 300 426 363 q 420 265 424 283 q 417 228 417 247 l 418 208 q 395 171 418 189 q 351 153 372 153 q 328 167 336 153 q 311 188 319 181 q 297 206 303 194 q 292 267 292 217 l 292 663 q 295 785 292 767 q 299 822 299 804 q 257 888 299 879 q 210 890 238 890 q 146 894 182 890 l 138 894 q 74 853 93 894 q 56 768 56 811 q 64 693 56 721 l 67 682 q 28 431 67 672 q 33 389 28 406 q 56 379 35 379 l 60 356 l 64 328 l 63 283 q 70 228 63 256 q 78 178 78 201 l 76 165 q 90 76 76 136 l 139 -144 q 143 -175 142 -162 q 146 -194 144 -187 q 156 -201 147 -201 q 176 -192 171 -201 q 181 -164 181 -182 q 183 -99 181 -124 q 224 -37 190 -37 q 239 -42 231 -37 q 351 -65 275 -65 q 431 -58 401 -65 q 482 -42 460 -50 l 508 -33 q 515 -29 513 -32 q 521 -25 518 -26 q 526 -24 524 -24 q 535 -28 531 -24 q 543 -36 539 -33 q 561 -78 558 -46 q 560 -183 561 -147 q 557 -232 557 -211 q 578 -282 557 -282 z "},"V":{"ha":731,"x_min":28,"x_max":703,"o":"m 435 -357 q 447 -344 447 -357 l 446 -317 q 465 -187 450 -243 q 468 -154 468 -171 l 468 -149 q 481 -97 468 -121 q 493 -50 488 -83 q 513 32 497 -10 l 531 85 q 553 149 540 117 q 585 289 579 215 l 588 310 q 651 601 613 467 q 676 699 669 667 q 701 814 686 757 l 703 828 q 690 861 703 849 q 654 874 676 874 q 602 875 632 874 q 547 877 572 876 q 517 879 522 878 l 490 879 q 461 869 475 879 q 447 844 447 860 q 424 658 447 815 q 408 554 413 589 q 388 471 401 513 q 375 428 381 450 q 357 418 372 419 q 331 508 340 418 q 313 656 318 619 l 294 765 q 280 844 286 818 q 260 879 274 869 q 201 892 246 889 q 181 887 190 892 q 161 882 171 882 q 144 886 153 883 q 117 889 135 889 l 92 888 q 46 869 64 886 q 28 831 28 851 q 31 815 28 822 q 83 436 79 676 q 88 416 83 426 q 103 404 92 406 q 117 394 114 403 q 119 370 119 386 q 122 346 119 354 q 143 246 138 297 q 161 140 146 218 q 182 29 175 85 q 186 15 182 22 q 207 -61 200 -11 q 225 -154 213 -99 q 229 -183 228 -164 q 253 -262 233 -262 q 264 -242 264 -260 l 264 -235 q 279 -161 264 -211 q 285 -149 279 -154 q 331 -143 290 -143 q 373 -144 353 -143 q 403 -180 393 -146 q 418 -257 414 -214 q 422 -333 422 -300 q 424 -352 422 -347 q 435 -357 426 -357 z "},"W":{"ha":819,"x_min":28,"x_max":792,"o":"m 144 -319 q 168 -268 164 -319 q 169 -212 169 -249 q 201 -168 169 -175 l 238 -164 q 265 -190 257 -164 q 274 -236 274 -215 l 272 -257 q 288 -271 272 -271 q 304 -246 303 -271 q 318 -119 318 -165 q 325 -65 319 -93 l 344 4 q 418 217 390 172 q 431 169 422 207 q 450 85 439 131 q 472 13 461 40 q 486 -43 482 -15 q 503 -110 493 -85 q 519 -161 513 -136 q 525 -224 525 -186 q 524 -253 525 -240 q 521 -281 522 -267 q 539 -301 521 -299 q 561 -211 556 -301 q 566 -176 563 -187 q 581 -161 569 -165 q 631 -150 608 -150 q 673 -174 664 -150 q 683 -225 682 -199 q 688 -252 685 -242 q 699 -262 690 -262 q 710 -256 707 -262 q 713 -225 713 -250 q 740 81 740 -58 q 751 109 740 99 q 761 136 761 119 l 760 257 q 764 433 760 404 l 774 517 q 792 785 792 679 q 788 843 792 825 q 738 883 775 883 q 717 882 728 883 q 694 881 706 881 q 647 884 668 881 q 610 888 625 888 q 556 860 576 888 q 539 790 539 825 l 539 776 l 538 749 q 532 585 532 647 q 533 507 532 539 l 533 460 q 522 361 533 413 q 500 395 506 379 q 492 429 494 411 q 481 469 490 447 q 444 518 472 492 q 435 531 439 525 q 428 542 432 538 q 414 549 424 547 q 396 538 407 549 q 383 526 392 529 q 360 497 364 518 l 353 475 q 310 376 324 376 q 303 399 304 376 q 279 769 279 678 l 274 800 q 268 843 268 821 l 269 856 q 263 867 269 861 q 115 879 242 879 q 55 872 71 879 q 35 847 39 865 q 28 806 28 822 q 32 775 28 790 q 39 704 39 738 l 38 642 q 36 531 36 589 q 43 385 36 453 l 44 358 q 43 324 44 340 q 42 296 42 308 q 72 243 42 260 q 85 210 78 238 q 99 88 99 143 l 97 67 q 96 -14 96 31 q 101 -97 96 -75 q 121 -236 121 -169 q 125 -295 121 -272 q 144 -319 129 -318 z "},"X":{"ha":729,"x_min":28,"x_max":701,"o":"m 507 -310 q 518 -300 518 -310 l 517 -294 q 520 -274 517 -285 q 524 -254 524 -264 q 528 -178 525 -217 q 553 -128 531 -139 q 599 -118 575 -118 l 610 -117 q 629 -142 618 -117 q 643 -199 640 -168 q 661 -218 644 -218 q 674 -212 668 -218 q 682 -197 681 -207 q 685 -157 685 -179 q 689 -89 685 -125 l 690 -72 q 664 -24 690 -44 q 585 147 646 -11 q 483 382 536 272 l 482 392 l 490 413 q 508 450 494 433 q 519 472 517 458 q 556 554 533 515 q 585 621 572 586 q 610 679 599 656 q 636 703 622 703 q 651 682 647 701 q 654 635 654 663 q 658 585 654 607 q 676 561 661 563 q 688 566 685 561 q 691 575 690 571 q 692 583 692 579 q 695 628 693 586 q 699 723 697 669 q 701 811 701 776 q 682 876 701 864 q 642 883 669 883 l 581 883 l 526 885 q 492 871 501 885 q 480 844 483 857 q 472 824 476 831 q 444 767 454 799 q 410 695 435 735 q 374 613 386 656 q 331 686 356 614 q 249 864 307 749 q 163 894 232 894 q 113 892 138 894 q 71 890 89 890 q 36 867 44 890 q 28 813 28 844 q 31 751 28 782 q 35 696 35 719 l 35 686 q 47 672 35 672 q 60 682 57 672 q 65 721 64 692 l 68 740 q 85 636 85 706 l 85 599 q 106 540 85 540 q 119 553 117 540 q 122 585 122 565 q 128 618 122 604 q 213 440 185 488 q 233 403 226 418 q 240 374 240 388 q 215 304 240 347 q 156 193 213 297 q 44 -14 56 10 q 29 -74 29 -47 q 36 -122 29 -96 q 50 -253 47 -161 q 53 -290 50 -276 q 68 -306 57 -304 q 76 -302 74 -306 q 81 -297 79 -299 q 82 -293 82 -294 q 89 -247 89 -275 l 89 -200 q 97 -145 89 -169 q 135 -121 104 -121 q 216 -126 211 -124 q 223 -136 221 -128 q 225 -150 225 -144 q 233 -181 229 -169 q 249 -193 238 -193 q 263 -184 260 -192 q 268 -166 267 -176 q 272 -147 269 -156 q 282 -132 275 -137 l 282 -129 q 278 -119 281 -124 q 275 -110 275 -115 q 278 -94 275 -101 q 281 -79 281 -86 q 336 94 296 11 l 350 126 q 358 138 353 138 q 365 132 361 138 q 404 43 404 67 l 403 26 q 407 2 403 17 q 416 -16 411 -12 q 431 -19 421 -19 q 446 -29 442 -19 q 458 -58 451 -44 q 488 -185 488 -124 q 486 -225 488 -207 q 485 -258 485 -243 q 490 -294 485 -279 q 507 -310 496 -310 z "},"Y":{"ha":743,"x_min":28,"x_max":715,"o":"m 289 -296 q 304 -283 301 -296 q 311 -193 307 -269 q 319 -153 313 -161 q 364 -144 326 -144 q 401 -151 389 -144 q 421 -186 413 -157 q 426 -207 425 -197 q 431 -222 428 -217 q 442 -228 433 -228 q 461 -215 458 -228 q 464 -183 464 -203 l 464 -178 q 478 -107 464 -144 q 481 -93 481 -100 q 476 -78 481 -85 q 464 -32 464 -57 l 461 -1 q 463 6 461 4 q 474 40 474 24 q 468 79 474 60 q 463 150 463 114 q 467 212 464 188 q 469 257 469 236 q 467 294 469 283 q 472 346 467 326 q 540 535 481 381 q 574 600 554 568 q 592 632 583 615 q 635 719 618 681 q 649 729 642 729 q 658 714 657 729 l 658 701 q 656 640 656 672 q 675 585 656 585 q 688 599 683 585 q 692 701 692 626 q 713 825 692 775 q 715 842 715 833 q 678 896 715 876 q 649 901 663 901 l 629 900 l 583 900 q 500 882 540 900 q 478 863 485 875 q 466 828 472 850 q 442 767 460 807 q 374 607 399 681 q 364 597 371 599 q 314 735 331 675 q 268 851 296 800 q 238 877 258 865 q 199 889 217 889 q 185 886 192 889 q 139 879 161 879 l 117 881 q 48 865 68 881 q 28 831 28 850 q 36 803 28 817 q 51 732 49 785 q 57 493 54 664 q 69 478 60 478 q 83 496 83 478 l 81 543 l 81 560 q 83 572 81 567 q 94 617 94 596 q 98 645 94 638 q 114 654 101 653 q 126 642 121 654 q 139 614 132 631 q 160 568 147 590 q 181 497 181 526 q 189 467 183 478 q 214 454 194 456 q 217 451 215 454 q 221 449 219 449 q 247 394 242 426 q 253 318 253 363 l 253 271 q 243 186 253 215 q 235 146 235 165 q 251 107 235 126 l 251 7 q 256 -100 251 -71 q 264 -190 264 -153 l 264 -217 q 272 -281 264 -251 q 289 -296 279 -296 z "},"Z":{"ha":685,"x_min":28,"x_max":657,"o":"m 88 -319 q 101 -304 96 -319 l 104 -294 q 113 -210 113 -250 l 114 -174 q 132 -131 115 -131 l 142 -132 l 167 -133 q 209 -131 188 -133 q 253 -128 231 -128 q 299 -131 276 -129 q 349 -133 321 -133 q 384 -131 367 -133 q 418 -128 401 -128 q 445 -129 432 -128 q 471 -131 458 -131 l 499 -128 q 507 -132 503 -128 q 563 -211 547 -161 q 573 -262 569 -251 q 585 -274 576 -274 q 606 -247 606 -271 l 604 -221 q 614 -135 604 -179 q 624 -58 624 -90 l 622 -28 q 624 1 622 -14 q 626 33 626 17 q 592 92 626 76 q 522 108 558 108 l 510 107 q 460 104 497 104 l 381 106 l 342 104 q 324 110 332 104 q 315 122 315 115 q 322 138 315 128 l 325 142 q 468 382 460 363 q 490 412 478 397 q 513 446 503 426 q 588 556 542 507 q 592 547 592 553 q 601 481 596 513 q 614 400 611 440 q 625 385 614 385 q 634 388 631 385 q 638 397 638 392 l 638 414 q 642 460 638 438 q 646 507 646 483 l 644 571 q 651 646 644 608 q 657 699 657 672 q 654 727 657 713 q 650 758 651 742 q 641 806 647 782 q 617 849 635 829 q 610 860 613 853 q 601 874 608 868 q 528 894 571 894 l 485 893 q 393 890 450 890 l 346 890 q 285 888 313 890 q 224 885 257 886 l 135 888 q 63 872 86 888 q 39 807 40 856 q 42 747 39 783 q 48 678 44 710 q 54 635 51 646 q 64 550 64 589 l 63 507 q 66 476 63 488 q 81 464 69 464 q 90 467 86 464 q 97 482 93 471 q 102 519 100 493 q 105 594 104 546 q 132 656 106 642 q 194 671 158 671 l 278 668 l 300 668 q 332 652 318 668 q 346 618 346 636 l 346 608 q 267 454 328 553 q 140 254 207 356 l 71 147 q 41 97 54 124 q 28 39 28 71 q 32 -4 29 15 q 35 -61 35 -31 l 33 -94 q 46 -127 33 -114 q 61 -160 58 -140 q 67 -200 64 -179 q 75 -274 75 -236 l 74 -304 q 78 -315 74 -311 q 88 -319 82 -319 z "},"[":{"ha":304,"x_min":28,"x_max":276,"o":"m 65 -143 q 86 -127 82 -143 q 91 -92 90 -111 q 95 -57 92 -72 q 114 -42 99 -42 q 182 -40 161 -42 l 206 -40 q 221 -46 221 -40 q 219 -53 221 -49 q 218 -62 218 -57 q 220 -79 218 -71 q 222 -97 222 -87 l 221 -107 q 235 -119 221 -119 q 246 -110 243 -119 q 256 -68 249 -87 q 268 -11 263 -49 q 265 -3 268 -7 q 261 6 261 1 q 263 17 261 13 q 267 28 265 22 q 256 60 267 46 q 235 74 246 74 q 219 72 226 74 q 203 68 213 69 q 179 90 182 68 q 181 95 181 93 q 183 126 182 97 l 183 442 q 179 719 182 704 l 179 729 q 184 736 179 735 q 194 738 189 738 q 223 719 215 738 q 234 680 231 700 q 242 646 238 660 q 260 632 247 632 q 276 650 276 632 l 275 668 q 272 706 275 688 q 267 765 267 735 q 271 813 267 786 q 267 827 271 819 q 262 843 263 835 q 256 854 261 851 q 243 857 250 857 q 226 856 235 857 q 214 854 218 854 q 204 857 208 856 q 195 859 200 858 q 183 860 190 860 q 158 858 171 860 q 133 856 146 856 q 120 857 125 856 q 107 858 115 858 q 87 856 97 858 q 65 853 76 853 l 57 854 q 46 851 53 854 q 33 840 39 847 q 28 821 28 833 q 33 797 28 811 q 50 739 46 768 l 60 701 l 60 693 q 57 683 60 686 q 53 663 54 672 q 51 646 51 653 q 64 617 51 629 q 69 607 69 613 l 68 582 q 70 542 68 563 q 72 503 72 522 q 71 485 72 494 q 69 450 69 475 l 71 385 q 74 300 74 340 q 68 223 72 254 q 64 138 64 192 q 56 47 64 94 q 47 -31 47 -1 q 49 -43 47 -39 q 53 -82 53 -65 q 51 -108 53 -97 q 50 -126 50 -119 q 61 -142 50 -139 l 65 -143 z "},"\\":{"ha":619,"x_min":28,"x_max":592,"o":"m 418 -49 q 436 -44 426 -49 q 528 -26 489 -26 q 574 -17 557 -24 q 592 17 592 -10 q 590 35 592 31 q 563 92 579 53 q 522 174 538 151 q 488 244 513 188 q 386 475 442 343 l 372 507 l 338 579 q 233 818 258 739 q 172 861 218 861 l 140 860 q 128 862 132 861 q 119 863 124 863 q 106 864 115 864 q 54 854 81 864 q 28 828 28 844 q 34 813 28 821 q 40 793 40 806 l 39 785 q 47 765 39 778 q 76 706 68 738 q 85 682 79 694 q 117 615 90 669 l 165 517 q 233 368 228 389 q 240 343 233 354 q 296 229 274 289 q 335 144 306 199 q 375 54 358 100 q 388 26 379 39 q 404 -26 404 -4 q 417 -49 404 -49 l 418 -49 z "},"]":{"ha":289,"x_min":28,"x_max":261,"o":"m 238 -140 q 249 -135 244 -140 q 254 -119 254 -131 q 256 -81 254 -108 q 261 38 261 -22 q 257 104 261 81 q 253 158 253 128 q 250 206 253 189 q 247 242 247 224 l 249 274 q 242 314 249 293 l 244 350 l 250 436 q 247 460 250 449 q 243 496 243 471 q 245 534 243 514 q 247 568 247 554 l 246 631 q 260 825 246 683 l 261 832 q 229 871 261 860 q 168 876 199 876 l 135 875 q 108 871 121 871 q 97 873 101 872 q 82 874 93 874 q 51 868 67 874 q 36 850 36 863 q 39 773 39 829 q 44 683 39 717 q 58 672 50 672 q 75 704 75 672 l 72 722 q 87 738 72 735 q 118 742 101 742 q 125 739 124 742 l 125 738 q 131 700 131 722 q 128 651 131 679 q 124 550 124 611 l 126 481 q 122 442 126 461 q 118 406 118 422 q 125 213 119 394 q 129 157 126 171 q 132 129 132 143 q 128 108 132 119 q 127 103 128 107 q 122 97 126 99 q 114 96 118 96 q 68 90 90 90 l 61 90 q 28 40 28 90 q 32 -11 28 17 q 36 -60 36 -39 q 35 -79 36 -71 l 35 -100 q 49 -112 35 -112 q 69 -93 69 -111 l 69 -69 q 94 -29 75 -36 q 160 -22 114 -22 l 199 -22 q 222 -44 219 -22 l 221 -65 l 222 -100 l 219 -122 q 226 -135 219 -131 q 238 -140 232 -140 z "},"^":{"ha":378,"x_min":28,"x_max":350,"o":"m 274 881 q 322 886 297 881 q 335 888 328 888 q 346 894 343 889 q 350 908 349 900 q 342 918 350 914 q 294 981 326 935 q 186 1101 211 1097 q 176 1097 179 1101 q 169 1087 172 1093 q 160 1076 165 1081 q 116 1028 133 1056 q 76 982 99 1001 q 42 936 54 963 q 33 919 38 928 q 28 906 28 911 q 50 885 28 888 l 86 885 l 128 881 q 163 892 153 881 q 179 914 174 903 q 189 925 185 925 q 200 917 193 925 q 274 881 228 881 z "},"_":{"ha":649,"x_min":28,"x_max":621,"o":"m 51 -333 q 64 -328 61 -333 q 67 -312 67 -322 q 69 -287 67 -301 l 65 -257 l 67 -247 q 72 -219 71 -233 q 83 -178 74 -197 q 88 -164 88 -169 l 85 -151 q 93 -144 85 -146 q 367 -135 122 -137 q 538 -131 514 -133 q 549 -132 544 -131 q 554 -140 554 -133 l 553 -156 q 555 -183 553 -169 q 557 -217 557 -197 q 563 -253 557 -236 q 567 -274 565 -264 q 573 -288 568 -283 q 583 -293 578 -293 q 599 -276 593 -293 q 605 -203 603 -228 q 609 -166 607 -179 q 617 -137 611 -153 q 621 -119 621 -129 l 618 -90 q 621 -74 618 -82 l 621 -72 q 602 -57 610 -65 q 585 -42 594 -49 q 564 -35 576 -35 q 549 -37 556 -35 q 533 -39 542 -39 q 513 -35 522 -37 q 492 -33 503 -33 q 467 -39 478 -36 q 438 -42 456 -42 l 415 -40 q 390 -44 403 -40 q 368 -47 378 -47 l 347 -46 q 310 -44 331 -44 l 272 -44 q 203 -40 238 -44 q 131 -35 169 -35 q 51 -39 92 -35 q 28 -60 28 -42 q 31 -72 28 -64 q 33 -86 33 -79 q 33 -97 33 -93 q 38 -133 38 -115 l 36 -181 q 38 -202 36 -192 q 40 -221 40 -212 l 39 -231 q 35 -272 35 -251 q 31 -314 35 -293 l 29 -319 q 43 -332 29 -331 l 51 -333 z "},"`":{"ha":306,"x_min":28,"x_max":278,"o":"m 222 879 q 238 883 231 879 q 249 889 244 886 q 256 893 253 892 q 278 921 278 904 q 258 967 278 942 q 240 1000 247 983 q 205 1085 222 1051 q 168 1119 188 1119 q 156 1117 163 1119 q 143 1114 150 1114 q 122 1117 132 1114 q 104 1121 113 1121 q 86 1114 94 1121 l 82 1114 q 63 1110 71 1114 q 49 1101 54 1106 q 39 1094 43 1097 q 28 1081 28 1088 q 39 1068 28 1075 q 79 1022 58 1054 q 143 942 100 989 q 158 931 149 936 q 174 915 167 925 q 222 879 197 879 z "},"a":{"ha":756,"x_min":28,"x_max":728,"o":"m 101 -260 q 126 -203 126 -260 l 126 -176 q 149 -97 126 -137 q 171 -86 158 -86 q 187 -93 181 -86 q 197 -100 193 -100 q 221 -124 221 -101 l 219 -150 q 224 -167 219 -160 q 236 -174 228 -174 q 253 -160 246 -174 q 260 -125 260 -146 l 260 -101 q 263 -78 260 -89 q 273 -13 268 -49 q 284 50 278 22 q 300 80 290 78 q 322 86 310 82 q 382 94 351 94 q 425 86 403 94 q 435 85 429 85 q 452 74 449 85 q 457 42 456 63 q 471 -31 460 14 q 477 -40 474 -35 q 481 -54 481 -44 l 479 -67 q 485 -105 479 -86 q 490 -143 490 -124 l 490 -150 q 500 -176 490 -164 q 518 -189 510 -189 q 531 -183 525 -189 q 538 -165 536 -176 q 539 -124 539 -139 q 541 -102 539 -108 q 551 -96 543 -96 l 557 -96 q 605 -101 588 -100 q 631 -104 622 -101 q 642 -117 639 -107 q 649 -151 644 -126 l 650 -225 q 667 -247 656 -247 q 688 -214 683 -247 q 689 -161 689 -200 l 689 -108 q 694 -96 689 -100 q 706 -87 699 -92 q 720 -76 713 -83 q 728 -50 728 -68 q 714 7 728 -26 q 681 154 699 53 q 628 369 653 317 q 608 445 608 406 q 599 512 608 485 q 588 569 589 539 q 595 583 588 578 q 603 599 603 588 q 574 672 596 640 q 538 764 551 704 q 506 838 529 804 q 465 872 482 872 l 388 872 q 338 868 364 872 q 286 864 313 864 l 276 864 q 243 853 256 864 q 224 826 231 843 q 195 723 207 792 q 179 601 183 654 q 171 564 178 582 q 163 538 165 551 q 131 426 154 478 q 106 369 119 404 q 83 304 93 335 q 72 268 72 274 q 92 246 72 251 q 100 239 100 244 l 99 235 q 78 167 85 201 q 51 68 68 118 q 28 -29 28 7 q 35 -58 28 -50 q 51 -71 42 -67 q 66 -81 60 -75 q 76 -99 72 -87 q 83 -146 83 -126 l 81 -194 q 101 -260 81 -260 m 428 329 l 379 329 q 350 332 365 329 q 366 408 353 369 q 382 490 379 446 q 399 468 396 481 l 415 399 q 431 335 431 347 q 428 329 431 331 z "},"b":{"ha":750,"x_min":28,"x_max":722,"o":"m 521 -331 q 536 -314 533 -331 q 545 -278 538 -293 q 553 -247 553 -262 q 552 -231 553 -236 q 551 -219 551 -225 q 550 -197 550 -212 q 556 -133 550 -167 q 574 -85 561 -99 l 625 -36 q 669 7 653 -11 q 694 53 685 25 q 722 182 722 121 q 693 317 722 269 q 638 382 668 353 l 610 411 q 657 479 635 428 q 679 599 679 531 q 629 764 679 692 q 571 828 596 813 q 490 871 524 858 q 422 883 457 883 q 303 856 343 883 q 281 843 289 843 q 271 853 275 843 q 233 875 263 874 l 156 875 q 90 878 106 875 l 75 879 q 41 857 49 879 q 33 803 33 835 l 35 753 q 40 717 35 738 q 44 665 44 697 l 43 589 q 47 514 43 546 q 50 456 50 482 q 44 375 50 406 q 33 327 39 344 q 28 299 28 310 q 50 268 28 282 q 56 260 56 264 q 58 232 56 244 q 61 208 61 219 l 60 196 q 56 151 57 183 q 52 82 56 119 q 42 11 49 44 q 38 -25 38 -7 q 49 -65 38 -46 q 64 -98 60 -83 q 71 -133 68 -112 q 82 -193 74 -154 q 99 -207 89 -207 q 110 -203 106 -207 q 117 -192 115 -200 q 119 -176 118 -185 q 125 -137 125 -157 l 124 -114 q 133 -90 124 -96 q 161 -85 142 -85 q 189 -89 182 -85 q 204 -93 196 -93 q 269 -61 221 -93 q 328 -89 283 -78 q 413 -100 374 -100 l 447 -97 q 467 -119 464 -97 q 471 -140 467 -131 q 503 -260 503 -233 l 501 -281 l 504 -315 q 521 -331 507 -331 m 347 97 l 297 99 q 281 110 283 99 q 283 121 281 115 q 285 132 285 126 l 282 150 q 279 185 279 168 q 281 215 279 203 q 283 243 283 226 l 283 247 q 292 210 292 228 q 290 184 292 196 q 289 165 289 172 q 293 149 289 154 q 310 143 297 143 q 331 160 326 143 q 335 201 335 178 q 341 243 336 224 q 365 263 346 263 q 381 260 372 263 q 429 232 413 249 q 446 186 446 215 q 347 97 443 97 m 299 496 q 290 510 290 496 l 290 526 q 288 563 290 547 q 286 593 286 578 l 288 626 l 286 649 q 310 678 286 678 q 338 663 325 678 q 351 608 351 647 l 351 599 q 369 571 351 571 q 388 585 383 571 q 393 631 393 600 q 406 603 399 622 q 414 569 414 585 q 408 557 414 561 q 379 532 390 547 q 314 499 353 500 l 299 496 z "},"c":{"ha":708,"x_min":28,"x_max":681,"o":"m 636 -292 q 656 -269 649 -292 l 658 -231 q 679 -26 658 -121 l 681 -10 q 676 13 681 4 q 662 34 671 22 q 641 66 653 46 q 618 122 629 86 q 597 150 613 139 q 569 161 582 161 q 558 158 563 161 q 482 120 529 140 q 397 100 435 100 q 351 121 367 100 q 333 142 342 138 q 317 149 325 147 q 293 176 300 153 q 276 210 286 200 q 261 250 265 221 q 250 383 250 308 q 256 438 250 421 q 260 481 260 463 q 321 617 264 578 l 331 625 q 424 665 372 665 q 511 644 465 665 q 526 597 526 632 q 524 547 526 574 q 521 494 521 519 q 526 455 521 471 q 550 439 532 439 q 583 475 583 440 q 581 503 583 488 q 578 536 578 518 q 590 586 578 561 q 617 611 601 611 q 632 606 624 611 q 646 600 640 600 q 663 613 656 600 q 672 663 672 632 l 672 674 q 676 718 672 696 q 679 739 679 729 q 651 794 679 771 q 432 872 551 872 q 354 863 393 872 q 333 861 344 861 q 310 858 321 861 q 205 799 251 835 q 147 743 158 763 q 115 696 132 718 q 61 601 82 653 l 51 576 q 28 424 28 518 q 32 313 28 367 q 36 214 36 268 l 33 182 q 64 113 33 113 l 72 114 q 107 50 93 114 q 117 24 111 33 q 132 -24 125 0 q 139 -72 139 -47 l 138 -87 l 139 -118 q 150 -162 139 -142 q 172 -178 161 -178 q 193 -128 193 -178 q 197 -96 194 -107 q 222 -79 201 -79 q 243 -90 231 -79 q 271 -104 256 -100 q 428 -117 369 -117 q 486 -114 463 -117 l 517 -114 q 553 -120 539 -114 q 582 -148 568 -126 q 601 -187 596 -169 q 606 -217 606 -204 l 604 -244 q 613 -275 604 -258 q 636 -292 621 -292 z "},"d":{"ha":803,"x_min":28,"x_max":775,"o":"m 618 -371 q 635 -332 635 -368 q 633 -295 635 -315 q 631 -256 631 -275 l 632 -235 l 643 -167 q 696 71 664 15 l 699 75 q 744 185 735 124 q 751 192 749 192 q 775 215 775 192 q 771 265 775 238 q 767 326 767 293 q 769 355 767 343 q 771 394 771 367 q 763 460 765 426 q 750 546 758 503 q 673 731 719 665 q 587 822 626 797 q 538 847 547 847 q 533 849 535 847 q 406 865 472 865 q 288 826 332 865 q 276 821 281 821 q 264 829 269 821 q 200 860 240 860 q 171 858 185 860 q 143 857 157 857 q 71 806 89 854 q 60 789 68 797 q 53 769 53 781 q 50 709 53 735 q 47 657 47 683 l 49 632 l 50 588 q 56 525 50 556 q 58 494 58 510 q 40 378 58 438 q 28 303 28 332 q 41 275 28 281 q 54 253 54 269 l 56 168 l 54 -43 q 64 -107 64 -74 l 64 -151 q 71 -204 64 -179 q 93 -221 81 -221 q 114 -192 114 -221 q 140 -126 114 -162 l 140 -125 q 178 -97 157 -97 q 195 -100 186 -97 q 213 -103 204 -103 q 229 -99 221 -103 q 278 -78 263 -87 q 285 -74 281 -74 q 290 -76 288 -74 q 329 -96 308 -89 l 349 -103 q 414 -117 383 -117 q 499 -100 444 -117 q 542 -89 524 -89 q 569 -118 563 -89 l 589 -210 q 593 -286 592 -236 l 592 -321 q 596 -355 592 -339 q 618 -371 600 -371 m 390 165 l 356 167 q 335 169 340 167 q 329 183 329 171 l 329 199 l 326 299 q 319 503 319 446 q 324 557 319 550 q 338 512 332 543 q 347 449 344 481 q 350 409 350 418 q 351 396 350 400 q 356 390 353 392 q 360 385 358 388 q 365 380 363 382 q 372 378 368 378 q 390 400 389 381 q 396 501 392 472 q 399 561 399 525 q 403 585 399 574 q 408 594 404 588 q 419 601 411 601 q 473 553 440 601 q 506 442 506 504 l 504 408 q 507 385 504 392 q 510 369 510 378 q 489 299 510 349 q 480 263 482 279 q 472 232 478 246 q 446 206 465 218 q 431 190 438 199 q 415 173 424 181 q 390 165 406 165 z "},"e":{"ha":717,"x_min":28,"x_max":688,"o":"m 140 -447 q 165 -415 153 -447 q 172 -360 172 -387 l 172 -350 l 174 -312 q 198 -183 183 -228 q 233 -123 213 -139 q 279 -107 253 -107 q 328 -112 301 -107 q 400 -119 360 -119 q 426 -122 414 -119 q 449 -124 438 -124 q 469 -122 460 -124 q 494 -121 478 -121 q 550 -124 522 -121 q 569 -125 558 -125 q 585 -127 579 -125 q 592 -138 590 -129 q 597 -158 594 -147 q 607 -210 607 -183 q 603 -235 607 -222 q 600 -257 600 -247 q 609 -283 600 -274 q 631 -293 618 -293 q 657 -278 644 -293 q 674 -232 669 -264 q 686 -36 686 -106 q 674 56 686 26 q 632 103 661 86 q 558 122 610 115 q 474 128 507 128 q 432 125 449 126 q 396 124 415 124 q 325 137 340 124 q 310 171 310 150 q 312 195 310 182 q 314 224 314 208 q 310 246 314 238 l 308 257 q 315 264 308 264 q 328 260 322 263 q 340 258 333 258 q 357 262 349 258 q 380 269 365 265 q 431 272 394 272 q 443 264 443 272 q 441 244 443 254 q 439 222 439 235 q 461 193 439 193 q 477 201 475 193 q 479 221 479 210 l 479 232 q 490 304 479 271 q 507 385 507 342 l 507 439 q 489 483 507 474 q 447 493 471 493 l 411 492 q 380 495 390 492 q 361 499 369 499 q 329 493 340 499 q 319 490 324 490 q 314 500 315 490 q 309 532 313 515 q 306 567 306 549 q 310 593 306 581 l 310 610 q 335 631 310 631 q 365 625 350 629 q 394 621 381 621 q 407 622 401 621 q 456 628 431 628 l 501 628 q 524 625 513 628 q 549 622 536 622 q 563 624 558 622 q 574 626 568 625 q 586 592 586 626 q 583 548 586 574 q 581 499 581 522 q 604 449 581 450 q 626 463 621 449 q 633 492 632 476 q 669 656 649 604 q 682 701 676 679 q 688 749 688 722 l 688 767 q 681 828 688 799 q 643 864 675 858 q 572 868 600 868 q 512 863 528 868 q 478 858 496 858 q 377 856 407 858 q 314 854 347 854 q 207 860 244 854 q 158 863 181 863 q 85 846 122 863 q 52 814 58 832 q 46 778 46 796 l 46 771 q 40 729 46 757 q 31 651 31 675 q 44 629 31 629 l 50 629 q 60 622 58 629 q 58 611 58 619 l 57 603 q 60 572 57 588 q 64 539 64 556 q 61 455 63 517 q 57 335 60 393 l 56 267 q 58 241 56 254 q 61 204 61 228 q 50 88 51 129 q 45 38 49 57 q 32 1 42 18 q 28 -12 28 -6 q 33 -36 28 -25 q 58 -105 54 -93 q 63 -122 61 -117 q 72 -133 65 -128 q 95 -180 90 -154 q 100 -239 100 -206 l 100 -247 q 115 -371 100 -296 l 114 -393 q 140 -447 114 -447 z "},"f":{"ha":719,"x_min":28,"x_max":692,"o":"m 286 -292 q 301 -281 296 -292 q 306 -256 306 -269 q 303 -222 306 -242 q 301 -174 301 -201 q 311 -97 301 -139 q 318 -56 318 -71 q 313 -24 318 -36 q 308 10 308 -12 q 314 54 308 26 q 322 121 322 88 l 324 189 q 322 209 324 201 q 319 224 319 217 q 325 243 319 229 q 339 267 331 257 q 368 276 347 276 q 426 274 421 276 q 432 261 431 271 q 433 232 433 251 l 432 168 q 436 146 432 153 q 454 139 440 139 q 472 152 468 139 q 475 179 475 165 l 475 186 q 504 283 482 256 q 516 304 511 292 q 522 357 521 317 q 526 408 522 382 l 528 424 q 479 482 528 469 q 421 488 447 488 q 380 486 397 488 q 351 485 363 485 q 319 506 322 485 l 318 535 q 313 583 318 560 l 313 593 q 331 619 313 617 q 371 624 350 621 q 414 628 392 628 q 454 622 433 628 q 574 619 457 621 q 599 619 594 619 q 605 619 603 619 q 609 615 607 618 q 614 608 611 613 q 635 561 635 581 q 632 544 633 551 q 630 532 631 538 q 629 517 629 526 q 647 489 629 490 q 664 506 660 489 q 676 583 676 558 l 674 624 q 678 654 674 636 q 682 697 682 672 l 682 715 q 687 749 682 733 q 692 776 692 764 q 669 833 692 811 q 624 856 646 856 q 597 851 608 856 q 576 847 585 847 l 568 849 q 503 861 536 861 q 433 856 469 861 q 383 850 404 850 q 338 854 351 850 q 308 858 324 858 l 260 857 q 186 861 215 857 l 140 865 q 75 839 100 865 q 39 772 50 813 q 28 686 28 731 q 32 663 28 671 q 49 654 36 656 q 56 658 53 654 q 62 665 60 661 q 65 674 64 669 q 68 649 68 661 q 67 619 68 635 q 65 585 65 603 q 74 536 65 561 q 76 507 74 535 q 79 440 78 479 q 81 367 81 401 q 78 299 81 319 q 75 256 75 278 l 76 157 q 72 108 76 121 q 68 78 68 94 l 69 60 q 60 7 60 32 l 56 -44 q 65 -99 56 -72 q 74 -154 74 -126 q 78 -174 74 -161 q 89 -199 82 -187 q 107 -210 96 -210 q 119 -203 117 -208 q 121 -190 121 -199 q 124 -165 121 -181 q 138 -125 126 -149 q 156 -112 144 -112 q 171 -115 161 -112 q 214 -119 185 -119 l 233 -118 q 256 -137 254 -118 q 258 -171 257 -156 q 263 -215 263 -193 l 263 -239 q 271 -281 263 -260 q 286 -292 278 -292 z "},"g":{"ha":843,"x_min":28,"x_max":815,"o":"m 686 -293 q 702 -281 694 -293 q 710 -244 710 -268 q 715 -154 710 -199 q 719 -65 719 -110 l 718 -37 q 729 6 718 -28 q 753 76 740 39 q 781 168 778 150 l 782 172 q 790 185 782 185 l 800 182 q 811 193 807 182 q 815 219 815 204 l 814 238 q 803 342 803 304 q 804 374 803 361 q 806 400 806 388 q 799 442 806 419 q 778 472 793 465 q 743 479 763 479 l 706 478 q 671 482 692 478 q 653 478 661 482 q 635 474 644 474 q 611 476 625 474 q 571 479 597 479 q 527 475 551 479 q 492 448 503 471 q 482 401 482 425 l 483 383 q 494 272 494 310 q 499 232 494 244 q 518 219 503 219 q 535 249 531 219 q 544 280 538 265 q 574 294 550 294 q 595 292 589 294 q 601 281 601 290 l 600 268 q 585 207 600 233 q 576 188 579 199 q 558 157 571 169 q 454 108 507 108 q 429 111 442 108 q 322 175 351 132 q 283 258 293 218 q 267 299 276 285 q 263 311 263 303 l 264 325 q 263 336 264 331 q 261 350 261 342 q 259 380 261 367 q 257 414 257 393 q 286 549 257 454 l 290 563 q 306 599 294 581 q 310 529 310 576 q 329 493 310 493 q 344 506 342 493 q 356 558 351 529 q 374 635 360 586 q 402 672 381 657 q 449 688 424 688 q 518 660 471 688 q 593 563 593 614 l 592 543 q 597 529 592 535 q 610 524 603 524 q 633 549 626 524 q 643 606 639 574 q 657 674 647 647 q 663 651 660 663 q 675 640 665 640 q 687 651 683 640 q 690 707 690 661 l 690 761 q 669 804 690 785 q 576 858 647 824 q 450 885 517 885 q 338 872 393 885 q 313 863 324 869 q 288 854 301 856 q 203 804 240 844 q 67 575 101 697 l 58 553 q 46 508 46 533 q 33 344 43 400 q 28 293 28 313 q 47 261 28 265 q 54 251 54 258 q 56 250 54 250 q 100 114 82 136 q 136 24 133 74 l 139 -8 q 140 -71 140 -29 q 164 -112 140 -112 q 179 -100 175 -112 q 188 -40 183 -87 q 196 -22 189 -22 q 221 -42 207 -22 q 342 -112 244 -76 q 383 -118 363 -118 q 432 -114 408 -118 q 468 -110 449 -111 q 483 -111 476 -110 q 499 -112 490 -112 q 547 -98 526 -107 q 596 -82 567 -89 l 597 -82 q 657 -51 640 -75 q 665 -99 658 -74 l 665 -108 l 664 -135 q 660 -225 661 -162 q 668 -276 660 -260 q 686 -293 676 -293 z "},"h":{"ha":749,"x_min":28,"x_max":721,"o":"m 679 -253 q 694 -236 689 -253 q 702 -195 700 -211 q 704 -115 704 -179 q 710 -61 710 -76 q 707 -40 710 -50 q 696 119 697 18 q 692 439 694 129 q 703 450 692 450 q 713 453 707 451 q 721 478 718 456 q 717 511 721 485 q 701 707 701 633 q 706 778 701 751 q 707 808 707 792 q 692 853 707 833 q 651 874 676 874 l 592 876 q 517 864 554 876 q 485 844 494 857 q 475 807 475 832 q 469 726 475 749 q 467 706 467 714 q 481 683 467 693 q 482 675 482 682 l 481 671 l 482 615 q 485 585 482 599 q 488 560 488 571 q 439 521 488 524 l 388 521 q 328 532 340 521 q 315 583 315 543 l 317 685 q 313 778 315 763 q 308 828 308 799 q 281 866 308 857 q 222 875 254 875 q 202 873 213 875 q 179 871 192 871 q 156 872 168 871 q 131 874 143 874 q 93 863 110 874 q 40 795 53 829 q 28 728 28 761 q 32 669 28 690 q 34 597 32 613 q 47 582 36 582 q 59 587 54 582 q 65 601 64 592 q 69 620 65 610 q 75 640 72 631 q 81 536 81 604 q 78 422 81 485 q 76 304 76 360 q 79 235 76 263 q 76 128 79 175 q 63 -8 69 38 q 58 -56 58 -32 q 61 -111 58 -83 q 64 -167 64 -139 l 63 -190 q 79 -218 63 -218 q 95 -209 88 -218 q 103 -185 103 -200 q 113 -121 103 -151 l 119 -79 q 129 -68 122 -68 q 138 -71 133 -68 q 171 -79 154 -79 l 196 -78 q 238 -103 229 -78 q 249 -156 246 -128 q 253 -186 250 -174 q 265 -199 256 -199 q 280 -191 278 -197 q 285 -142 282 -185 q 308 81 303 17 q 313 225 313 139 q 315 256 313 244 q 328 276 317 267 q 338 252 336 265 q 340 222 340 239 q 343 199 340 206 q 356 192 346 192 q 370 203 367 192 q 374 231 374 214 q 381 264 375 247 q 422 288 388 288 q 468 266 451 288 q 485 219 485 244 l 483 192 q 485 135 483 163 q 488 79 488 107 q 485 40 488 58 q 483 1 483 21 q 493 -103 483 -50 q 497 -164 493 -158 q 511 -169 500 -169 q 526 -158 521 -169 q 535 -115 531 -147 q 557 -90 542 -90 q 617 -101 592 -90 q 641 -122 636 -112 q 646 -145 646 -132 q 653 -181 646 -158 q 656 -215 656 -190 q 663 -242 656 -231 q 679 -253 671 -253 z "},"i":{"ha":335,"x_min":28,"x_max":307,"o":"m 82 -312 q 95 -297 92 -312 q 99 -242 99 -281 l 97 -226 q 111 -162 97 -194 l 119 -133 q 131 -125 122 -125 l 188 -122 q 205 -125 201 -122 q 213 -179 208 -128 l 217 -219 q 227 -249 219 -242 q 240 -257 235 -257 q 253 -244 249 -257 q 275 -101 275 -160 l 275 -79 q 278 -69 275 -74 q 290 -37 290 -56 q 283 3 290 -19 q 271 78 274 31 q 274 119 271 99 q 276 163 276 140 l 275 185 q 288 199 275 194 q 307 224 307 204 l 300 279 q 290 342 299 311 q 276 411 276 376 q 278 433 276 421 q 281 482 281 446 q 277 599 281 531 q 274 714 274 667 q 277 765 274 754 q 281 790 281 776 q 269 841 281 817 q 233 865 258 865 q 212 862 221 864 q 185 860 203 860 q 138 865 158 860 q 104 869 118 869 q 65 853 81 869 q 40 815 49 836 q 32 781 32 793 l 33 757 q 38 699 38 739 q 29 600 38 663 l 28 578 q 36 552 28 560 q 44 531 44 544 l 44 399 q 47 269 44 321 l 47 239 q 46 221 47 229 q 44 203 44 213 l 44 194 q 46 142 46 178 q 42 -3 46 68 l 39 -58 q 44 -118 39 -75 q 53 -200 49 -161 q 58 -251 57 -239 l 58 -269 q 66 -299 58 -286 q 82 -312 74 -312 z "},"j":{"ha":651,"x_min":28,"x_max":624,"o":"m 57 -354 q 76 -335 68 -354 q 89 -288 85 -315 q 93 -240 93 -261 l 92 -217 q 103 -169 92 -192 q 135 -122 125 -122 q 153 -131 142 -122 q 179 -143 164 -139 l 206 -149 q 271 -161 233 -154 q 346 -168 308 -168 q 425 -151 390 -168 q 442 -147 435 -147 q 472 -183 464 -147 q 483 -260 479 -218 q 492 -322 486 -296 q 511 -347 497 -347 q 526 -334 524 -346 q 529 -307 529 -322 q 532 -276 529 -292 q 539 -214 539 -239 q 538 -187 539 -200 l 538 -157 q 560 -21 538 -115 q 575 35 568 15 q 585 78 582 61 q 589 126 589 96 l 588 199 q 590 222 588 210 q 593 247 593 235 q 590 264 593 254 l 600 263 q 623 292 622 263 q 624 351 624 321 q 617 438 624 394 q 607 588 607 513 l 606 724 q 593 806 606 761 q 533 860 581 850 q 447 865 482 865 q 367 841 385 865 q 349 764 349 817 q 353 653 349 744 l 351 543 q 354 417 351 497 q 343 285 354 340 l 331 228 l 332 215 q 254 139 332 161 q 242 142 247 139 q 232 150 238 146 q 222 157 226 154 q 209 160 217 160 q 196 167 201 161 q 186 183 190 174 q 153 208 174 208 q 125 196 139 208 q 88 147 99 169 q 72 100 78 124 q 43 32 65 68 q 28 -11 28 7 q 29 -26 28 -19 q 31 -65 31 -32 l 29 -160 l 29 -307 q 36 -332 32 -325 q 57 -354 43 -354 z "},"k":{"ha":764,"x_min":28,"x_max":736,"o":"m 97 -358 q 119 -297 119 -358 l 118 -224 q 126 -169 119 -196 q 133 -114 132 -142 q 140 -100 135 -100 q 154 -104 146 -100 q 185 -112 167 -112 q 197 -110 190 -112 q 210 -108 204 -108 q 244 -135 233 -108 q 258 -265 258 -172 q 263 -288 258 -283 q 272 -293 267 -293 q 286 -278 281 -293 q 292 -215 288 -272 q 302 -69 297 -157 q 307 108 307 19 q 300 257 307 188 q 302 265 300 264 q 308 268 304 267 q 315 264 313 268 q 363 208 344 243 q 382 92 382 174 q 385 30 382 58 q 389 -26 389 1 l 388 -44 q 400 -60 388 -60 q 413 -31 413 -58 l 411 -7 l 411 24 q 436 93 411 75 l 456 51 q 507 -68 494 -32 q 567 -117 522 -117 l 608 -117 q 628 -114 614 -117 q 664 -148 654 -114 q 674 -217 674 -182 q 671 -258 672 -242 q 669 -296 669 -274 q 690 -356 669 -356 q 700 -351 696 -356 q 706 -343 704 -347 q 710 -295 710 -322 q 715 -240 710 -268 q 722 -169 722 -206 l 722 -157 q 731 -75 722 -112 q 736 -35 736 -53 q 728 6 736 -10 q 713 33 721 22 q 706 51 706 44 q 695 97 706 67 q 669 158 685 126 q 635 208 653 189 q 614 240 622 222 q 600 264 608 253 q 540 336 574 303 l 517 361 q 510 366 514 365 q 506 367 507 367 q 504 372 504 368 q 527 419 504 379 q 580 510 550 460 q 633 604 610 561 q 663 665 663 657 q 676 685 663 685 q 686 671 686 685 q 678 596 686 653 l 675 581 q 690 560 675 560 q 708 576 708 560 q 715 631 711 604 q 722 707 722 664 l 721 740 q 726 783 721 763 q 731 818 731 804 q 707 856 731 847 q 650 867 683 864 q 601 875 626 869 q 578 878 589 878 q 519 848 539 878 q 485 776 500 818 q 439 688 468 729 q 379 583 404 639 q 317 482 350 522 q 306 476 311 476 q 296 490 297 476 q 297 522 296 517 q 296 626 297 588 q 294 703 294 664 q 299 790 294 749 q 224 861 299 854 l 189 864 q 144 867 165 867 q 65 838 94 867 q 28 768 28 803 q 33 739 28 754 q 46 646 46 696 q 43 577 46 610 q 40 522 40 544 q 56 478 40 482 q 75 488 64 478 l 74 465 q 75 439 74 451 q 76 415 76 426 l 75 394 q 68 307 68 351 l 68 292 q 63 196 68 240 q 65 172 63 183 q 67 149 67 160 l 65 135 q 58 42 58 94 q 72 -168 58 -56 q 82 -311 82 -258 l 81 -339 q 97 -358 81 -358 z "},"l":{"ha":682,"x_min":28,"x_max":654,"o":"m 94 -282 q 112 -268 104 -282 q 119 -224 119 -254 l 118 -187 q 129 -132 118 -158 l 139 -100 q 144 -93 139 -93 q 178 -96 164 -96 q 209 -92 199 -96 q 240 -89 219 -89 q 277 -92 254 -89 q 319 -96 300 -96 q 368 -90 347 -96 q 432 -85 389 -85 q 511 -90 463 -85 q 560 -131 550 -99 q 570 -196 569 -164 q 586 -228 571 -228 q 604 -208 600 -228 l 621 -103 q 639 -50 629 -68 q 654 17 654 -18 q 649 58 653 44 q 642 85 644 72 q 597 122 638 113 q 496 132 557 132 l 421 131 l 382 133 q 359 129 371 133 q 335 125 347 125 l 294 126 q 286 135 286 126 q 281 164 285 149 q 276 196 276 179 l 278 256 q 272 340 278 310 q 269 368 269 354 l 271 388 q 274 424 274 403 q 272 466 274 447 q 269 499 269 485 q 281 526 269 521 q 290 531 286 528 q 293 561 293 535 l 285 819 q 232 879 279 879 q 213 876 224 878 q 185 875 203 875 l 125 876 q 53 857 67 876 q 43 825 43 844 q 48 784 43 808 q 53 729 53 760 q 50 681 53 704 q 47 640 47 658 l 50 549 q 31 358 50 488 q 28 335 28 344 q 40 306 28 315 l 47 297 q 54 238 54 288 q 50 171 54 197 q 46 121 46 144 q 48 94 46 104 q 51 72 50 83 q 48 46 51 58 q 44 18 44 33 q 51 -64 44 -17 q 67 -237 63 -128 q 76 -270 68 -258 q 94 -282 85 -282 z "},"m":{"ha":783,"x_min":28,"x_max":756,"o":"m 60 -279 q 71 -275 65 -279 q 83 -201 83 -264 q 88 -147 83 -174 q 149 -89 94 -89 q 200 -106 193 -93 q 207 -131 207 -118 l 207 -136 q 211 -160 207 -150 q 214 -165 213 -161 q 218 -172 215 -168 q 228 -175 221 -175 q 244 -162 240 -174 q 251 -124 249 -150 q 261 -54 253 -99 q 272 5 268 -25 q 282 63 276 35 q 288 117 288 92 q 293 168 289 143 q 301 257 301 215 l 300 272 q 311 325 300 292 q 353 250 322 322 q 368 196 368 214 q 389 168 374 168 q 403 181 399 168 q 419 222 408 204 q 447 272 431 239 q 482 335 463 306 q 494 175 494 322 q 496 67 494 118 q 506 -10 497 15 q 501 -21 506 -12 q 489 -81 489 -50 l 489 -96 q 494 -189 494 -150 l 494 -203 q 497 -252 494 -235 q 514 -271 500 -269 q 524 -266 522 -271 q 527 -257 526 -261 q 529 -250 528 -253 l 529 -247 q 531 -219 531 -244 q 546 -115 531 -167 q 558 -94 550 -100 q 583 -89 567 -89 q 609 -90 593 -89 q 651 -92 625 -92 l 676 -90 q 717 -178 717 -90 l 715 -200 q 718 -215 715 -211 q 729 -219 721 -219 q 740 -212 738 -219 q 745 -188 743 -206 q 753 -142 747 -171 q 756 -110 756 -129 q 748 -6 756 -65 q 735 80 740 54 q 731 151 731 106 q 725 226 731 210 l 724 244 q 731 267 724 256 q 738 297 738 278 q 729 356 738 321 q 715 463 719 400 q 710 571 715 526 q 713 586 710 579 q 715 601 715 593 q 710 654 710 624 q 713 718 710 685 q 717 783 717 751 q 703 856 717 824 q 657 889 690 889 q 619 886 643 886 q 578 888 593 886 q 549 892 564 890 q 485 840 503 892 q 481 819 482 831 q 453 736 474 776 q 442 708 442 719 q 446 692 442 700 q 450 674 450 685 q 447 658 450 667 q 410 536 415 560 q 405 521 407 526 q 399 515 403 515 q 378 528 383 517 q 372 555 374 540 q 365 583 371 569 q 347 654 351 617 q 333 714 342 686 q 319 767 324 742 q 301 831 313 799 q 288 863 289 863 q 278 874 288 874 q 241 877 258 874 q 207 881 224 881 q 174 876 188 879 q 122 874 160 874 q 71 818 71 874 q 65 725 71 750 q 63 688 63 706 q 71 642 63 668 q 79 596 79 615 q 77 571 79 581 q 75 554 75 561 q 78 543 75 547 q 83 533 81 539 q 79 506 83 525 l 65 453 q 28 229 36 343 q 50 204 28 204 q 64 178 64 204 q 60 140 64 161 q 57 104 57 118 q 44 0 57 33 q 33 -78 33 -26 q 44 -262 33 -133 q 49 -275 44 -271 q 60 -279 54 -279 z "},"n":{"ha":707,"x_min":28,"x_max":679,"o":"m 222 -286 q 236 -274 232 -283 q 240 -203 240 -264 q 239 -143 240 -164 l 238 -118 q 251 -87 238 -96 q 264 -53 264 -78 l 261 -17 q 264 61 261 35 q 267 124 267 81 l 265 143 q 281 189 265 167 q 281 191 281 190 q 282 201 282 192 l 282 283 l 286 279 q 310 238 310 253 q 321 193 311 222 q 355 88 347 113 q 363 58 363 64 q 379 36 363 36 q 389 40 386 36 q 394 51 392 44 q 400 63 396 57 q 419 24 411 43 l 439 -12 q 454 -47 450 -29 q 456 -68 454 -58 q 460 -103 460 -86 l 458 -124 q 462 -172 458 -147 q 465 -221 465 -196 l 464 -235 q 478 -249 464 -249 q 493 -215 493 -249 l 492 -181 q 505 -117 492 -143 q 567 -89 518 -92 q 604 -125 604 -89 l 603 -156 q 618 -176 603 -175 q 638 -153 633 -176 q 660 14 660 -36 q 658 47 660 35 l 658 61 q 675 86 658 79 q 677 90 676 88 q 679 96 678 93 l 679 175 q 674 200 678 193 q 668 239 668 217 q 662 344 664 322 q 660 392 660 365 l 661 456 q 665 635 664 511 q 674 751 668 703 q 678 814 678 789 q 668 858 678 842 q 631 876 658 875 q 615 874 622 876 q 600 872 607 872 l 592 874 q 554 879 572 879 l 521 878 q 504 879 508 878 l 496 879 q 463 860 472 879 q 444 751 444 828 q 438 685 443 710 q 432 643 432 661 q 436 567 432 621 q 439 521 439 556 q 442 469 439 496 q 436 463 442 465 q 397 535 408 493 q 380 570 390 551 q 363 610 369 589 q 351 643 356 632 q 341 662 346 654 q 331 683 336 669 q 317 726 325 697 q 294 813 308 756 q 264 853 288 832 q 221 875 240 875 q 161 872 190 872 q 92 867 126 872 q 51 835 58 863 q 44 749 44 808 q 31 547 44 632 q 28 519 28 535 q 32 494 28 506 q 45 481 36 482 q 56 476 54 479 q 58 465 58 472 l 60 464 q 61 403 61 443 q 56 190 61 319 q 44 -47 51 60 q 33 -178 38 -153 q 31 -199 31 -189 q 42 -237 31 -224 q 65 -251 54 -251 q 82 -222 82 -251 q 80 -192 82 -201 q 78 -172 78 -183 q 101 -97 78 -104 q 129 -93 114 -93 q 156 -99 144 -93 q 181 -104 167 -104 l 189 -103 q 199 -112 199 -103 q 193 -210 199 -187 l 192 -236 q 222 -286 192 -286 z "},"o":{"ha":765,"x_min":28,"x_max":738,"o":"m 619 -424 q 636 -393 636 -424 l 635 -333 q 638 -206 635 -271 q 642 -68 640 -142 q 657 24 642 -32 q 658 27 658 25 q 660 31 658 29 q 664 33 661 33 q 674 30 669 32 q 683 28 678 28 q 701 43 696 28 q 707 79 706 58 q 708 120 708 100 q 710 150 708 140 q 738 381 738 272 q 706 619 738 514 q 625 782 674 724 q 549 847 599 815 q 463 879 499 879 l 414 879 q 309 865 364 879 q 189 779 254 851 q 149 719 168 756 q 117 651 131 683 q 99 604 103 618 q 67 483 83 542 q 40 374 51 424 q 28 290 28 324 q 58 246 28 246 q 63 242 61 246 q 67 218 64 239 q 79 147 69 197 l 93 86 q 131 -186 131 -81 l 129 -208 q 140 -251 129 -237 q 161 -265 150 -265 q 182 -237 178 -265 l 181 -226 q 192 -144 181 -185 l 197 -111 q 219 -76 203 -76 q 253 -89 232 -76 q 381 -117 290 -110 q 483 -107 453 -117 q 529 -84 513 -97 q 557 -71 546 -71 q 588 -113 582 -71 q 594 -212 594 -156 l 593 -312 q 617 -422 593 -419 l 619 -424 m 382 97 q 349 113 364 97 q 333 151 333 128 q 327 189 333 175 q 315 213 321 203 q 304 240 304 225 q 308 260 304 249 q 313 285 313 271 l 307 343 q 306 395 307 374 q 304 432 304 417 q 307 463 304 447 l 315 533 q 325 489 324 514 q 329 460 325 474 q 347 446 333 446 q 364 464 361 446 q 365 492 365 476 l 365 518 q 374 591 365 554 q 426 640 383 628 q 449 633 436 640 q 483 603 478 615 q 506 422 506 529 q 446 133 506 199 q 382 97 413 97 z "},"p":{"ha":738,"x_min":28,"x_max":710,"o":"m 250 -344 q 274 -322 268 -344 q 279 -264 279 -299 q 276 -179 279 -224 q 272 -101 272 -135 q 275 -69 272 -81 q 278 -46 278 -57 q 273 -24 278 -33 q 268 11 268 -15 q 271 113 271 44 q 278 181 272 157 q 285 229 285 204 q 283 249 285 242 q 281 263 281 256 q 285 274 281 268 q 300 279 290 279 l 324 278 q 420 283 358 278 q 524 300 482 288 q 539 304 533 304 q 549 295 546 304 q 551 257 551 286 l 550 243 q 553 226 550 235 q 565 158 565 181 q 569 138 567 144 q 582 132 571 132 q 594 156 594 132 l 593 188 q 599 223 593 208 q 606 254 606 238 l 604 275 q 613 317 604 300 q 635 353 622 335 q 669 409 651 375 q 698 501 686 443 q 710 597 710 560 q 702 660 710 636 q 685 703 694 685 q 669 739 676 721 q 515 848 639 811 q 265 885 392 885 q 93 861 164 885 q 58 806 58 846 q 60 790 58 797 q 62 767 61 782 q 63 719 63 753 q 60 592 63 664 q 56 469 57 521 l 53 418 l 54 381 q 38 232 54 319 q 28 167 28 192 q 43 133 28 143 q 47 121 47 129 q 44 97 47 111 q 39 -1 39 68 q 33 -67 39 -39 q 36 -81 33 -74 l 36 -82 q 49 -139 47 -115 q 51 -185 51 -162 q 56 -240 51 -208 q 74 -256 58 -256 q 92 -231 86 -256 q 93 -219 93 -228 q 96 -176 93 -203 q 110 -128 99 -150 q 149 -107 122 -107 q 197 -114 174 -108 q 210 -117 203 -115 q 221 -126 218 -118 q 231 -231 231 -186 q 229 -278 231 -257 l 229 -307 q 250 -344 229 -344 m 388 463 q 365 465 374 463 q 350 468 357 468 l 336 468 q 297 483 306 468 q 289 524 289 499 q 290 555 289 538 q 292 592 292 572 l 290 617 q 296 624 290 621 q 303 586 303 608 l 303 549 q 304 544 304 547 q 307 535 304 540 q 317 529 310 529 q 338 540 333 529 q 343 578 342 550 l 344 596 q 399 658 353 658 q 458 629 433 658 q 483 561 483 600 q 451 490 483 522 q 388 463 411 463 z "},"q":{"ha":742,"x_min":28,"x_max":713,"o":"m 661 -356 q 683 -339 674 -356 q 701 -219 701 -290 l 701 -178 q 711 -76 701 -118 l 713 -65 q 706 -44 713 -53 q 694 -25 700 -35 q 668 8 685 -7 q 657 24 661 15 q 636 44 647 40 q 633 51 633 46 q 641 72 638 60 q 651 94 644 83 q 673 112 657 106 q 692 148 689 118 q 696 221 696 178 q 699 299 696 258 q 704 363 703 340 l 707 407 q 706 433 707 424 q 696 563 699 499 q 689 604 694 583 q 682 631 685 617 q 621 765 669 714 l 610 779 q 518 864 563 843 q 385 890 467 886 q 258 856 324 890 q 136 743 193 821 q 60 508 82 661 l 39 386 q 28 308 28 332 q 46 279 28 283 q 55 270 54 274 q 57 261 56 267 q 86 121 57 224 q 91 110 88 115 q 94 99 94 104 l 93 92 q 103 52 93 68 q 128 21 114 36 q 162 -31 146 0 q 179 -114 178 -61 q 176 -210 179 -162 q 172 -279 172 -249 q 196 -339 172 -339 q 218 -293 218 -339 q 216 -253 218 -274 q 214 -211 214 -233 q 221 -149 214 -179 q 228 -79 228 -118 q 232 -72 228 -72 q 239 -78 235 -72 q 274 -96 250 -90 q 324 -105 299 -101 q 365 -113 349 -108 q 399 -118 382 -118 q 436 -101 418 -118 q 440 -99 439 -99 q 447 -103 443 -99 l 449 -104 q 474 -133 464 -115 q 503 -162 483 -150 q 521 -185 521 -169 q 527 -236 521 -211 q 533 -289 533 -261 q 537 -306 533 -301 q 550 -311 540 -311 q 568 -278 568 -311 q 566 -256 568 -268 q 564 -231 564 -244 q 576 -179 564 -207 q 629 -118 589 -151 q 650 -207 650 -160 q 647 -267 650 -237 q 643 -326 643 -297 q 661 -356 643 -356 m 329 222 q 313 239 321 222 q 301 278 306 256 q 297 319 297 301 q 301 361 297 340 q 308 425 308 400 l 307 460 q 312 503 307 479 q 319 553 317 528 q 346 644 329 631 q 360 664 354 651 q 369 615 369 642 l 367 557 q 383 524 367 526 q 400 534 394 524 q 407 558 406 544 q 408 581 408 572 l 407 597 q 417 636 407 618 q 421 651 418 643 q 428 658 424 658 q 442 649 435 658 q 454 628 449 640 q 464 604 460 615 q 488 425 488 500 q 476 303 488 350 q 471 251 471 272 l 471 243 l 460 253 q 415 279 432 279 q 388 271 401 279 q 363 252 374 263 q 347 236 351 242 q 329 222 338 222 z "},"r":{"ha":726,"x_min":28,"x_max":699,"o":"m 71 -385 q 87 -372 83 -385 q 90 -335 90 -360 l 89 -262 q 96 -158 89 -218 q 119 -124 97 -124 q 142 -128 128 -124 q 171 -133 157 -133 l 200 -131 q 227 -152 219 -131 q 247 -174 235 -174 q 262 -166 256 -174 q 268 -147 268 -158 q 276 -103 269 -125 q 282 -58 282 -81 l 282 -35 q 289 81 282 14 q 296 190 296 149 q 293 219 296 210 q 324 174 308 206 q 367 53 361 100 l 369 39 q 385 13 376 13 q 411 -12 406 11 l 415 -22 q 456 -210 453 -103 q 458 -231 457 -228 q 467 -236 460 -235 q 482 -222 481 -236 l 481 -203 q 485 -162 481 -181 q 492 -126 490 -144 q 500 -115 493 -115 l 510 -117 q 528 -115 517 -117 q 551 -114 540 -114 q 601 -172 601 -114 q 597 -199 601 -186 q 592 -236 592 -212 q 610 -265 592 -265 q 628 -249 622 -265 q 640 -165 640 -192 q 644 -139 642 -150 q 657 -117 647 -128 q 660 -107 660 -114 q 643 -42 660 -93 q 635 -15 639 -32 q 547 207 586 149 q 531 238 538 219 q 525 269 525 257 q 541 297 525 286 q 572 307 557 307 q 594 289 586 307 q 607 225 601 271 q 621 211 608 211 q 635 225 635 211 l 635 242 q 663 382 635 285 q 688 477 676 428 q 699 576 699 526 q 579 804 699 715 q 529 825 556 819 l 506 833 q 358 865 421 865 l 296 864 q 247 865 267 864 q 210 867 226 867 q 160 860 185 867 q 125 854 143 856 q 83 846 101 854 q 60 807 64 838 q 47 704 47 729 q 49 687 47 693 q 50 665 50 681 q 43 597 47 625 q 39 519 39 568 q 40 493 39 506 q 42 467 42 481 q 33 396 42 431 q 28 347 28 368 q 46 311 28 322 q 50 303 50 308 q 46 257 49 272 q 40 156 42 232 l 39 29 q 36 -33 39 -3 l 35 -75 q 44 -180 35 -133 q 54 -281 54 -226 q 51 -324 54 -307 l 49 -350 q 71 -385 49 -385 m 304 451 q 295 458 297 451 q 293 485 293 464 l 296 590 q 313 629 296 608 q 350 654 329 650 q 381 646 363 654 q 409 624 400 638 q 418 550 418 610 l 417 521 q 423 501 417 508 q 436 494 429 494 q 458 524 451 494 l 463 544 q 468 583 468 564 l 467 593 q 469 598 467 596 q 471 601 471 600 q 479 558 479 576 q 460 493 479 536 q 439 464 449 468 q 415 460 429 460 l 379 461 q 304 451 361 461 z "},"s":{"ha":679,"x_min":29,"x_max":651,"o":"m 57 -272 q 78 -249 74 -272 q 83 -193 83 -225 l 83 -151 l 82 -115 q 94 -67 82 -67 q 107 -72 100 -67 q 164 -156 151 -111 q 189 -187 172 -187 q 199 -183 194 -187 q 204 -168 204 -178 q 212 -134 206 -142 q 226 -126 218 -126 q 241 -128 233 -126 q 257 -131 249 -131 q 333 -122 296 -122 l 410 -124 q 450 -118 438 -124 q 483 -104 463 -112 l 522 -86 l 531 -85 q 541 -96 539 -85 q 543 -133 543 -107 q 547 -181 543 -167 q 567 -197 551 -196 q 593 -162 589 -197 l 622 32 q 629 56 624 46 q 640 101 635 67 l 649 147 l 650 181 l 651 239 q 622 335 651 294 q 550 408 592 376 q 463 457 522 431 q 357 483 403 483 q 338 483 342 483 q 329 481 335 482 q 285 500 308 481 q 263 554 263 519 q 282 614 263 579 q 300 568 282 568 q 314 579 311 568 l 321 614 q 351 665 332 665 q 379 657 365 663 q 453 622 419 650 q 472 585 468 606 q 476 513 476 564 q 480 488 476 497 q 496 478 483 479 q 511 497 511 478 l 511 501 q 517 525 511 511 q 547 554 522 539 q 558 559 551 556 q 572 568 564 563 q 586 585 581 574 q 592 590 589 590 q 599 584 596 590 q 603 569 601 578 q 604 556 604 561 q 603 535 604 544 q 601 518 601 526 q 606 498 603 504 q 617 492 608 492 q 638 522 633 492 q 642 599 642 551 l 640 683 l 642 694 l 642 719 q 624 769 642 746 q 581 801 607 793 q 560 818 572 806 q 492 856 526 856 q 431 860 449 856 q 365 864 413 864 q 257 851 293 864 q 211 840 235 843 q 172 821 201 839 q 69 689 92 771 l 56 638 q 40 568 40 599 q 49 513 40 542 q 63 400 58 472 q 73 376 64 382 q 92 370 82 371 q 107 364 101 369 q 147 327 121 340 q 201 304 174 314 q 258 276 242 293 q 275 222 272 257 q 296 188 278 188 q 310 192 307 188 q 314 208 314 197 l 314 232 q 319 267 314 247 q 329 278 321 278 q 371 267 351 275 q 397 257 383 261 q 417 233 410 253 q 425 189 425 214 q 410 131 425 158 q 358 99 394 103 q 333 92 349 99 q 301 86 317 86 q 283 93 290 86 q 242 126 264 113 l 217 146 q 169 165 192 165 q 118 131 139 165 q 46 44 97 96 q 29 -24 29 28 q 32 -89 29 -49 q 35 -237 35 -161 q 39 -262 35 -253 q 57 -272 43 -272 z "},"t":{"ha":718,"x_min":28,"x_max":690,"o":"m 426 -187 q 442 -174 439 -187 q 444 -142 444 -161 q 447 -101 444 -122 q 460 -4 460 -39 l 457 31 q 460 44 457 38 q 468 89 468 54 q 457 196 468 140 q 460 339 457 256 q 472 617 464 551 q 492 655 476 640 q 529 669 508 669 l 551 667 q 588 664 568 664 q 617 658 608 664 q 632 625 626 653 q 634 606 633 617 q 638 585 635 596 q 651 575 640 575 q 672 606 672 575 q 685 683 675 656 q 690 718 690 697 l 690 792 q 673 851 690 840 q 635 861 656 861 l 582 858 l 540 860 l 432 858 q 283 856 347 856 q 222 857 243 856 q 122 865 161 865 q 49 848 63 865 q 35 801 35 831 q 31 737 35 756 q 28 703 28 718 q 35 657 28 678 q 42 607 42 636 l 39 571 q 48 508 39 521 q 65 496 57 496 q 73 499 69 496 q 76 504 76 501 l 75 517 q 78 540 75 528 q 81 563 81 551 l 79 581 q 81 599 79 590 q 82 614 82 607 q 101 658 85 647 q 142 669 118 669 q 206 664 156 669 q 233 647 221 663 q 244 617 244 632 l 250 481 q 248 456 250 468 q 242 419 246 444 q 228 328 238 393 l 228 321 q 233 308 228 311 q 243 306 238 306 q 253 304 249 306 q 257 294 257 303 q 250 196 251 268 q 243 88 247 142 q 228 0 239 33 q 224 -24 224 -11 q 228 -51 224 -37 q 254 -157 254 -132 l 254 -161 q 258 -176 256 -172 q 268 -179 260 -179 q 282 -160 282 -179 q 310 -94 286 -126 q 325 -85 317 -85 q 347 -86 335 -86 l 358 -86 q 381 -88 368 -86 q 397 -103 393 -90 l 400 -112 q 410 -169 410 -135 q 426 -187 410 -187 z "},"u":{"ha":714,"x_min":28,"x_max":686,"o":"m 578 -282 q 597 -263 593 -281 q 601 -218 601 -246 l 601 -211 q 614 -132 601 -174 q 619 -72 619 -101 q 631 45 621 -8 q 642 152 640 99 q 651 260 644 206 q 657 338 657 306 q 658 349 657 346 q 663 354 658 351 q 682 443 682 361 l 681 515 q 678 607 678 561 q 686 722 678 667 q 685 740 685 731 q 672 861 685 806 q 659 885 667 881 q 638 889 651 889 l 592 890 l 532 889 l 508 890 q 446 865 467 890 q 425 799 425 839 q 432 713 425 768 q 435 676 435 692 l 433 647 l 422 568 l 422 556 q 428 542 422 544 q 435 518 435 542 q 431 462 433 488 q 428 399 429 436 q 425 300 426 363 q 420 265 424 283 q 417 228 417 247 l 418 208 q 395 171 418 189 q 351 153 372 153 q 328 167 336 153 q 311 188 319 181 q 297 206 303 194 q 292 267 292 217 l 292 663 q 295 785 292 767 q 299 822 299 804 q 257 888 299 879 q 210 890 238 890 q 146 894 182 890 l 138 894 q 74 853 93 894 q 56 768 56 811 q 64 693 56 721 l 67 682 q 28 431 67 672 q 33 389 28 406 q 56 379 35 379 l 60 356 l 64 328 l 63 283 q 70 228 63 256 q 78 178 78 201 l 76 165 q 90 76 76 136 l 139 -144 q 143 -175 142 -162 q 146 -194 144 -187 q 156 -201 147 -201 q 176 -192 171 -201 q 181 -164 181 -182 q 183 -99 181 -124 q 224 -37 190 -37 q 239 -42 231 -37 q 351 -65 275 -65 q 431 -58 401 -65 q 482 -42 460 -50 l 508 -33 q 515 -29 513 -32 q 521 -25 518 -26 q 526 -24 524 -24 q 535 -28 531 -24 q 543 -36 539 -33 q 561 -78 558 -46 q 560 -183 561 -147 q 557 -232 557 -211 q 578 -282 557 -282 z "},"v":{"ha":731,"x_min":28,"x_max":703,"o":"m 435 -357 q 447 -344 447 -357 l 446 -317 q 465 -187 450 -243 q 468 -154 468 -171 l 468 -149 q 481 -97 468 -121 q 493 -50 488 -83 q 513 32 497 -10 l 531 85 q 553 149 540 117 q 585 289 579 215 l 588 310 q 651 601 613 467 q 676 699 669 667 q 701 814 686 757 l 703 828 q 690 861 703 849 q 654 874 676 874 q 602 875 632 874 q 547 877 572 876 q 517 879 522 878 l 490 879 q 461 869 475 879 q 447 844 447 860 q 424 658 447 815 q 408 554 413 589 q 388 471 401 513 q 375 428 381 450 q 357 418 372 419 q 331 508 340 418 q 313 656 318 619 l 294 765 q 280 844 286 818 q 260 879 274 869 q 201 892 246 889 q 181 887 190 892 q 161 882 171 882 q 144 886 153 883 q 117 889 135 889 l 92 888 q 46 869 64 886 q 28 831 28 851 q 31 815 28 822 q 83 436 79 676 q 88 416 83 426 q 103 404 92 406 q 117 394 114 403 q 119 370 119 386 q 122 346 119 354 q 143 246 138 297 q 161 140 146 218 q 182 29 175 85 q 186 15 182 22 q 207 -61 200 -11 q 225 -154 213 -99 q 229 -183 228 -164 q 253 -262 233 -262 q 264 -242 264 -260 l 264 -235 q 279 -161 264 -211 q 285 -149 279 -154 q 331 -143 290 -143 q 373 -144 353 -143 q 403 -180 393 -146 q 418 -257 414 -214 q 422 -333 422 -300 q 424 -352 422 -347 q 435 -357 426 -357 z "},"w":{"ha":819,"x_min":28,"x_max":792,"o":"m 144 -319 q 168 -268 164 -319 q 169 -212 169 -249 q 201 -168 169 -175 l 238 -164 q 265 -190 257 -164 q 274 -236 274 -215 l 272 -257 q 288 -271 272 -271 q 304 -246 303 -271 q 318 -119 318 -165 q 325 -65 319 -93 l 344 4 q 418 217 390 172 q 431 169 422 207 q 450 85 439 131 q 472 13 461 40 q 486 -43 482 -15 q 503 -110 493 -85 q 519 -161 513 -136 q 525 -224 525 -186 q 524 -253 525 -240 q 521 -281 522 -267 q 539 -301 521 -299 q 561 -211 556 -301 q 566 -176 563 -187 q 581 -161 569 -165 q 631 -150 608 -150 q 673 -174 664 -150 q 683 -225 682 -199 q 688 -252 685 -242 q 699 -262 690 -262 q 710 -256 707 -262 q 713 -225 713 -250 q 740 81 740 -58 q 751 109 740 99 q 761 136 761 119 l 760 257 q 764 433 760 404 l 774 517 q 792 785 792 679 q 788 843 792 825 q 738 883 775 883 q 717 882 728 883 q 694 881 706 881 q 647 884 668 881 q 610 888 625 888 q 556 860 576 888 q 539 790 539 825 l 539 776 l 538 749 q 532 585 532 647 q 533 507 532 539 l 533 460 q 522 361 533 413 q 500 395 506 379 q 492 429 494 411 q 481 469 490 447 q 444 518 472 492 q 435 531 439 525 q 428 542 432 538 q 414 549 424 547 q 396 538 407 549 q 383 526 392 529 q 360 497 364 518 l 353 475 q 310 376 324 376 q 303 399 304 376 q 279 769 279 678 l 274 800 q 268 843 268 821 l 269 856 q 263 867 269 861 q 115 879 242 879 q 55 872 71 879 q 35 847 39 865 q 28 806 28 822 q 32 775 28 790 q 39 704 39 738 l 38 642 q 36 531 36 589 q 43 385 36 453 l 44 358 q 43 324 44 340 q 42 296 42 308 q 72 243 42 260 q 85 210 78 238 q 99 88 99 143 l 97 67 q 96 -14 96 31 q 101 -97 96 -75 q 121 -236 121 -169 q 125 -295 121 -272 q 144 -319 129 -318 z "},"x":{"ha":729,"x_min":28,"x_max":701,"o":"m 507 -310 q 518 -300 518 -310 l 517 -294 q 520 -274 517 -285 q 524 -254 524 -264 q 528 -178 525 -217 q 553 -128 531 -139 q 599 -118 575 -118 l 610 -117 q 629 -142 618 -117 q 643 -199 640 -168 q 661 -218 644 -218 q 674 -212 668 -218 q 682 -197 681 -207 q 685 -157 685 -179 q 689 -89 685 -125 l 690 -72 q 664 -24 690 -44 q 585 147 646 -11 q 483 382 536 272 l 482 392 l 490 413 q 508 450 494 433 q 519 472 517 458 q 556 554 533 515 q 585 621 572 586 q 610 679 599 656 q 636 703 622 703 q 651 682 647 701 q 654 635 654 663 q 658 585 654 607 q 676 561 661 563 q 688 566 685 561 q 691 575 690 571 q 692 583 692 579 q 695 628 693 586 q 699 723 697 669 q 701 811 701 776 q 682 876 701 864 q 642 883 669 883 l 581 883 l 526 885 q 492 871 501 885 q 480 844 483 857 q 472 824 476 831 q 444 767 454 799 q 410 695 435 735 q 374 613 386 656 q 331 686 356 614 q 249 864 307 749 q 163 894 232 894 q 113 892 138 894 q 71 890 89 890 q 36 867 44 890 q 28 813 28 844 q 31 751 28 782 q 35 696 35 719 l 35 686 q 47 672 35 672 q 60 682 57 672 q 65 721 64 692 l 68 740 q 85 636 85 706 l 85 599 q 106 540 85 540 q 119 553 117 540 q 122 585 122 565 q 128 618 122 604 q 213 440 185 488 q 233 403 226 418 q 240 374 240 388 q 215 304 240 347 q 156 193 213 297 q 44 -14 56 10 q 29 -74 29 -47 q 36 -122 29 -96 q 50 -253 47 -161 q 53 -290 50 -276 q 68 -306 57 -304 q 76 -302 74 -306 q 81 -297 79 -299 q 82 -293 82 -294 q 89 -247 89 -275 l 89 -200 q 97 -145 89 -169 q 135 -121 104 -121 q 216 -126 211 -124 q 223 -136 221 -128 q 225 -150 225 -144 q 233 -181 229 -169 q 249 -193 238 -193 q 263 -184 260 -192 q 268 -166 267 -176 q 272 -147 269 -156 q 282 -132 275 -137 l 282 -129 q 278 -119 281 -124 q 275 -110 275 -115 q 278 -94 275 -101 q 281 -79 281 -86 q 336 94 296 11 l 350 126 q 358 138 353 138 q 365 132 361 138 q 404 43 404 67 l 403 26 q 407 2 403 17 q 416 -16 411 -12 q 431 -19 421 -19 q 446 -29 442 -19 q 458 -58 451 -44 q 488 -185 488 -124 q 486 -225 488 -207 q 485 -258 485 -243 q 490 -294 485 -279 q 507 -310 496 -310 z "},"y":{"ha":743,"x_min":28,"x_max":715,"o":"m 289 -296 q 304 -283 301 -296 q 311 -193 307 -269 q 319 -153 313 -161 q 364 -144 326 -144 q 401 -151 389 -144 q 421 -186 413 -157 q 426 -207 425 -197 q 431 -222 428 -217 q 442 -228 433 -228 q 461 -215 458 -228 q 464 -183 464 -203 l 464 -178 q 478 -107 464 -144 q 481 -93 481 -100 q 476 -78 481 -85 q 464 -32 464 -57 l 461 -1 q 463 6 461 4 q 474 40 474 24 q 468 79 474 60 q 463 150 463 114 q 467 212 464 188 q 469 257 469 236 q 467 294 469 283 q 472 346 467 326 q 540 535 481 381 q 574 600 554 568 q 592 632 583 615 q 635 719 618 681 q 649 729 642 729 q 658 714 657 729 l 658 701 q 656 640 656 672 q 675 585 656 585 q 688 599 683 585 q 692 701 692 626 q 713 825 692 775 q 715 842 715 833 q 678 896 715 876 q 649 901 663 901 l 629 900 l 583 900 q 500 882 540 900 q 478 863 485 875 q 466 828 472 850 q 442 767 460 807 q 374 607 399 681 q 364 597 371 599 q 314 735 331 675 q 268 851 296 800 q 238 877 258 865 q 199 889 217 889 q 185 886 192 889 q 139 879 161 879 l 117 881 q 48 865 68 881 q 28 831 28 850 q 36 803 28 817 q 51 732 49 785 q 57 493 54 664 q 69 478 60 478 q 83 496 83 478 l 81 543 l 81 560 q 83 572 81 567 q 94 617 94 596 q 98 645 94 638 q 114 654 101 653 q 126 642 121 654 q 139 614 132 631 q 160 568 147 590 q 181 497 181 526 q 189 467 183 478 q 214 454 194 456 q 217 451 215 454 q 221 449 219 449 q 247 394 242 426 q 253 318 253 363 l 253 271 q 243 186 253 215 q 235 146 235 165 q 251 107 235 126 l 251 7 q 256 -100 251 -71 q 264 -190 264 -153 l 264 -217 q 272 -281 264 -251 q 289 -296 279 -296 z "},"z":{"ha":685,"x_min":28,"x_max":657,"o":"m 88 -319 q 101 -304 96 -319 l 104 -294 q 113 -210 113 -250 l 114 -174 q 132 -131 115 -131 l 142 -132 l 167 -133 q 209 -131 188 -133 q 253 -128 231 -128 q 299 -131 276 -129 q 349 -133 321 -133 q 384 -131 367 -133 q 418 -128 401 -128 q 445 -129 432 -128 q 471 -131 458 -131 l 499 -128 q 507 -132 503 -128 q 563 -211 547 -161 q 573 -262 569 -251 q 585 -274 576 -274 q 606 -247 606 -271 l 604 -221 q 614 -135 604 -179 q 624 -58 624 -90 l 622 -28 q 624 1 622 -14 q 626 33 626 17 q 592 92 626 76 q 522 108 558 108 l 510 107 q 460 104 497 104 l 381 106 l 342 104 q 324 110 332 104 q 315 122 315 115 q 322 138 315 128 l 325 142 q 468 382 460 363 q 490 412 478 397 q 513 446 503 426 q 588 556 542 507 q 592 547 592 553 q 601 481 596 513 q 614 400 611 440 q 625 385 614 385 q 634 388 631 385 q 638 397 638 392 l 638 414 q 642 460 638 438 q 646 507 646 483 l 644 571 q 651 646 644 608 q 657 699 657 672 q 654 727 657 713 q 650 758 651 742 q 641 806 647 782 q 617 849 635 829 q 610 860 613 853 q 601 874 608 868 q 528 894 571 894 l 485 893 q 393 890 450 890 l 346 890 q 285 888 313 890 q 224 885 257 886 l 135 888 q 63 872 86 888 q 39 807 40 856 q 42 747 39 783 q 48 678 44 710 q 54 635 51 646 q 64 550 64 589 l 63 507 q 66 476 63 488 q 81 464 69 464 q 90 467 86 464 q 97 482 93 471 q 102 519 100 493 q 105 594 104 546 q 132 656 106 642 q 194 671 158 671 l 278 668 l 300 668 q 332 652 318 668 q 346 618 346 636 l 346 608 q 267 454 328 553 q 140 254 207 356 l 71 147 q 41 97 54 124 q 28 39 28 71 q 32 -4 29 15 q 35 -61 35 -31 l 33 -94 q 46 -127 33 -114 q 61 -160 58 -140 q 67 -200 64 -179 q 75 -274 75 -236 l 74 -304 q 78 -315 74 -311 q 88 -319 82 -319 z "},"{":{"ha":386,"x_min":28,"x_max":358,"o":"m 307 -100 q 320 -96 314 -100 q 326 -85 326 -92 l 325 -54 q 331 -4 325 -21 q 338 40 338 13 q 335 63 338 57 q 326 73 333 68 q 314 83 319 78 q 292 100 306 94 q 258 181 258 111 q 260 235 258 207 q 263 290 263 264 q 256 343 263 321 l 251 360 q 240 390 249 376 q 231 410 231 403 q 246 432 231 419 q 285 514 282 457 q 283 526 285 521 q 281 538 281 532 l 283 553 q 288 603 288 574 l 288 653 q 308 742 288 713 q 314 732 314 738 l 313 685 q 325 669 313 669 q 338 679 336 669 q 342 698 339 689 q 346 717 346 707 l 344 729 q 351 783 344 756 q 358 831 358 810 q 317 868 358 868 q 288 865 304 868 q 184 810 231 853 q 138 711 138 768 q 138 702 138 706 q 139 692 139 699 q 139 646 139 686 q 140 588 139 597 q 141 573 140 578 q 143 563 142 568 q 119 519 143 540 q 71 489 96 499 q 45 476 57 485 q 31 450 33 468 q 28 368 28 400 q 46 286 28 286 q 56 293 51 286 q 64 311 61 300 l 67 351 q 74 360 68 360 q 90 352 81 360 q 105 334 99 344 q 111 315 111 324 l 110 290 l 111 258 l 108 204 q 131 83 108 142 q 208 0 153 24 q 235 -7 226 -6 q 257 -18 244 -8 q 289 -48 286 -40 q 292 -87 292 -56 q 307 -100 293 -100 z "},"|":{"ha":219,"x_min":28,"x_max":192,"o":"m 169 -189 q 180 -181 175 -189 q 185 -160 185 -174 l 179 -111 q 181 -78 179 -94 q 185 -31 183 -61 q 188 60 188 0 q 186 160 188 108 q 183 249 185 213 q 179 292 182 285 q 185 304 185 297 q 183 317 185 311 q 181 329 181 322 q 186 392 182 358 l 186 432 q 185 576 186 569 q 183 588 183 582 q 186 599 183 593 q 192 671 192 624 q 190 738 192 704 q 189 796 189 772 l 190 824 q 175 853 190 838 q 119 869 160 869 q 94 867 108 869 l 89 868 q 47 842 50 868 l 46 804 l 47 765 q 42 689 47 735 q 38 628 38 649 q 41 572 39 596 q 43 522 43 549 q 41 476 43 497 q 39 435 39 454 q 32 129 39 161 q 28 90 28 110 q 35 31 28 61 q 42 -39 42 0 q 39 -76 42 -60 q 44 -101 39 -87 q 61 -115 49 -115 q 75 -90 75 -114 l 75 -82 q 76 -62 75 -72 q 84 -47 78 -53 q 101 -40 90 -40 q 126 -47 114 -40 q 140 -64 138 -54 q 150 -147 150 -118 q 167 -187 150 -187 l 169 -189 z "},"}":{"ha":369,"x_min":28,"x_max":342,"o":"m 69 -128 q 82 -114 81 -128 q 83 -101 82 -107 q 85 -90 85 -96 q 83 -82 83 -85 q 81 -77 82 -79 q 81 -71 81 -75 q 101 -40 81 -53 q 143 -15 121 -26 q 204 18 161 -10 q 240 66 231 38 q 254 125 250 94 q 258 153 258 142 q 256 178 258 165 q 254 204 254 192 l 256 214 q 265 323 261 300 q 283 347 269 346 q 289 344 288 347 q 291 340 290 342 q 293 336 292 338 q 301 301 301 317 l 301 297 q 305 281 303 288 q 315 274 307 275 l 319 272 q 335 300 335 272 q 333 314 335 308 q 332 340 332 325 q 337 394 332 372 q 342 429 342 415 q 319 467 342 456 q 283 491 297 479 q 258 510 269 503 q 242 535 246 518 q 238 572 238 551 q 239 608 238 589 q 240 650 240 628 q 210 771 240 729 l 201 783 q 156 828 183 814 q 129 840 142 833 q 65 863 100 857 q 44 856 54 863 q 33 840 33 850 q 32 822 33 829 q 31 810 31 815 l 32 769 q 28 717 32 754 q 30 692 28 704 q 32 668 32 681 l 31 653 q 35 642 31 646 q 46 638 40 638 q 55 642 51 638 q 58 654 58 646 q 61 678 58 663 q 68 708 64 694 q 76 722 72 721 q 81 716 81 722 q 85 706 81 710 q 89 694 89 701 q 93 643 90 669 q 97 561 96 617 q 102 478 97 497 q 131 432 107 460 q 135 424 133 429 q 142 415 138 419 q 158 410 147 410 q 149 393 156 400 q 139 376 142 386 q 137 372 139 374 q 133 367 135 369 q 114 235 114 306 l 115 163 q 108 111 115 132 q 79 83 101 90 q 49 67 57 76 q 40 46 40 57 q 44 26 40 36 q 47 7 47 15 l 46 -8 q 50 -28 46 -19 q 54 -44 54 -37 q 50 -66 53 -56 q 47 -96 47 -76 q 51 -120 49 -112 q 69 -128 54 -128 z "},"~":{"ha":433,"x_min":28,"x_max":406,"o":"m 285 264 q 329 274 311 264 q 406 396 406 338 q 401 421 406 411 q 361 439 393 439 q 311 419 335 439 q 303 402 307 415 q 294 376 300 389 q 278 364 289 364 q 254 377 268 364 q 232 403 240 390 q 207 428 224 417 q 143 449 190 440 q 88 429 113 443 q 43 361 54 410 q 31 331 40 344 q 28 321 28 325 q 49 294 28 306 q 89 282 71 282 q 105 287 94 282 q 125 298 115 292 q 138 308 135 304 q 150 328 143 328 q 168 315 157 328 l 235 274 q 285 264 251 264 z "},"¡":{"ha":267,"x_min":28,"x_max":239,"o":"m 53 -503 q 68 -478 68 -500 l 67 -456 q 72 -430 67 -439 q 76 -412 76 -421 l 75 -390 q 104 -360 75 -368 l 115 -358 l 122 -358 q 140 -355 132 -358 q 156 -351 149 -351 q 179 -365 168 -351 q 185 -374 182 -369 q 192 -383 189 -378 q 196 -397 196 -389 l 194 -404 q 198 -418 194 -410 q 207 -433 201 -426 q 221 -440 213 -440 q 236 -421 236 -439 q 234 -402 236 -412 q 232 -385 232 -392 l 233 -376 q 239 -347 239 -361 q 231 -302 239 -324 q 224 -258 224 -281 l 224 -226 l 221 -192 q 224 -139 221 -172 l 226 -89 q 224 -73 226 -81 q 222 -57 222 -65 q 223 -48 222 -54 q 224 -29 224 -42 q 225 8 225 -17 q 221 161 225 128 q 224 242 221 210 q 226 299 226 275 q 218 336 226 328 q 185 347 197 347 q 169 344 175 347 q 158 342 164 342 l 151 343 q 114 347 133 347 q 53 342 83 347 q 31 319 31 338 q 35 306 31 313 q 37 301 35 304 q 39 296 39 299 q 35 286 38 290 q 33 274 33 282 q 38 244 33 261 q 44 169 42 215 q 49 24 49 63 q 47 5 49 15 q 44 -36 44 -6 q 49 -135 44 -111 q 42 -238 49 -176 q 29 -332 35 -300 q 28 -364 28 -346 q 38 -472 28 -415 q 44 -500 42 -497 q 53 -503 46 -503 m 125 379 q 190 406 161 379 q 218 469 218 433 q 192 541 217 518 q 135 564 167 564 q 72 537 100 564 q 40 460 43 510 q 65 403 40 428 q 125 379 89 379 z "},"¢":{"ha":444,"x_min":28,"x_max":417,"o":"m 221 -87 q 233 -75 233 -86 l 232 -19 q 242 38 232 28 q 285 47 253 47 l 293 47 q 301 47 297 47 q 309 49 304 47 q 318 51 314 50 q 339 67 336 53 l 340 82 q 343 108 343 96 l 342 124 q 394 163 342 140 q 417 193 417 171 q 399 236 417 215 q 383 260 389 247 q 350 286 372 286 q 292 268 326 286 q 271 263 281 263 q 236 279 250 263 q 214 314 222 296 q 204 329 210 324 q 175 431 175 365 q 192 521 175 472 q 281 581 206 565 l 286 582 q 312 575 299 582 q 328 560 325 568 q 335 511 335 536 q 331 484 335 497 q 326 457 326 471 q 334 420 326 435 q 354 406 342 406 q 365 411 361 406 q 369 424 368 417 q 371 438 369 431 q 374 467 374 451 q 370 489 374 478 q 367 513 367 500 q 394 590 367 543 q 414 636 414 617 q 397 660 414 650 q 367 671 381 669 q 344 677 353 672 q 336 710 336 682 q 338 730 336 719 q 340 749 340 740 q 307 786 340 778 l 299 788 q 232 793 257 793 q 200 789 214 793 q 176 717 176 782 l 176 703 q 174 688 176 693 q 164 679 172 683 q 109 631 140 668 q 53 547 78 594 q 29 460 29 499 l 28 399 q 35 344 28 371 l 42 321 q 79 218 56 264 q 156 156 103 172 q 180 145 171 151 q 189 121 189 139 l 189 115 l 193 51 l 190 0 q 196 -69 190 -35 q 221 -87 199 -87 z "},"£":{"ha":553,"x_min":28,"x_max":525,"o":"m 489 -193 q 502 -184 496 -193 q 508 -168 508 -175 l 507 -144 q 510 -114 507 -129 q 513 -83 513 -99 q 508 -25 513 -67 q 514 17 508 -4 q 519 60 519 38 l 518 67 q 525 79 518 72 q 523 92 525 89 q 521 103 521 96 l 522 117 q 517 139 522 129 q 503 149 511 149 l 474 149 l 451 150 q 422 147 436 150 q 393 144 407 144 l 336 147 q 310 145 322 147 q 285 143 299 143 q 247 145 265 143 q 211 149 228 147 q 194 160 194 150 q 197 172 194 165 q 204 185 200 178 q 210 199 208 193 q 224 247 215 224 q 243 326 239 285 q 244 333 243 333 q 249 331 246 333 q 257 327 253 329 q 267 325 261 325 q 281 328 274 325 q 297 333 289 332 q 311 339 304 335 q 320 355 318 343 q 322 378 322 367 q 317 440 322 390 q 292 468 317 468 q 267 465 279 468 q 249 461 256 461 q 240 467 240 461 l 242 501 q 282 638 242 572 q 336 683 311 683 q 374 677 358 679 q 397 671 390 675 q 403 644 403 667 q 400 565 403 622 q 408 546 400 554 q 425 538 417 538 q 442 567 442 538 l 442 583 q 482 733 442 664 q 489 751 489 742 q 485 763 489 757 q 367 817 450 817 q 299 810 331 817 q 218 779 243 796 q 197 756 207 771 q 168 714 186 742 l 151 689 q 113 542 113 622 q 110 476 113 489 q 96 464 107 464 q 85 466 92 464 q 71 468 79 468 q 44 461 57 468 q 31 440 32 454 l 29 429 q 28 396 28 415 q 32 358 28 376 q 48 333 36 340 q 71 326 60 326 q 85 328 79 326 l 94 328 q 104 319 104 328 l 103 314 q 63 160 83 213 q 46 99 46 119 l 47 90 q 56 43 56 63 q 57 -25 56 -1 q 63 -72 63 -64 q 60 -88 63 -81 q 58 -104 58 -96 q 65 -124 58 -115 q 78 -133 72 -133 q 90 -121 86 -133 q 94 -99 94 -108 q 92 -88 93 -93 q 90 -76 90 -83 q 95 -47 90 -60 q 101 -21 100 -33 q 117 13 104 7 q 156 18 131 18 l 167 18 q 240 24 194 18 l 285 25 q 347 23 315 25 q 408 21 378 21 q 446 8 429 21 q 465 -21 463 -6 q 476 -125 476 -87 q 475 -154 476 -142 q 474 -167 474 -160 q 478 -185 474 -176 q 489 -193 483 -193 z "},"¥":{"ha":554,"x_min":28,"x_max":526,"o":"m 222 -61 q 240 0 240 -61 q 248 33 240 19 q 265 47 256 47 q 281 49 274 47 q 296 50 288 50 q 305 48 300 50 q 312 40 310 46 q 315 26 314 33 q 317 16 315 19 q 320 8 318 13 q 324 -3 322 4 q 328 -15 325 -10 q 338 -19 331 -19 q 353 -12 350 -18 q 357 6 357 -6 q 358 34 357 24 q 360 65 360 44 q 356 108 360 90 q 353 138 353 125 q 363 162 353 153 q 397 173 372 171 q 428 185 422 175 q 435 212 435 194 q 435 239 435 229 q 438 259 436 249 q 440 286 439 269 q 430 307 440 296 q 399 318 419 318 q 383 316 389 318 q 371 313 376 314 q 359 319 361 313 q 357 339 357 325 q 360 353 357 351 q 401 356 364 356 q 428 368 422 357 q 433 394 433 379 l 436 421 q 432 447 436 433 q 429 464 431 454 q 419 478 428 474 q 403 485 411 483 q 392 490 396 488 q 389 494 389 492 q 396 506 389 499 q 426 560 417 531 q 454 625 435 590 q 475 667 465 644 q 476 660 475 663 q 478 626 478 647 q 480 578 478 596 q 482 542 482 560 q 500 517 482 517 l 504 517 q 519 535 519 517 l 518 593 q 525 729 518 685 l 526 767 q 515 788 526 788 l 514 788 q 491 791 501 788 q 468 794 481 794 q 449 792 458 794 q 431 789 439 789 q 406 791 417 789 q 388 793 394 793 q 367 787 376 793 q 351 760 358 781 q 350 753 351 756 q 306 653 321 707 l 299 632 q 297 620 297 626 q 293 607 296 614 q 274 590 286 590 q 264 599 265 590 l 236 668 q 196 771 206 743 q 173 800 188 793 q 140 807 158 807 q 105 804 122 807 q 75 801 88 801 q 48 790 63 801 q 31 765 33 778 q 28 740 28 751 q 31 708 28 724 q 33 678 33 693 l 32 650 q 54 613 32 613 q 68 632 68 613 l 67 647 q 69 676 67 661 q 81 667 78 674 q 85 654 85 661 q 90 642 86 647 q 107 604 101 624 q 117 574 110 590 q 131 539 125 558 q 140 516 135 526 q 144 500 144 506 q 129 490 144 493 q 90 476 97 486 q 83 440 83 465 l 83 375 q 88 352 83 361 q 108 343 92 343 q 144 344 119 344 q 182 350 151 344 q 190 336 190 350 q 185 317 190 326 q 171 307 181 307 l 151 307 l 135 306 q 88 287 99 306 q 76 243 76 268 q 79 210 76 221 l 81 207 q 133 171 83 171 q 155 172 144 171 q 175 174 165 174 q 194 171 186 174 q 201 157 201 168 q 199 126 199 146 q 201 65 199 101 q 203 -6 203 29 q 201 -26 203 -18 l 201 -42 q 217 -61 201 -56 l 222 -61 z "},"¦":{"ha":219,"x_min":28,"x_max":192,"o":"m 168 -189 q 185 -174 185 -189 l 179 -149 q 181 -132 179 -140 q 185 -108 183 -124 q 188 -61 188 -92 q 186 -10 188 -36 q 183 35 185 17 q 179 58 182 54 q 185 64 185 61 q 183 71 185 68 q 181 76 181 74 q 183 100 182 94 q 185 109 185 106 q 186 131 186 113 q 185 203 186 200 q 183 210 183 207 q 186 215 183 213 q 192 253 192 228 q 190 287 192 269 q 189 317 189 304 l 190 332 q 175 346 190 338 q 119 354 160 354 l 94 353 l 89 354 q 49 342 50 354 q 46 321 47 331 l 47 301 q 42 263 47 285 q 38 231 38 242 q 41 202 39 214 q 43 176 43 190 q 41 153 43 164 q 39 132 39 142 q 33 -24 39 -11 q 28 -46 28 -36 q 35 -76 28 -60 q 42 -111 42 -92 q 39 -131 42 -122 q 44 -144 39 -136 q 61 -151 49 -151 q 75 -137 75 -150 l 75 -133 q 76 -124 75 -129 q 84 -116 78 -119 q 101 -112 90 -112 q 126 -116 114 -112 q 140 -125 138 -119 q 150 -165 150 -153 q 153 -183 150 -178 q 168 -189 157 -187 m 168 550 q 185 565 185 550 l 179 590 q 181 607 179 599 q 185 631 183 615 q 188 678 188 647 q 186 729 188 703 q 183 774 185 756 q 179 797 182 793 q 185 803 185 800 q 183 810 185 807 q 181 815 181 813 q 183 839 182 833 q 185 848 185 844 q 186 869 186 851 q 185 942 186 939 q 183 949 183 946 q 186 954 183 951 q 192 992 192 967 q 190 1026 192 1008 q 189 1056 189 1043 l 190 1071 q 175 1085 190 1076 q 119 1093 160 1093 l 94 1092 l 89 1093 q 49 1081 50 1093 q 46 1060 47 1069 l 47 1040 q 42 1002 47 1024 q 38 969 38 981 q 41 941 39 953 q 43 915 43 929 q 41 892 43 903 q 39 871 39 881 q 33 715 39 728 q 28 693 28 703 q 35 663 28 679 q 42 628 42 647 q 39 608 42 617 q 44 595 39 603 q 61 588 49 588 q 75 601 75 589 l 75 606 q 76 615 75 610 q 84 623 78 619 q 101 626 90 626 q 126 623 114 626 q 140 614 138 619 q 150 574 150 586 q 153 556 150 561 q 168 550 157 551 z "},"§":{"ha":424,"x_min":28,"x_max":396,"o":"m 225 36 l 233 38 q 271 49 251 44 q 339 78 307 54 q 392 190 392 124 q 378 265 392 236 q 375 281 375 276 q 383 322 376 299 q 396 406 396 358 q 393 431 394 418 q 387 455 392 444 q 381 476 382 465 q 333 539 369 519 q 222 574 261 568 q 187 583 199 578 q 175 603 175 589 q 178 618 175 610 q 185 633 181 626 q 192 644 189 639 q 209 663 196 656 q 236 671 222 671 q 249 668 243 671 q 321 611 292 650 q 338 603 328 603 q 360 614 349 603 q 375 637 372 625 q 378 657 378 649 q 385 692 379 675 q 386 699 386 694 q 374 714 386 711 q 365 722 367 715 q 325 757 356 743 q 308 767 315 761 q 269 780 290 776 q 199 783 247 783 q 131 773 172 783 q 46 713 89 763 q 28 647 28 685 q 38 586 28 617 q 63 536 47 556 q 68 521 68 529 q 60 490 68 507 q 46 450 53 474 q 39 379 39 426 q 36 372 36 376 q 43 356 36 364 l 47 347 q 103 279 68 294 q 168 261 138 264 l 189 258 q 264 208 264 238 q 247 184 264 194 q 206 174 229 174 q 150 193 178 174 q 125 204 138 204 q 93 182 106 204 q 87 171 90 176 q 77 161 83 165 q 67 151 71 157 q 62 137 64 144 q 57 124 60 129 q 54 115 54 119 q 61 99 54 107 q 93 79 74 82 q 113 71 104 79 q 153 56 128 56 q 200 43 171 56 q 225 36 214 36 m 224 368 q 180 386 193 372 q 167 414 167 400 q 183 449 167 436 q 215 461 200 461 q 256 452 238 461 q 275 413 275 443 q 258 383 275 399 q 224 368 240 368 z "},"¨":{"ha":450,"x_min":28,"x_max":422,"o":"m 333 863 l 350 867 q 403 903 385 871 l 413 917 q 422 947 422 931 q 403 997 422 972 q 354 1031 383 1022 l 346 1033 q 324 1038 335 1038 q 299 1028 311 1038 l 285 1018 q 244 940 244 997 q 273 881 244 899 q 333 863 301 864 m 113 865 q 169 891 149 865 q 190 947 190 917 q 169 1001 190 976 q 104 1028 149 1025 q 53 1005 78 1028 q 28 951 28 982 l 28 944 q 52 886 28 907 q 113 865 76 865 z "},"«":{"ha":800,"x_min":28,"x_max":772,"o":"m 696 -246 q 714 -240 706 -246 q 722 -221 722 -233 q 718 -149 722 -171 q 710 -40 711 -119 q 719 51 710 19 q 737 100 728 83 q 746 132 746 117 q 733 165 746 146 q 661 249 715 194 q 591 328 597 314 q 573 356 585 343 q 557 388 561 368 l 554 390 q 533 422 533 406 q 544 444 533 435 q 565 464 554 453 q 589 485 576 475 q 646 538 622 508 q 681 574 663 557 q 722 622 706 594 l 731 626 q 760 650 749 632 q 772 685 772 668 q 764 702 771 694 q 756 718 757 710 q 740 754 753 740 q 711 779 728 768 l 703 788 q 685 800 694 799 q 672 792 678 800 q 661 781 667 785 q 588 710 631 761 q 558 679 568 688 q 361 471 493 633 l 349 456 q 333 424 333 439 q 348 388 333 407 q 390 336 363 368 q 457 254 418 304 q 478 221 468 239 q 509 176 490 196 q 565 113 528 156 q 633 26 601 71 q 667 -42 664 -18 q 675 -90 669 -67 q 681 -131 681 -112 l 674 -219 l 672 -226 q 680 -241 672 -236 q 696 -246 688 -246 m 393 -157 q 404 -153 399 -157 q 410 -143 410 -149 l 408 -86 q 408 -67 408 -75 q 406 -50 407 -58 q 404 -31 406 -42 q 409 -12 404 -21 q 419 10 414 -4 q 436 68 431 36 q 447 103 439 86 q 453 125 453 115 q 444 148 453 138 q 422 167 435 158 q 401 188 408 176 q 349 255 378 229 q 297 321 321 281 q 264 368 283 347 q 238 414 238 393 q 261 456 238 432 q 274 468 268 461 q 313 510 279 475 l 349 547 q 447 638 392 599 q 471 685 471 658 q 453 722 471 706 q 417 779 425 744 q 405 798 414 792 q 385 804 396 804 q 351 778 364 804 q 329 750 343 760 q 313 736 319 744 q 215 628 307 728 q 103 511 124 529 q 75 477 88 497 q 42 440 63 457 q 28 415 28 428 q 51 369 28 396 q 86 315 71 347 q 113 279 96 294 q 131 256 122 269 q 161 215 140 243 q 239 125 214 144 q 250 113 246 119 q 317 23 288 54 q 353 -12 346 -8 q 368 -79 367 -26 q 372 -115 369 -101 l 371 -124 q 377 -147 371 -136 q 393 -157 383 -157 z "},"°":{"ha":256,"x_min":28,"x_max":228,"o":"m 122 871 q 194 897 160 871 q 228 965 228 924 l 228 981 q 195 1046 228 1018 q 126 1074 163 1074 q 60 1043 90 1074 q 28 976 31 1013 q 56 905 28 936 q 122 871 85 874 m 125 903 q 79 926 99 904 q 60 976 60 949 q 83 1021 63 1000 q 128 1042 104 1042 q 175 1023 153 1042 q 197 978 197 1004 l 197 968 q 174 922 197 940 q 125 903 150 903 z "},"´":{"ha":306,"x_min":28,"x_max":278,"o":"m 83 874 q 131 910 108 874 q 148 925 139 919 q 163 936 157 931 q 226 1016 206 983 q 267 1063 247 1049 q 278 1075 278 1069 q 267 1089 278 1082 q 256 1096 263 1092 q 242 1104 250 1100 q 222 1108 235 1108 l 218 1108 q 201 1115 211 1115 q 183 1112 193 1115 q 163 1108 174 1108 q 149 1111 156 1108 q 138 1114 143 1114 q 101 1081 118 1114 q 65 994 83 1047 q 47 961 58 978 q 28 915 28 936 q 50 888 28 899 q 57 883 53 886 q 68 877 61 881 q 83 874 75 874 z "},"·":{"ha":256,"x_min":28,"x_max":228,"o":"m 122 247 q 194 274 160 247 q 228 343 228 301 l 228 357 q 195 423 228 394 q 126 451 163 451 q 60 421 90 451 q 28 354 31 390 q 56 282 28 314 q 122 247 85 250 z "},"∙":{"ha":256,"x_min":28,"x_max":228,"o":"m 122 247 q 194 274 160 247 q 228 343 228 301 l 228 357 q 195 423 228 394 q 126 451 163 451 q 60 421 90 451 q 28 354 31 390 q 56 282 28 314 q 122 247 85 250 z "},"»":{"ha":799,"x_min":28,"x_max":771,"o":"m 140 -201 q 163 -178 161 -200 l 164 -154 q 167 -117 167 -136 q 163 -87 167 -101 q 160 -60 160 -72 q 176 4 160 -26 q 180 13 178 7 q 186 25 182 19 q 201 31 190 31 q 206 33 204 31 q 208 36 207 35 q 208 39 208 38 q 286 148 235 89 q 390 263 338 207 q 469 349 438 311 q 501 401 501 386 l 500 407 l 492 421 q 467 457 482 440 l 382 536 q 304 621 333 582 q 239 690 275 660 q 197 735 213 710 q 175 763 189 754 q 148 776 161 771 q 124 788 135 781 q 110 782 118 788 q 81 747 89 767 q 67 724 74 726 q 46 701 53 719 q 31 683 42 690 q 28 678 28 681 q 97 604 28 663 q 217 478 171 543 q 246 442 232 457 q 282 417 260 428 q 289 404 289 414 q 278 380 289 390 q 247 338 268 369 q 185 263 218 286 q 163 240 171 254 q 90 165 135 194 q 67 113 67 142 q 78 79 67 94 q 103 35 93 57 q 119 5 113 13 q 125 -10 125 -3 l 122 -40 q 124 -71 122 -54 q 125 -108 125 -87 q 119 -167 125 -135 q 124 -191 121 -181 q 140 -201 128 -201 m 442 -139 q 464 -126 454 -139 q 474 -97 474 -112 l 472 -78 l 475 -57 q 470 -38 475 -47 q 465 -19 465 -29 q 483 4 465 -8 q 490 13 489 7 q 542 98 500 47 q 637 206 585 149 q 730 314 689 264 q 771 390 771 364 q 761 422 769 408 q 722 471 749 443 q 572 626 600 603 q 518 692 536 657 q 501 715 510 706 q 483 733 492 725 q 449 768 465 754 q 415 782 432 782 q 383 761 400 782 l 369 740 q 346 707 360 722 q 331 656 331 683 q 343 640 331 644 q 353 635 349 639 q 426 567 364 618 q 511 488 481 522 l 528 468 q 558 429 549 442 q 567 408 567 417 q 555 383 567 397 q 536 363 543 369 q 522 344 525 349 q 504 315 519 339 q 460 257 471 268 q 442 235 449 246 q 406 190 429 214 q 371 153 386 172 q 356 114 356 133 q 361 96 356 104 q 381 58 374 78 l 385 47 q 425 -26 410 -14 q 431 -40 431 -32 q 428 -72 431 -57 q 426 -107 426 -87 q 442 -139 426 -139 z "},"¿":{"ha":610,"x_min":32,"x_max":582,"o":"m 297 -536 q 313 -528 306 -536 q 321 -510 321 -519 q 319 -499 321 -504 q 317 -490 317 -494 q 355 -394 325 -414 q 419 -372 385 -374 q 467 -360 446 -371 q 485 -354 476 -354 q 509 -364 499 -354 q 519 -387 519 -374 q 518 -401 519 -393 q 517 -418 517 -410 q 525 -460 517 -442 q 547 -479 533 -479 q 564 -472 560 -478 q 568 -453 568 -465 q 567 -437 568 -446 q 565 -421 565 -429 q 568 -407 565 -414 q 572 -367 572 -387 q 578 -325 572 -347 q 582 -303 582 -314 q 577 -266 581 -285 q 574 -221 574 -247 q 561 -196 574 -207 q 524 -153 533 -171 q 510 -137 517 -143 q 496 -128 504 -131 q 479 -126 488 -126 q 447 -134 463 -126 q 414 -153 431 -142 q 328 -186 376 -181 q 288 -176 306 -186 q 260 -85 260 -160 q 282 3 260 -28 q 335 57 304 33 l 360 81 q 363 85 361 83 q 367 90 365 88 q 372 92 369 92 q 383 76 383 90 q 382 69 383 72 q 381 63 381 65 q 382 38 381 46 q 384 21 383 29 q 393 7 385 13 q 411 1 401 1 q 418 6 415 1 q 424 15 421 10 q 432 40 432 26 q 429 54 432 51 q 433 89 429 74 q 439 174 439 113 q 443 238 443 215 q 433 310 443 276 q 379 344 422 344 l 350 343 q 307 340 342 340 q 279 338 289 340 q 268 324 269 336 q 258 302 267 313 q 247 276 250 292 q 206 178 236 214 q 147 119 176 142 q 111 86 125 103 q 51 -8 64 26 q 39 -76 39 -42 q 33 -124 38 -97 l 32 -139 q 38 -185 32 -164 q 44 -226 43 -207 q 57 -379 57 -319 q 56 -411 57 -404 l 57 -436 q 79 -462 61 -462 q 93 -444 93 -462 l 90 -417 q 93 -404 90 -410 q 110 -344 108 -374 q 122 -312 113 -314 q 126 -315 125 -312 q 181 -351 142 -351 l 182 -351 q 189 -354 186 -351 q 193 -361 192 -357 q 215 -373 200 -368 q 246 -390 231 -378 q 269 -435 261 -403 q 272 -465 272 -450 l 271 -499 q 297 -536 271 -536 m 329 365 q 403 397 371 368 q 435 457 435 425 q 402 535 432 503 q 335 567 372 567 q 258 535 282 564 q 235 469 235 506 q 260 398 235 431 q 329 365 285 365 z "},"À":{"ha":756,"x_min":28,"x_max":728,"o":"m 101 -260 q 126 -203 126 -260 l 126 -176 q 149 -97 126 -137 q 171 -86 158 -86 q 187 -93 181 -86 q 197 -100 193 -100 q 221 -124 221 -101 l 219 -150 q 224 -167 219 -160 q 236 -174 228 -174 q 253 -160 246 -174 q 260 -125 260 -146 l 260 -101 q 263 -78 260 -89 q 273 -13 268 -49 q 284 50 278 22 q 300 80 290 78 q 322 86 310 82 q 382 94 351 94 q 425 86 403 94 q 435 85 429 85 q 452 74 449 85 q 457 42 456 63 q 471 -31 460 14 q 477 -40 474 -35 q 481 -54 481 -44 l 479 -67 q 485 -105 479 -86 q 490 -143 490 -124 l 490 -150 q 500 -176 490 -164 q 518 -189 510 -189 q 531 -183 525 -189 q 538 -165 536 -176 q 539 -124 539 -139 q 541 -102 539 -108 q 551 -96 543 -96 l 557 -96 q 605 -101 588 -100 q 631 -104 622 -101 q 642 -117 639 -107 q 649 -151 644 -126 l 650 -225 q 667 -247 656 -247 q 688 -214 683 -247 q 689 -161 689 -200 l 689 -108 q 694 -96 689 -100 q 706 -87 699 -92 q 720 -76 713 -83 q 728 -50 728 -68 q 714 7 728 -26 q 681 154 699 53 q 628 369 653 317 q 608 445 608 406 q 599 512 608 485 q 588 569 589 539 q 595 583 588 578 q 603 599 603 588 q 574 672 596 640 q 538 764 551 704 q 506 838 529 804 q 465 872 482 872 l 388 872 q 338 868 364 872 q 286 864 313 864 l 276 864 q 243 853 256 864 q 224 826 231 843 q 195 723 207 792 q 179 601 183 654 q 171 564 178 582 q 163 538 165 551 q 131 426 154 478 q 106 369 119 404 q 83 304 93 335 q 72 268 72 274 q 92 246 72 251 q 100 239 100 244 l 99 235 q 78 167 85 201 q 51 68 68 118 q 28 -29 28 7 q 35 -58 28 -50 q 51 -71 42 -67 q 66 -81 60 -75 q 76 -99 72 -87 q 83 -146 83 -126 l 81 -194 q 101 -260 81 -260 m 428 329 l 379 329 q 350 332 365 329 q 366 408 353 369 q 382 490 379 446 q 399 468 396 481 l 415 399 q 431 335 431 347 q 428 329 431 331 m 417 931 q 432 934 425 931 q 443 940 439 938 q 450 944 447 943 q 472 972 472 956 q 453 1018 472 993 q 435 1051 442 1035 q 399 1137 417 1103 q 363 1171 382 1171 q 351 1168 357 1171 q 338 1165 344 1165 q 317 1169 326 1165 q 299 1172 307 1172 q 281 1165 289 1172 l 276 1165 q 257 1161 265 1165 q 243 1153 249 1157 q 233 1146 238 1149 q 222 1132 222 1139 q 233 1119 222 1126 q 274 1073 253 1106 q 338 993 294 1040 q 352 982 343 988 q 368 967 361 976 q 417 931 392 931 z "},"Á":{"ha":756,"x_min":28,"x_max":728,"o":"m 101 -260 q 126 -203 126 -260 l 126 -176 q 149 -97 126 -137 q 171 -86 158 -86 q 187 -93 181 -86 q 197 -100 193 -100 q 221 -124 221 -101 l 219 -150 q 224 -167 219 -160 q 236 -174 228 -174 q 253 -160 246 -174 q 260 -125 260 -146 l 260 -101 q 263 -78 260 -89 q 273 -13 268 -49 q 284 50 278 22 q 300 80 290 78 q 322 86 310 82 q 382 94 351 94 q 425 86 403 94 q 435 85 429 85 q 452 74 449 85 q 457 42 456 63 q 471 -31 460 14 q 477 -40 474 -35 q 481 -54 481 -44 l 479 -67 q 485 -105 479 -86 q 490 -143 490 -124 l 490 -150 q 500 -176 490 -164 q 518 -189 510 -189 q 531 -183 525 -189 q 538 -165 536 -176 q 539 -124 539 -139 q 541 -102 539 -108 q 551 -96 543 -96 l 557 -96 q 605 -101 588 -100 q 631 -104 622 -101 q 642 -117 639 -107 q 649 -151 644 -126 l 650 -225 q 667 -247 656 -247 q 688 -214 683 -247 q 689 -161 689 -200 l 689 -108 q 694 -96 689 -100 q 706 -87 699 -92 q 720 -76 713 -83 q 728 -50 728 -68 q 714 7 728 -26 q 681 154 699 53 q 628 369 653 317 q 608 445 608 406 q 599 512 608 485 q 588 569 589 539 q 595 583 588 578 q 603 599 603 588 q 574 672 596 640 q 538 764 551 704 q 506 838 529 804 q 465 872 482 872 l 388 872 q 338 868 364 872 q 286 864 313 864 l 276 864 q 243 853 256 864 q 224 826 231 843 q 195 723 207 792 q 179 601 183 654 q 171 564 178 582 q 163 538 165 551 q 131 426 154 478 q 106 369 119 404 q 83 304 93 335 q 72 268 72 274 q 92 246 72 251 q 100 239 100 244 l 99 235 q 78 167 85 201 q 51 68 68 118 q 28 -29 28 7 q 35 -58 28 -50 q 51 -71 42 -67 q 66 -81 60 -75 q 76 -99 72 -87 q 83 -146 83 -126 l 81 -194 q 101 -260 81 -260 m 428 329 l 379 329 q 350 332 365 329 q 366 408 353 369 q 382 490 379 446 q 399 468 396 481 l 415 399 q 431 335 431 347 q 428 329 431 331 m 369 942 q 417 978 394 942 q 434 993 425 988 q 449 1004 443 999 q 513 1084 492 1051 q 553 1131 533 1117 q 564 1143 564 1138 q 553 1157 564 1150 q 542 1164 549 1160 q 528 1172 536 1168 q 508 1176 521 1176 l 504 1176 q 488 1183 497 1183 q 469 1180 479 1183 q 449 1176 460 1176 q 435 1179 442 1176 q 424 1182 429 1182 q 387 1149 404 1182 q 351 1063 369 1115 q 333 1029 344 1046 q 314 983 314 1004 q 336 956 314 967 q 343 951 339 954 q 354 945 347 949 q 369 942 361 942 z "},"Â":{"ha":756,"x_min":28,"x_max":728,"o":"m 101 -260 q 126 -203 126 -260 l 126 -176 q 149 -97 126 -137 q 171 -86 158 -86 q 187 -93 181 -86 q 197 -100 193 -100 q 221 -124 221 -101 l 219 -150 q 224 -167 219 -160 q 236 -174 228 -174 q 253 -160 246 -174 q 260 -125 260 -146 l 260 -101 q 263 -78 260 -89 q 273 -13 268 -49 q 284 50 278 22 q 300 80 290 78 q 322 86 310 82 q 382 94 351 94 q 425 86 403 94 q 435 85 429 85 q 452 74 449 85 q 457 42 456 63 q 471 -31 460 14 q 477 -40 474 -35 q 481 -54 481 -44 l 479 -67 q 485 -105 479 -86 q 490 -143 490 -124 l 490 -150 q 500 -176 490 -164 q 518 -189 510 -189 q 531 -183 525 -189 q 538 -165 536 -176 q 539 -124 539 -139 q 541 -102 539 -108 q 551 -96 543 -96 l 557 -96 q 605 -101 588 -100 q 631 -104 622 -101 q 642 -117 639 -107 q 649 -151 644 -126 l 650 -225 q 667 -247 656 -247 q 688 -214 683 -247 q 689 -161 689 -200 l 689 -108 q 694 -96 689 -100 q 706 -87 699 -92 q 720 -76 713 -83 q 728 -50 728 -68 q 714 7 728 -26 q 681 154 699 53 q 628 369 653 317 q 608 445 608 406 q 599 512 608 485 q 588 569 589 539 q 595 583 588 578 q 603 599 603 588 q 574 672 596 640 q 538 764 551 704 q 506 838 529 804 q 465 872 482 872 l 388 872 q 338 868 364 872 q 286 864 313 864 l 276 864 q 243 853 256 864 q 224 826 231 843 q 195 723 207 792 q 179 601 183 654 q 171 564 178 582 q 163 538 165 551 q 131 426 154 478 q 106 369 119 404 q 83 304 93 335 q 72 268 72 274 q 92 246 72 251 q 100 239 100 244 l 99 235 q 78 167 85 201 q 51 68 68 118 q 28 -29 28 7 q 35 -58 28 -50 q 51 -71 42 -67 q 66 -81 60 -75 q 76 -99 72 -87 q 83 -146 83 -126 l 81 -194 q 101 -260 81 -260 m 428 329 l 379 329 q 350 332 365 329 q 366 408 353 369 q 382 490 379 446 q 399 468 396 481 l 415 399 q 431 335 431 347 q 428 329 431 331 m 451 954 q 500 960 475 954 q 513 962 506 961 q 524 968 521 963 q 528 982 526 974 q 519 992 528 988 q 472 1054 504 1008 q 364 1175 389 1171 q 353 1171 357 1175 q 347 1160 350 1167 q 338 1150 343 1154 q 294 1102 311 1129 q 254 1056 276 1075 q 219 1010 232 1036 q 210 993 215 1001 q 206 979 206 985 q 228 958 206 961 l 264 958 l 306 954 q 341 965 331 954 q 357 988 351 976 q 367 999 363 999 q 378 990 371 999 q 451 954 406 954 z "},"Ã":{"ha":756,"x_min":28,"x_max":728,"o":"m 101 -260 q 126 -203 126 -260 l 126 -176 q 149 -97 126 -137 q 171 -86 158 -86 q 187 -93 181 -86 q 197 -100 193 -100 q 221 -124 221 -101 l 219 -150 q 224 -167 219 -160 q 236 -174 228 -174 q 253 -160 246 -174 q 260 -125 260 -146 l 260 -101 q 263 -78 260 -89 q 273 -13 268 -49 q 284 50 278 22 q 300 80 290 78 q 322 86 310 82 q 382 94 351 94 q 425 86 403 94 q 435 85 429 85 q 452 74 449 85 q 457 42 456 63 q 471 -31 460 14 q 477 -40 474 -35 q 481 -54 481 -44 l 479 -67 q 485 -105 479 -86 q 490 -143 490 -124 l 490 -150 q 500 -176 490 -164 q 518 -189 510 -189 q 531 -183 525 -189 q 538 -165 536 -176 q 539 -124 539 -139 q 541 -102 539 -108 q 551 -96 543 -96 l 557 -96 q 605 -101 588 -100 q 631 -104 622 -101 q 642 -117 639 -107 q 649 -151 644 -126 l 650 -225 q 667 -247 656 -247 q 688 -214 683 -247 q 689 -161 689 -200 l 689 -108 q 694 -96 689 -100 q 706 -87 699 -92 q 720 -76 713 -83 q 728 -50 728 -68 q 714 7 728 -26 q 681 154 699 53 q 628 369 653 317 q 608 445 608 406 q 599 512 608 485 q 588 569 589 539 q 595 583 588 578 q 603 599 603 588 q 574 672 596 640 q 538 764 551 704 q 506 838 529 804 q 465 872 482 872 l 388 872 q 338 868 364 872 q 286 864 313 864 l 276 864 q 243 853 256 864 q 224 826 231 843 q 195 723 207 792 q 179 601 183 654 q 171 564 178 582 q 163 538 165 551 q 131 426 154 478 q 106 369 119 404 q 83 304 93 335 q 72 268 72 274 q 92 246 72 251 q 100 239 100 244 l 99 235 q 78 167 85 201 q 51 68 68 118 q 28 -29 28 7 q 35 -58 28 -50 q 51 -71 42 -67 q 66 -81 60 -75 q 76 -99 72 -87 q 83 -146 83 -126 l 81 -194 q 101 -260 81 -260 m 428 329 l 379 329 q 350 332 365 329 q 366 408 353 369 q 382 490 379 446 q 399 468 396 481 l 415 399 q 431 335 431 347 q 428 329 431 331 m 433 931 q 478 940 460 931 q 554 1063 554 1004 q 550 1088 554 1078 q 510 1106 542 1106 q 460 1086 483 1106 q 452 1069 456 1082 q 443 1043 449 1056 q 426 1031 438 1031 q 403 1044 417 1031 q 381 1070 389 1057 q 356 1095 372 1083 q 292 1115 339 1107 q 236 1096 261 1110 q 192 1028 203 1076 q 179 997 189 1011 q 176 988 176 992 q 198 960 176 972 q 238 949 219 949 q 253 953 243 949 q 274 965 264 958 q 286 975 283 971 q 299 994 292 994 q 317 982 306 994 l 383 940 q 433 931 400 931 z "},"Ä":{"ha":756,"x_min":28,"x_max":728,"o":"m 101 -260 q 126 -203 126 -260 l 126 -176 q 149 -97 126 -137 q 171 -86 158 -86 q 187 -93 181 -86 q 197 -100 193 -100 q 221 -124 221 -101 l 219 -150 q 224 -167 219 -160 q 236 -174 228 -174 q 253 -160 246 -174 q 260 -125 260 -146 l 260 -101 q 263 -78 260 -89 q 273 -13 268 -49 q 284 50 278 22 q 300 80 290 78 q 322 86 310 82 q 382 94 351 94 q 425 86 403 94 q 435 85 429 85 q 452 74 449 85 q 457 42 456 63 q 471 -31 460 14 q 477 -40 474 -35 q 481 -54 481 -44 l 479 -67 q 485 -105 479 -86 q 490 -143 490 -124 l 490 -150 q 500 -176 490 -164 q 518 -189 510 -189 q 531 -183 525 -189 q 538 -165 536 -176 q 539 -124 539 -139 q 541 -102 539 -108 q 551 -96 543 -96 l 557 -96 q 605 -101 588 -100 q 631 -104 622 -101 q 642 -117 639 -107 q 649 -151 644 -126 l 650 -225 q 667 -247 656 -247 q 688 -214 683 -247 q 689 -161 689 -200 l 689 -108 q 694 -96 689 -100 q 706 -87 699 -92 q 720 -76 713 -83 q 728 -50 728 -68 q 714 7 728 -26 q 681 154 699 53 q 628 369 653 317 q 608 445 608 406 q 599 512 608 485 q 588 569 589 539 q 595 583 588 578 q 603 599 603 588 q 574 672 596 640 q 538 764 551 704 q 506 838 529 804 q 465 872 482 872 l 388 872 q 338 868 364 872 q 286 864 313 864 l 276 864 q 243 853 256 864 q 224 826 231 843 q 195 723 207 792 q 179 601 183 654 q 171 564 178 582 q 163 538 165 551 q 131 426 154 478 q 106 369 119 404 q 83 304 93 335 q 72 268 72 274 q 92 246 72 251 q 100 239 100 244 l 99 235 q 78 167 85 201 q 51 68 68 118 q 28 -29 28 7 q 35 -58 28 -50 q 51 -71 42 -67 q 66 -81 60 -75 q 76 -99 72 -87 q 83 -146 83 -126 l 81 -194 q 101 -260 81 -260 m 428 329 l 379 329 q 350 332 365 329 q 366 408 353 369 q 382 490 379 446 q 399 468 396 481 l 415 399 q 431 335 431 347 q 428 329 431 331 m 483 914 l 500 918 q 553 954 535 922 l 563 968 q 572 999 572 982 q 553 1049 572 1024 q 504 1082 533 1074 l 496 1085 q 474 1089 485 1089 q 449 1079 461 1089 l 435 1069 q 394 992 394 1049 q 423 933 394 950 q 483 914 451 915 m 263 917 q 319 942 299 917 q 340 999 340 968 q 319 1052 340 1028 q 254 1079 299 1076 q 203 1056 228 1079 q 178 1003 178 1033 l 178 996 q 202 938 178 958 q 263 917 226 917 z "},"Å":{"ha":756,"x_min":28,"x_max":728,"o":"m 101 -260 q 126 -203 126 -260 l 126 -176 q 149 -97 126 -137 q 171 -86 158 -86 q 187 -93 181 -86 q 197 -100 193 -100 q 221 -124 221 -101 l 219 -150 q 224 -167 219 -160 q 236 -174 228 -174 q 253 -160 246 -174 q 260 -125 260 -146 l 260 -101 q 263 -78 260 -89 q 273 -13 268 -49 q 284 50 278 22 q 300 80 290 78 q 322 86 310 82 q 382 94 351 94 q 425 86 403 94 q 435 85 429 85 q 452 74 449 85 q 457 42 456 63 q 471 -31 460 14 q 477 -40 474 -35 q 481 -54 481 -44 l 479 -67 q 485 -105 479 -86 q 490 -143 490 -124 l 490 -150 q 500 -176 490 -164 q 518 -189 510 -189 q 531 -183 525 -189 q 538 -165 536 -176 q 539 -124 539 -139 q 541 -102 539 -108 q 551 -96 543 -96 l 557 -96 q 605 -101 588 -100 q 631 -104 622 -101 q 642 -117 639 -107 q 649 -151 644 -126 l 650 -225 q 667 -247 656 -247 q 688 -214 683 -247 q 689 -161 689 -200 l 689 -108 q 694 -96 689 -100 q 706 -87 699 -92 q 720 -76 713 -83 q 728 -50 728 -68 q 714 7 728 -26 q 681 154 699 53 q 628 369 653 317 q 608 445 608 406 q 599 512 608 485 q 588 569 589 539 q 595 583 588 578 q 603 599 603 588 q 574 672 596 640 q 538 764 551 704 q 506 838 529 804 q 465 872 482 872 l 388 872 q 338 868 364 872 q 286 864 313 864 l 276 864 q 243 853 256 864 q 224 826 231 843 q 195 723 207 792 q 179 601 183 654 q 171 564 178 582 q 163 538 165 551 q 131 426 154 478 q 106 369 119 404 q 83 304 93 335 q 72 268 72 274 q 92 246 72 251 q 100 239 100 244 l 99 235 q 78 167 85 201 q 51 68 68 118 q 28 -29 28 7 q 35 -58 28 -50 q 51 -71 42 -67 q 66 -81 60 -75 q 76 -99 72 -87 q 83 -146 83 -126 l 81 -194 q 101 -260 81 -260 m 428 329 l 379 329 q 350 332 365 329 q 366 408 353 369 q 382 490 379 446 q 399 468 396 481 l 415 399 q 431 335 431 347 q 428 329 431 331 m 347 907 q 419 933 385 907 q 453 1001 453 960 l 453 1017 q 420 1082 453 1054 q 351 1110 388 1110 q 285 1079 315 1110 q 253 1013 256 1049 q 281 941 253 972 q 347 907 310 910 m 350 939 q 304 963 324 940 q 285 1013 285 985 q 308 1057 288 1036 q 353 1078 329 1078 q 400 1059 378 1078 q 422 1014 422 1040 l 422 1004 q 399 958 422 976 q 350 939 375 939 z "},"Æ":{"ha":1614,"x_min":28,"x_max":1207,"o":"m 101 -260 q 126 -203 126 -260 l 126 -176 q 149 -97 126 -137 q 171 -86 158 -86 q 187 -93 181 -86 q 197 -100 193 -100 q 221 -124 221 -101 l 219 -150 q 224 -167 219 -160 q 236 -174 228 -174 q 253 -160 246 -174 q 260 -125 260 -146 l 260 -101 q 263 -78 260 -89 q 273 -13 268 -49 q 284 50 278 22 q 300 80 290 78 q 322 86 310 82 q 382 94 351 94 q 425 86 403 94 q 435 85 429 85 q 452 74 449 85 q 457 42 456 63 q 471 -31 460 14 q 477 -40 474 -35 q 481 -54 481 -44 l 479 -67 q 485 -105 479 -86 q 490 -143 490 -124 l 490 -150 q 500 -176 490 -164 q 518 -189 510 -189 q 531 -183 525 -189 q 538 -165 536 -176 q 539 -124 539 -139 q 541 -102 539 -108 q 551 -96 543 -96 l 557 -96 q 605 -101 588 -100 q 631 -104 622 -101 q 642 -117 639 -107 q 649 -151 644 -126 l 650 -225 q 667 -247 656 -247 q 688 -214 683 -247 q 689 -161 689 -200 l 689 -108 q 694 -96 689 -100 q 706 -87 699 -92 q 720 -76 713 -83 q 728 -50 728 -68 q 714 7 728 -26 q 681 154 699 53 q 628 369 653 317 q 608 445 608 406 q 599 512 608 485 q 588 569 589 539 q 595 583 588 578 q 603 599 603 588 q 574 672 596 640 q 538 764 551 704 q 506 838 529 804 q 465 872 482 872 l 388 872 q 338 868 364 872 q 286 864 313 864 l 276 864 q 243 853 256 864 q 224 826 231 843 q 195 723 207 792 q 179 601 183 654 q 171 564 178 582 q 163 538 165 551 q 131 426 154 478 q 106 369 119 404 q 83 304 93 335 q 72 268 72 274 q 92 246 72 251 q 100 239 100 244 l 99 235 q 78 167 85 201 q 51 68 68 118 q 28 -29 28 7 q 35 -58 28 -50 q 51 -71 42 -67 q 66 -81 60 -75 q 76 -99 72 -87 q 83 -146 83 -126 l 81 -194 q 101 -260 81 -260 m 428 329 l 379 329 q 350 332 365 329 q 366 408 353 369 q 382 490 379 446 q 399 468 396 481 l 415 399 q 431 335 431 347 q 428 329 431 331 m 660 -447 q 685 -415 672 -447 q 692 -360 692 -387 l 692 -350 l 693 -312 q 717 -183 703 -228 q 752 -123 732 -139 q 799 -107 772 -107 q 847 -112 821 -107 q 919 -119 879 -119 q 945 -122 933 -119 q 968 -124 957 -124 q 988 -122 979 -124 q 1014 -121 997 -121 q 1069 -124 1042 -121 q 1088 -125 1078 -125 q 1104 -127 1099 -125 q 1112 -138 1110 -129 q 1117 -158 1114 -147 q 1126 -210 1126 -183 q 1123 -235 1126 -222 q 1119 -257 1119 -247 q 1128 -283 1119 -274 q 1150 -293 1138 -293 q 1176 -278 1164 -293 q 1193 -232 1189 -264 q 1206 -36 1206 -106 q 1193 56 1206 26 q 1151 103 1181 86 q 1078 122 1129 115 q 993 128 1026 128 q 951 125 968 126 q 915 124 935 124 q 844 137 860 124 q 829 171 829 150 q 831 195 829 182 q 833 224 833 208 q 829 246 833 238 l 828 257 q 835 264 828 264 q 847 260 842 263 q 860 258 853 258 q 876 262 868 258 q 899 269 885 265 q 950 272 914 272 q 963 264 963 272 q 960 244 963 254 q 958 222 958 235 q 981 193 958 193 q 997 201 994 193 q 999 221 999 210 l 999 232 q 1010 304 999 271 q 1026 385 1026 342 l 1026 439 q 1008 483 1026 474 q 967 493 990 493 l 931 492 q 899 495 910 492 q 881 499 889 499 q 849 493 860 499 q 839 490 843 490 q 833 500 835 490 q 828 532 832 515 q 825 567 825 549 q 829 593 825 581 l 829 610 q 854 631 829 631 q 885 625 869 629 q 914 621 900 621 q 926 622 921 621 q 975 628 950 628 l 1021 628 q 1044 625 1032 628 q 1068 622 1056 622 q 1083 624 1078 622 q 1093 626 1088 625 q 1106 592 1106 626 q 1103 548 1106 574 q 1100 499 1100 522 q 1124 449 1100 450 q 1146 463 1140 449 q 1153 492 1151 476 q 1189 656 1168 604 q 1201 701 1196 679 q 1207 749 1207 722 l 1207 767 q 1201 828 1207 799 q 1163 864 1194 858 q 1092 868 1119 868 q 1031 863 1047 868 q 997 858 1015 858 q 897 856 926 858 q 833 854 867 854 q 726 860 764 854 q 678 863 700 863 q 604 846 642 863 q 572 814 578 832 q 565 778 565 796 l 565 771 q 560 729 565 757 q 550 651 550 675 q 564 629 550 629 l 569 629 q 579 622 578 629 q 578 611 578 619 l 576 603 q 580 572 576 588 q 583 539 583 556 q 581 455 582 517 q 576 335 579 393 l 575 267 q 578 241 575 254 q 581 204 581 228 q 569 88 571 129 q 565 38 568 57 q 551 1 561 18 q 547 -12 547 -6 q 553 -36 547 -25 q 577 -105 574 -93 q 583 -122 581 -117 q 592 -133 585 -128 q 615 -180 610 -154 q 619 -239 619 -206 l 619 -247 q 635 -371 619 -296 l 633 -393 q 660 -447 633 -447 z "},"È":{"ha":717,"x_min":28,"x_max":688,"o":"m 140 -447 q 165 -415 153 -447 q 172 -360 172 -387 l 172 -350 l 174 -312 q 198 -183 183 -228 q 233 -123 213 -139 q 279 -107 253 -107 q 328 -112 301 -107 q 400 -119 360 -119 q 426 -122 414 -119 q 449 -124 438 -124 q 469 -122 460 -124 q 494 -121 478 -121 q 550 -124 522 -121 q 569 -125 558 -125 q 585 -127 579 -125 q 592 -138 590 -129 q 597 -158 594 -147 q 607 -210 607 -183 q 603 -235 607 -222 q 600 -257 600 -247 q 609 -283 600 -274 q 631 -293 618 -293 q 657 -278 644 -293 q 674 -232 669 -264 q 686 -36 686 -106 q 674 56 686 26 q 632 103 661 86 q 558 122 610 115 q 474 128 507 128 q 432 125 449 126 q 396 124 415 124 q 325 137 340 124 q 310 171 310 150 q 312 195 310 182 q 314 224 314 208 q 310 246 314 238 l 308 257 q 315 264 308 264 q 328 260 322 263 q 340 258 333 258 q 357 262 349 258 q 380 269 365 265 q 431 272 394 272 q 443 264 443 272 q 441 244 443 254 q 439 222 439 235 q 461 193 439 193 q 477 201 475 193 q 479 221 479 210 l 479 232 q 490 304 479 271 q 507 385 507 342 l 507 439 q 489 483 507 474 q 447 493 471 493 l 411 492 q 380 495 390 492 q 361 499 369 499 q 329 493 340 499 q 319 490 324 490 q 314 500 315 490 q 309 532 313 515 q 306 567 306 549 q 310 593 306 581 l 310 610 q 335 631 310 631 q 365 625 350 629 q 394 621 381 621 q 407 622 401 621 q 456 628 431 628 l 501 628 q 524 625 513 628 q 549 622 536 622 q 563 624 558 622 q 574 626 568 625 q 586 592 586 626 q 583 548 586 574 q 581 499 581 522 q 604 449 581 450 q 626 463 621 449 q 633 492 632 476 q 669 656 649 604 q 682 701 676 679 q 688 749 688 722 l 688 767 q 681 828 688 799 q 643 864 675 858 q 572 868 600 868 q 512 863 528 868 q 478 858 496 858 q 377 856 407 858 q 314 854 347 854 q 207 860 244 854 q 158 863 181 863 q 85 846 122 863 q 52 814 58 832 q 46 778 46 796 l 46 771 q 40 729 46 757 q 31 651 31 675 q 44 629 31 629 l 50 629 q 60 622 58 629 q 58 611 58 619 l 57 603 q 60 572 57 588 q 64 539 64 556 q 61 455 63 517 q 57 335 60 393 l 56 267 q 58 241 56 254 q 61 204 61 228 q 50 88 51 129 q 45 38 49 57 q 32 1 42 18 q 28 -12 28 -6 q 33 -36 28 -25 q 58 -105 54 -93 q 63 -122 61 -117 q 72 -133 65 -128 q 95 -180 90 -154 q 100 -239 100 -206 l 100 -247 q 115 -371 100 -296 l 114 -393 q 140 -447 114 -447 m 451 899 q 467 902 460 899 q 478 908 474 906 q 485 913 482 911 q 507 940 507 924 q 488 986 507 961 q 469 1019 476 1003 q 434 1105 451 1071 q 397 1139 417 1139 q 385 1136 392 1139 q 372 1133 379 1133 q 351 1137 361 1133 q 333 1140 342 1140 q 315 1133 324 1140 l 311 1133 q 292 1129 300 1133 q 278 1121 283 1125 q 268 1114 272 1117 q 257 1100 257 1107 q 268 1088 257 1094 q 308 1041 288 1074 q 372 961 329 1008 q 387 950 378 956 q 403 935 396 944 q 451 899 426 899 z "},"É":{"ha":717,"x_min":28,"x_max":688,"o":"m 140 -447 q 165 -415 153 -447 q 172 -360 172 -387 l 172 -350 l 174 -312 q 198 -183 183 -228 q 233 -123 213 -139 q 279 -107 253 -107 q 328 -112 301 -107 q 400 -119 360 -119 q 426 -122 414 -119 q 449 -124 438 -124 q 469 -122 460 -124 q 494 -121 478 -121 q 550 -124 522 -121 q 569 -125 558 -125 q 585 -127 579 -125 q 592 -138 590 -129 q 597 -158 594 -147 q 607 -210 607 -183 q 603 -235 607 -222 q 600 -257 600 -247 q 609 -283 600 -274 q 631 -293 618 -293 q 657 -278 644 -293 q 674 -232 669 -264 q 686 -36 686 -106 q 674 56 686 26 q 632 103 661 86 q 558 122 610 115 q 474 128 507 128 q 432 125 449 126 q 396 124 415 124 q 325 137 340 124 q 310 171 310 150 q 312 195 310 182 q 314 224 314 208 q 310 246 314 238 l 308 257 q 315 264 308 264 q 328 260 322 263 q 340 258 333 258 q 357 262 349 258 q 380 269 365 265 q 431 272 394 272 q 443 264 443 272 q 441 244 443 254 q 439 222 439 235 q 461 193 439 193 q 477 201 475 193 q 479 221 479 210 l 479 232 q 490 304 479 271 q 507 385 507 342 l 507 439 q 489 483 507 474 q 447 493 471 493 l 411 492 q 380 495 390 492 q 361 499 369 499 q 329 493 340 499 q 319 490 324 490 q 314 500 315 490 q 309 532 313 515 q 306 567 306 549 q 310 593 306 581 l 310 610 q 335 631 310 631 q 365 625 350 629 q 394 621 381 621 q 407 622 401 621 q 456 628 431 628 l 501 628 q 524 625 513 628 q 549 622 536 622 q 563 624 558 622 q 574 626 568 625 q 586 592 586 626 q 583 548 586 574 q 581 499 581 522 q 604 449 581 450 q 626 463 621 449 q 633 492 632 476 q 669 656 649 604 q 682 701 676 679 q 688 749 688 722 l 688 767 q 681 828 688 799 q 643 864 675 858 q 572 868 600 868 q 512 863 528 868 q 478 858 496 858 q 377 856 407 858 q 314 854 347 854 q 207 860 244 854 q 158 863 181 863 q 85 846 122 863 q 52 814 58 832 q 46 778 46 796 l 46 771 q 40 729 46 757 q 31 651 31 675 q 44 629 31 629 l 50 629 q 60 622 58 629 q 58 611 58 619 l 57 603 q 60 572 57 588 q 64 539 64 556 q 61 455 63 517 q 57 335 60 393 l 56 267 q 58 241 56 254 q 61 204 61 228 q 50 88 51 129 q 45 38 49 57 q 32 1 42 18 q 28 -12 28 -6 q 33 -36 28 -25 q 58 -105 54 -93 q 63 -122 61 -117 q 72 -133 65 -128 q 95 -180 90 -154 q 100 -239 100 -206 l 100 -247 q 115 -371 100 -296 l 114 -393 q 140 -447 114 -447 m 399 913 q 446 949 424 913 q 463 964 454 958 q 478 975 472 969 q 542 1055 521 1022 q 582 1101 563 1088 q 593 1114 593 1108 q 582 1128 593 1121 q 572 1135 578 1131 q 558 1143 565 1139 q 538 1147 550 1147 l 533 1147 q 517 1154 526 1154 q 499 1151 508 1154 q 478 1147 489 1147 q 465 1150 471 1147 q 453 1153 458 1153 q 416 1119 433 1153 q 381 1033 399 1086 q 363 1000 374 1017 q 343 954 343 975 q 365 926 343 938 q 372 922 368 925 q 383 916 376 919 q 399 913 390 913 z "},"Ê":{"ha":717,"x_min":28,"x_max":688,"o":"m 140 -447 q 165 -415 153 -447 q 172 -360 172 -387 l 172 -350 l 174 -312 q 198 -183 183 -228 q 233 -123 213 -139 q 279 -107 253 -107 q 328 -112 301 -107 q 400 -119 360 -119 q 426 -122 414 -119 q 449 -124 438 -124 q 469 -122 460 -124 q 494 -121 478 -121 q 550 -124 522 -121 q 569 -125 558 -125 q 585 -127 579 -125 q 592 -138 590 -129 q 597 -158 594 -147 q 607 -210 607 -183 q 603 -235 607 -222 q 600 -257 600 -247 q 609 -283 600 -274 q 631 -293 618 -293 q 657 -278 644 -293 q 674 -232 669 -264 q 686 -36 686 -106 q 674 56 686 26 q 632 103 661 86 q 558 122 610 115 q 474 128 507 128 q 432 125 449 126 q 396 124 415 124 q 325 137 340 124 q 310 171 310 150 q 312 195 310 182 q 314 224 314 208 q 310 246 314 238 l 308 257 q 315 264 308 264 q 328 260 322 263 q 340 258 333 258 q 357 262 349 258 q 380 269 365 265 q 431 272 394 272 q 443 264 443 272 q 441 244 443 254 q 439 222 439 235 q 461 193 439 193 q 477 201 475 193 q 479 221 479 210 l 479 232 q 490 304 479 271 q 507 385 507 342 l 507 439 q 489 483 507 474 q 447 493 471 493 l 411 492 q 380 495 390 492 q 361 499 369 499 q 329 493 340 499 q 319 490 324 490 q 314 500 315 490 q 309 532 313 515 q 306 567 306 549 q 310 593 306 581 l 310 610 q 335 631 310 631 q 365 625 350 629 q 394 621 381 621 q 407 622 401 621 q 456 628 431 628 l 501 628 q 524 625 513 628 q 549 622 536 622 q 563 624 558 622 q 574 626 568 625 q 586 592 586 626 q 583 548 586 574 q 581 499 581 522 q 604 449 581 450 q 626 463 621 449 q 633 492 632 476 q 669 656 649 604 q 682 701 676 679 q 688 749 688 722 l 688 767 q 681 828 688 799 q 643 864 675 858 q 572 868 600 868 q 512 863 528 868 q 478 858 496 858 q 377 856 407 858 q 314 854 347 854 q 207 860 244 854 q 158 863 181 863 q 85 846 122 863 q 52 814 58 832 q 46 778 46 796 l 46 771 q 40 729 46 757 q 31 651 31 675 q 44 629 31 629 l 50 629 q 60 622 58 629 q 58 611 58 619 l 57 603 q 60 572 57 588 q 64 539 64 556 q 61 455 63 517 q 57 335 60 393 l 56 267 q 58 241 56 254 q 61 204 61 228 q 50 88 51 129 q 45 38 49 57 q 32 1 42 18 q 28 -12 28 -6 q 33 -36 28 -25 q 58 -105 54 -93 q 63 -122 61 -117 q 72 -133 65 -128 q 95 -180 90 -154 q 100 -239 100 -206 l 100 -247 q 115 -371 100 -296 l 114 -393 q 140 -447 114 -447 m 497 932 q 546 938 521 932 q 559 940 551 939 q 569 946 567 940 q 574 960 572 951 q 565 969 574 965 q 518 1032 550 986 q 410 1153 435 1149 q 399 1149 403 1153 q 392 1138 396 1144 q 383 1128 389 1132 q 340 1080 357 1107 q 300 1033 322 1053 q 265 988 278 1014 q 256 971 261 979 q 251 957 251 963 q 274 936 251 939 l 310 936 l 351 932 q 387 943 376 932 q 403 965 397 954 q 413 976 408 976 q 424 968 417 976 q 497 932 451 932 z "},"Ë":{"ha":717,"x_min":28,"x_max":688,"o":"m 140 -447 q 165 -415 153 -447 q 172 -360 172 -387 l 172 -350 l 174 -312 q 198 -183 183 -228 q 233 -123 213 -139 q 279 -107 253 -107 q 328 -112 301 -107 q 400 -119 360 -119 q 426 -122 414 -119 q 449 -124 438 -124 q 469 -122 460 -124 q 494 -121 478 -121 q 550 -124 522 -121 q 569 -125 558 -125 q 585 -127 579 -125 q 592 -138 590 -129 q 597 -158 594 -147 q 607 -210 607 -183 q 603 -235 607 -222 q 600 -257 600 -247 q 609 -283 600 -274 q 631 -293 618 -293 q 657 -278 644 -293 q 674 -232 669 -264 q 686 -36 686 -106 q 674 56 686 26 q 632 103 661 86 q 558 122 610 115 q 474 128 507 128 q 432 125 449 126 q 396 124 415 124 q 325 137 340 124 q 310 171 310 150 q 312 195 310 182 q 314 224 314 208 q 310 246 314 238 l 308 257 q 315 264 308 264 q 328 260 322 263 q 340 258 333 258 q 357 262 349 258 q 380 269 365 265 q 431 272 394 272 q 443 264 443 272 q 441 244 443 254 q 439 222 439 235 q 461 193 439 193 q 477 201 475 193 q 479 221 479 210 l 479 232 q 490 304 479 271 q 507 385 507 342 l 507 439 q 489 483 507 474 q 447 493 471 493 l 411 492 q 380 495 390 492 q 361 499 369 499 q 329 493 340 499 q 319 490 324 490 q 314 500 315 490 q 309 532 313 515 q 306 567 306 549 q 310 593 306 581 l 310 610 q 335 631 310 631 q 365 625 350 629 q 394 621 381 621 q 407 622 401 621 q 456 628 431 628 l 501 628 q 524 625 513 628 q 549 622 536 622 q 563 624 558 622 q 574 626 568 625 q 586 592 586 626 q 583 548 586 574 q 581 499 581 522 q 604 449 581 450 q 626 463 621 449 q 633 492 632 476 q 669 656 649 604 q 682 701 676 679 q 688 749 688 722 l 688 767 q 681 828 688 799 q 643 864 675 858 q 572 868 600 868 q 512 863 528 868 q 478 858 496 858 q 377 856 407 858 q 314 854 347 854 q 207 860 244 854 q 158 863 181 863 q 85 846 122 863 q 52 814 58 832 q 46 778 46 796 l 46 771 q 40 729 46 757 q 31 651 31 675 q 44 629 31 629 l 50 629 q 60 622 58 629 q 58 611 58 619 l 57 603 q 60 572 57 588 q 64 539 64 556 q 61 455 63 517 q 57 335 60 393 l 56 267 q 58 241 56 254 q 61 204 61 228 q 50 88 51 129 q 45 38 49 57 q 32 1 42 18 q 28 -12 28 -6 q 33 -36 28 -25 q 58 -105 54 -93 q 63 -122 61 -117 q 72 -133 65 -128 q 95 -180 90 -154 q 100 -239 100 -206 l 100 -247 q 115 -371 100 -296 l 114 -393 q 140 -447 114 -447 m 499 918 l 515 922 q 568 958 550 926 l 578 972 q 588 1003 588 986 q 568 1053 588 1028 q 519 1086 549 1078 l 511 1089 q 489 1093 500 1093 q 464 1083 476 1093 l 450 1074 q 410 996 410 1053 q 438 937 410 954 q 499 918 467 919 m 278 921 q 335 947 314 921 q 356 1003 356 972 q 335 1056 356 1032 q 269 1083 314 1081 q 218 1060 243 1083 q 193 1007 193 1038 l 193 1000 q 217 942 193 963 q 278 921 242 921 z "},"Ì":{"ha":335,"x_min":14,"x_max":307,"o":"m 82 -312 q 95 -297 92 -312 q 99 -242 99 -281 l 97 -226 q 111 -162 97 -194 l 119 -133 q 131 -125 122 -125 l 188 -122 q 205 -125 201 -122 q 213 -179 208 -128 l 217 -219 q 227 -249 219 -242 q 240 -257 235 -257 q 253 -244 249 -257 q 275 -101 275 -160 l 275 -79 q 278 -69 275 -74 q 290 -37 290 -56 q 283 3 290 -19 q 271 78 274 31 q 274 119 271 99 q 276 163 276 140 l 275 185 q 288 199 275 194 q 307 224 307 204 l 300 279 q 290 342 299 311 q 276 411 276 376 q 278 433 276 421 q 281 482 281 446 q 277 599 281 531 q 274 714 274 667 q 277 765 274 754 q 281 790 281 776 q 269 841 281 817 q 233 865 258 865 q 212 862 221 864 q 185 860 203 860 q 138 865 158 860 q 104 869 118 869 q 65 853 81 869 q 40 815 49 836 q 32 781 32 793 l 33 757 q 38 699 38 739 q 29 600 38 663 l 28 578 q 36 552 28 560 q 44 531 44 544 l 44 399 q 47 269 44 321 l 47 239 q 46 221 47 229 q 44 203 44 213 l 44 194 q 46 142 46 178 q 42 -3 46 68 l 39 -58 q 44 -118 39 -75 q 53 -200 49 -161 q 58 -251 57 -239 l 58 -269 q 66 -299 58 -286 q 82 -312 74 -312 m 208 907 q 224 910 217 907 q 235 917 231 914 q 242 921 239 919 q 264 949 264 932 q 244 994 264 969 q 226 1028 233 1011 q 191 1113 208 1079 q 154 1147 174 1147 q 142 1144 149 1147 q 129 1142 136 1142 q 108 1145 118 1142 q 90 1149 99 1149 q 72 1142 81 1149 l 68 1142 q 49 1138 57 1142 q 35 1129 40 1133 q 25 1122 29 1125 q 14 1108 14 1115 q 25 1096 14 1103 q 65 1049 44 1082 q 129 969 86 1017 q 144 958 135 964 q 160 943 153 953 q 208 907 183 907 z "},"Í":{"ha":335,"x_min":28,"x_max":371,"o":"m 82 -312 q 95 -297 92 -312 q 99 -242 99 -281 l 97 -226 q 111 -162 97 -194 l 119 -133 q 131 -125 122 -125 l 188 -122 q 205 -125 201 -122 q 213 -179 208 -128 l 217 -219 q 227 -249 219 -242 q 240 -257 235 -257 q 253 -244 249 -257 q 275 -101 275 -160 l 275 -79 q 278 -69 275 -74 q 290 -37 290 -56 q 283 3 290 -19 q 271 78 274 31 q 274 119 271 99 q 276 163 276 140 l 275 185 q 288 199 275 194 q 307 224 307 204 l 300 279 q 290 342 299 311 q 276 411 276 376 q 278 433 276 421 q 281 482 281 446 q 277 599 281 531 q 274 714 274 667 q 277 765 274 754 q 281 790 281 776 q 269 841 281 817 q 233 865 258 865 q 212 862 221 864 q 185 860 203 860 q 138 865 158 860 q 104 869 118 869 q 65 853 81 869 q 40 815 49 836 q 32 781 32 793 l 33 757 q 38 699 38 739 q 29 600 38 663 l 28 578 q 36 552 28 560 q 44 531 44 544 l 44 399 q 47 269 44 321 l 47 239 q 46 221 47 229 q 44 203 44 213 l 44 194 q 46 142 46 178 q 42 -3 46 68 l 39 -58 q 44 -118 39 -75 q 53 -200 49 -161 q 58 -251 57 -239 l 58 -269 q 66 -299 58 -286 q 82 -312 74 -312 m 176 910 q 224 946 201 910 q 241 961 232 956 q 256 972 250 967 q 319 1052 299 1019 q 360 1099 340 1085 q 371 1111 371 1106 q 360 1125 371 1118 q 349 1132 356 1128 q 335 1140 343 1136 q 315 1144 328 1144 l 311 1144 q 294 1151 304 1151 q 276 1148 286 1151 q 256 1144 267 1144 q 242 1147 249 1144 q 231 1150 236 1150 q 194 1117 211 1150 q 158 1031 176 1083 q 140 997 151 1014 q 121 951 121 972 q 143 924 121 935 q 150 919 146 922 q 161 913 154 917 q 176 910 168 910 z "},"Î":{"ha":335,"x_min":6,"x_max":328,"o":"m 82 -312 q 95 -297 92 -312 q 99 -242 99 -281 l 97 -226 q 111 -162 97 -194 l 119 -133 q 131 -125 122 -125 l 188 -122 q 205 -125 201 -122 q 213 -179 208 -128 l 217 -219 q 227 -249 219 -242 q 240 -257 235 -257 q 253 -244 249 -257 q 275 -101 275 -160 l 275 -79 q 278 -69 275 -74 q 290 -37 290 -56 q 283 3 290 -19 q 271 78 274 31 q 274 119 271 99 q 276 163 276 140 l 275 185 q 288 199 275 194 q 307 224 307 204 l 300 279 q 290 342 299 311 q 276 411 276 376 q 278 433 276 421 q 281 482 281 446 q 277 599 281 531 q 274 714 274 667 q 277 765 274 754 q 281 790 281 776 q 269 841 281 817 q 233 865 258 865 q 212 862 221 864 q 185 860 203 860 q 138 865 158 860 q 104 869 118 869 q 65 853 81 869 q 40 815 49 836 q 32 781 32 793 l 33 757 q 38 699 38 739 q 29 600 38 663 l 28 578 q 36 552 28 560 q 44 531 44 544 l 44 399 q 47 269 44 321 l 47 239 q 46 221 47 229 q 44 203 44 213 l 44 194 q 46 142 46 178 q 42 -3 46 68 l 39 -58 q 44 -118 39 -75 q 53 -200 49 -161 q 58 -251 57 -239 l 58 -269 q 66 -299 58 -286 q 82 -312 74 -312 m 251 922 q 300 928 275 922 q 313 930 306 929 q 324 936 321 931 q 328 950 326 942 q 319 960 328 956 q 272 1022 304 976 q 164 1143 189 1139 q 153 1139 157 1143 q 147 1128 150 1135 q 138 1118 143 1122 q 94 1070 111 1097 q 54 1024 76 1043 q 19 978 32 1004 q 10 961 15 969 q 6 947 6 953 q 28 926 6 929 l 64 926 l 106 922 q 141 933 131 922 q 157 956 151 944 q 167 967 163 967 q 178 958 171 967 q 251 922 206 922 z "},"Ï":{"ha":335,"x_min":-32,"x_max":364,"o":"m 82 -312 q 95 -297 92 -312 q 99 -242 99 -281 l 97 -226 q 111 -162 97 -194 l 119 -133 q 131 -125 122 -125 l 188 -122 q 205 -125 201 -122 q 213 -179 208 -128 l 217 -219 q 227 -249 219 -242 q 240 -257 235 -257 q 253 -244 249 -257 q 275 -101 275 -160 l 275 -79 q 278 -69 275 -74 q 290 -37 290 -56 q 283 3 290 -19 q 271 78 274 31 q 274 119 271 99 q 276 163 276 140 l 275 185 q 288 199 275 194 q 307 224 307 204 l 300 279 q 290 342 299 311 q 276 411 276 376 q 278 433 276 421 q 281 482 281 446 q 277 599 281 531 q 274 714 274 667 q 277 765 274 754 q 281 790 281 776 q 269 841 281 817 q 233 865 258 865 q 212 862 221 864 q 185 860 203 860 q 138 865 158 860 q 104 869 118 869 q 65 853 81 869 q 40 815 49 836 q 32 781 32 793 l 33 757 q 38 699 38 739 q 29 600 38 663 l 28 578 q 36 552 28 560 q 44 531 44 544 l 44 399 q 47 269 44 321 l 47 239 q 46 221 47 229 q 44 203 44 213 l 44 194 q 46 142 46 178 q 42 -3 46 68 l 39 -58 q 44 -118 39 -75 q 53 -200 49 -161 q 58 -251 57 -239 l 58 -269 q 66 -299 58 -286 q 82 -312 74 -312 m 274 922 l 290 926 q 343 963 325 931 l 353 976 q 363 1007 363 990 q 343 1057 363 1032 q 294 1090 324 1082 l 286 1093 q 264 1097 275 1097 q 239 1088 251 1097 l 225 1078 q 185 1000 185 1057 q 213 941 185 958 q 274 922 242 924 m 53 925 q 110 951 89 925 q 131 1007 131 976 q 110 1060 131 1036 q 44 1088 89 1085 q -7 1065 18 1088 q -32 1011 -32 1042 l -32 1004 q -8 946 -32 967 q 53 925 17 925 z "},"Ñ":{"ha":707,"x_min":28,"x_max":679,"o":"m 222 -286 q 236 -274 232 -283 q 240 -203 240 -264 q 239 -143 240 -164 l 238 -118 q 251 -87 238 -96 q 264 -53 264 -78 l 261 -17 q 264 61 261 35 q 267 124 267 81 l 265 143 q 281 189 265 167 q 281 191 281 190 q 282 201 282 192 l 282 283 l 286 279 q 310 238 310 253 q 321 193 311 222 q 355 88 347 113 q 363 58 363 64 q 379 36 363 36 q 389 40 386 36 q 394 51 392 44 q 400 63 396 57 q 419 24 411 43 l 439 -12 q 454 -47 450 -29 q 456 -68 454 -58 q 460 -103 460 -86 l 458 -124 q 462 -172 458 -147 q 465 -221 465 -196 l 464 -235 q 478 -249 464 -249 q 493 -215 493 -249 l 492 -181 q 505 -117 492 -143 q 567 -89 518 -92 q 604 -125 604 -89 l 603 -156 q 618 -176 603 -175 q 638 -153 633 -176 q 660 14 660 -36 q 658 47 660 35 l 658 61 q 675 86 658 79 q 677 90 676 88 q 679 96 678 93 l 679 175 q 674 200 678 193 q 668 239 668 217 q 662 344 664 322 q 660 392 660 365 l 661 456 q 665 635 664 511 q 674 751 668 703 q 678 814 678 789 q 668 858 678 842 q 631 876 658 875 q 615 874 622 876 q 600 872 607 872 l 592 874 q 554 879 572 879 l 521 878 q 504 879 508 878 l 496 879 q 463 860 472 879 q 444 751 444 828 q 438 685 443 710 q 432 643 432 661 q 436 567 432 621 q 439 521 439 556 q 442 469 439 496 q 436 463 442 465 q 397 535 408 493 q 380 570 390 551 q 363 610 369 589 q 351 643 356 632 q 341 662 346 654 q 331 683 336 669 q 317 726 325 697 q 294 813 308 756 q 264 853 288 832 q 221 875 240 875 q 161 872 190 872 q 92 867 126 872 q 51 835 58 863 q 44 749 44 808 q 31 547 44 632 q 28 519 28 535 q 32 494 28 506 q 45 481 36 482 q 56 476 54 479 q 58 465 58 472 l 60 464 q 61 403 61 443 q 56 190 61 319 q 44 -47 51 60 q 33 -178 38 -153 q 31 -199 31 -189 q 42 -237 31 -224 q 65 -251 54 -251 q 82 -222 82 -251 q 80 -192 82 -201 q 78 -172 78 -183 q 101 -97 78 -104 q 129 -93 114 -93 q 156 -99 144 -93 q 181 -104 167 -104 l 189 -103 q 199 -112 199 -103 q 193 -210 199 -187 l 192 -236 q 222 -286 192 -286 m 489 936 q 533 946 515 936 q 610 1068 610 1010 q 606 1093 610 1083 q 565 1111 597 1111 q 515 1092 539 1111 q 508 1074 511 1088 q 499 1049 504 1061 q 482 1036 493 1036 q 458 1049 472 1036 q 436 1076 444 1063 q 411 1101 428 1089 q 347 1121 394 1113 q 292 1101 317 1115 q 247 1033 258 1082 q 235 1003 244 1017 q 232 993 232 997 q 253 966 232 978 q 293 954 275 954 q 309 959 299 954 q 329 970 319 964 q 342 981 339 976 q 354 1000 347 1000 q 372 988 361 1000 l 439 946 q 489 936 456 936 z "},"Ò":{"ha":765,"x_min":28,"x_max":738,"o":"m 619 -424 q 636 -393 636 -424 l 635 -333 q 638 -206 635 -271 q 642 -68 640 -142 q 657 24 642 -32 q 658 27 658 25 q 660 31 658 29 q 664 33 661 33 q 674 30 669 32 q 683 28 678 28 q 701 43 696 28 q 707 79 706 58 q 708 120 708 100 q 710 150 708 140 q 738 381 738 272 q 706 619 738 514 q 625 782 674 724 q 549 847 599 815 q 463 879 499 879 l 414 879 q 309 865 364 879 q 189 779 254 851 q 149 719 168 756 q 117 651 131 683 q 99 604 103 618 q 67 483 83 542 q 40 374 51 424 q 28 290 28 324 q 58 246 28 246 q 63 242 61 246 q 67 218 64 239 q 79 147 69 197 l 93 86 q 131 -186 131 -81 l 129 -208 q 140 -251 129 -237 q 161 -265 150 -265 q 182 -237 178 -265 l 181 -226 q 192 -144 181 -185 l 197 -111 q 219 -76 203 -76 q 253 -89 232 -76 q 381 -117 290 -110 q 483 -107 453 -117 q 529 -84 513 -97 q 557 -71 546 -71 q 588 -113 582 -71 q 594 -212 594 -156 l 593 -312 q 617 -422 593 -419 l 619 -424 m 382 97 q 349 113 364 97 q 333 151 333 128 q 327 189 333 175 q 315 213 321 203 q 304 240 304 225 q 308 260 304 249 q 313 285 313 271 l 307 343 q 306 395 307 374 q 304 432 304 417 q 307 463 304 447 l 315 533 q 325 489 324 514 q 329 460 325 474 q 347 446 333 446 q 364 464 361 446 q 365 492 365 476 l 365 518 q 374 591 365 554 q 426 640 383 628 q 449 633 436 640 q 483 603 478 615 q 506 422 506 529 q 446 133 506 199 q 382 97 413 97 m 453 925 q 468 928 461 925 q 479 935 475 932 q 486 939 483 938 q 508 967 508 950 q 489 1013 508 988 q 471 1046 478 1029 q 435 1131 453 1097 q 399 1165 418 1165 q 387 1163 393 1165 q 374 1160 381 1160 q 353 1163 363 1160 q 335 1167 343 1167 q 317 1160 325 1167 l 313 1160 q 293 1156 301 1160 q 279 1147 285 1151 q 269 1140 274 1143 q 258 1126 258 1133 q 269 1114 258 1121 q 310 1067 289 1100 q 374 988 331 1035 q 388 976 379 982 q 404 961 397 971 q 453 925 428 925 z "},"Ó":{"ha":765,"x_min":28,"x_max":738,"o":"m 619 -424 q 636 -393 636 -424 l 635 -333 q 638 -206 635 -271 q 642 -68 640 -142 q 657 24 642 -32 q 658 27 658 25 q 660 31 658 29 q 664 33 661 33 q 674 30 669 32 q 683 28 678 28 q 701 43 696 28 q 707 79 706 58 q 708 120 708 100 q 710 150 708 140 q 738 381 738 272 q 706 619 738 514 q 625 782 674 724 q 549 847 599 815 q 463 879 499 879 l 414 879 q 309 865 364 879 q 189 779 254 851 q 149 719 168 756 q 117 651 131 683 q 99 604 103 618 q 67 483 83 542 q 40 374 51 424 q 28 290 28 324 q 58 246 28 246 q 63 242 61 246 q 67 218 64 239 q 79 147 69 197 l 93 86 q 131 -186 131 -81 l 129 -208 q 140 -251 129 -237 q 161 -265 150 -265 q 182 -237 178 -265 l 181 -226 q 192 -144 181 -185 l 197 -111 q 219 -76 203 -76 q 253 -89 232 -76 q 381 -117 290 -110 q 483 -107 453 -117 q 529 -84 513 -97 q 557 -71 546 -71 q 588 -113 582 -71 q 594 -212 594 -156 l 593 -312 q 617 -422 593 -419 l 619 -424 m 382 97 q 349 113 364 97 q 333 151 333 128 q 327 189 333 175 q 315 213 321 203 q 304 240 304 225 q 308 260 304 249 q 313 285 313 271 l 307 343 q 306 395 307 374 q 304 432 304 417 q 307 463 304 447 l 315 533 q 325 489 324 514 q 329 460 325 474 q 347 446 333 446 q 364 464 361 446 q 365 492 365 476 l 365 518 q 374 591 365 554 q 426 640 383 628 q 449 633 436 640 q 483 603 478 615 q 506 422 506 529 q 446 133 506 199 q 382 97 413 97 m 396 919 q 443 956 421 919 q 460 971 451 965 q 475 982 469 976 q 539 1062 518 1029 q 579 1108 560 1094 q 590 1121 590 1115 q 579 1135 590 1128 q 569 1142 575 1138 q 555 1150 563 1146 q 535 1154 547 1154 l 531 1154 q 514 1161 524 1161 q 496 1158 506 1161 q 475 1154 486 1154 q 462 1157 468 1154 q 450 1160 456 1160 q 413 1126 431 1160 q 378 1040 396 1093 q 360 1007 371 1024 q 340 961 340 982 q 363 933 340 944 q 369 929 365 932 q 381 923 374 926 q 396 919 388 919 z "},"Ô":{"ha":765,"x_min":28,"x_max":738,"o":"m 619 -424 q 636 -393 636 -424 l 635 -333 q 638 -206 635 -271 q 642 -68 640 -142 q 657 24 642 -32 q 658 27 658 25 q 660 31 658 29 q 664 33 661 33 q 674 30 669 32 q 683 28 678 28 q 701 43 696 28 q 707 79 706 58 q 708 120 708 100 q 710 150 708 140 q 738 381 738 272 q 706 619 738 514 q 625 782 674 724 q 549 847 599 815 q 463 879 499 879 l 414 879 q 309 865 364 879 q 189 779 254 851 q 149 719 168 756 q 117 651 131 683 q 99 604 103 618 q 67 483 83 542 q 40 374 51 424 q 28 290 28 324 q 58 246 28 246 q 63 242 61 246 q 67 218 64 239 q 79 147 69 197 l 93 86 q 131 -186 131 -81 l 129 -208 q 140 -251 129 -237 q 161 -265 150 -265 q 182 -237 178 -265 l 181 -226 q 192 -144 181 -185 l 197 -111 q 219 -76 203 -76 q 253 -89 232 -76 q 381 -117 290 -110 q 483 -107 453 -117 q 529 -84 513 -97 q 557 -71 546 -71 q 588 -113 582 -71 q 594 -212 594 -156 l 593 -312 q 617 -422 593 -419 l 619 -424 m 382 97 q 349 113 364 97 q 333 151 333 128 q 327 189 333 175 q 315 213 321 203 q 304 240 304 225 q 308 260 304 249 q 313 285 313 271 l 307 343 q 306 395 307 374 q 304 432 304 417 q 307 463 304 447 l 315 533 q 325 489 324 514 q 329 460 325 474 q 347 446 333 446 q 364 464 361 446 q 365 492 365 476 l 365 518 q 374 591 365 554 q 426 640 383 628 q 449 633 436 640 q 483 603 478 615 q 506 422 506 529 q 446 133 506 199 q 382 97 413 97 m 490 932 q 539 938 514 932 q 552 940 544 939 q 563 946 560 940 q 567 960 565 951 q 558 969 567 965 q 511 1032 543 986 q 403 1153 428 1149 q 392 1149 396 1153 q 385 1138 389 1144 q 376 1128 382 1132 q 333 1080 350 1107 q 293 1033 315 1053 q 258 988 271 1014 q 249 971 254 979 q 244 957 244 963 q 267 936 244 939 l 303 936 l 344 932 q 380 943 369 932 q 396 965 390 954 q 406 976 401 976 q 417 968 410 976 q 490 932 444 932 z "}}}
